<?xml version="1.0" encoding="iso-8859-1"?>
<!-- Generator: Adobe Illustrator 19.0.0, SVG Export Plug-In . SVG Version: 6.00 Build 0)  -->
<svg version="1.1" id="Capa_1" xmlns="http://www.w3.org/2000/svg" xmlns:xlink="http://www.w3.org/1999/xlink" x="0px" y="0px"
	 viewBox="0 0 512 512" style="enable-background:new 0 0 512 512;" xml:space="preserve">
<path style="fill:#C6C5CA;" d="M187.509,179.447c-0.194-3.988-3.484-7.121-7.476-7.121h-34.08c-3.992,0-7.282,3.133-7.476,7.121
	l-7.607,156.297c-0.099,2.046,0.643,4.043,2.056,5.526c1.413,1.483,3.371,2.322,5.42,2.322h49.293c2.049,0,4.007-0.84,5.42-2.322
	c1.413-1.483,2.156-3.48,2.056-5.526L187.509,179.447z"/>
<path style="fill:#B2B1B5;" d="M168.798,343.593h18.841c2.049,0,4.007-0.84,5.42-2.322c1.413-1.483,2.156-3.48,2.056-5.526
	l-7.607-156.297c-0.194-3.988-3.484-7.121-7.476-7.121h-19.569L168.798,343.593z"/>
<path style="fill:#C6C5CA;" d="M270.646,179.447c-0.194-3.988-3.484-7.121-7.476-7.121h-34.08c-3.992,0-7.282,3.133-7.476,7.121
	l-7.607,156.297c-0.099,2.046,0.643,4.043,2.056,5.526c1.413,1.483,3.371,2.322,5.42,2.322h49.293c2.048,0,4.007-0.84,5.42-2.322
	c1.413-1.483,2.156-3.48,2.056-5.526L270.646,179.447z"/>
<path style="fill:#B2B1B5;" d="M251.935,343.593h18.841c2.048,0,4.007-0.84,5.42-2.322c1.413-1.483,2.156-3.48,2.056-5.526
	l-7.607-156.297c-0.194-3.988-3.484-7.121-7.476-7.121H243.6L251.935,343.593z"/>
<path style="fill:#C6C5CA;" d="M104.372,179.447c-0.194-3.988-3.484-7.121-7.476-7.121h-34.08c-3.992,0-7.282,3.133-7.476,7.121
	l-7.607,156.297c-0.099,2.046,0.643,4.043,2.056,5.526c1.413,1.483,3.371,2.322,5.42,2.322h49.293c2.049,0,4.007-0.84,5.42-2.322
	c1.413-1.483,2.156-3.48,2.056-5.526L104.372,179.447z"/>
<path style="fill:#B2B1B5;" d="M85.662,343.593h18.841c2.049,0,4.007-0.84,5.42-2.322c1.413-1.483,2.156-3.48,2.056-5.526
	l-7.607-156.297c-0.194-3.988-3.484-7.121-7.476-7.121H77.327L85.662,343.593z"/>
<path style="fill:#C6C5CA;" d="M353.782,179.447c-0.194-3.988-3.484-7.121-7.476-7.121h-34.08c-3.992,0-7.282,3.133-7.476,7.121
	l-7.607,156.297c-0.099,2.046,0.643,4.043,2.056,5.526c1.413,1.483,3.371,2.322,5.42,2.322h49.293c2.048,0,4.006-0.84,5.42-2.322
	c1.413-1.483,2.156-3.48,2.056-5.526L353.782,179.447z"/>
<path style="fill:#B2B1B5;" d="M335.071,343.593h18.841c2.048,0,4.006-0.84,5.42-2.322c1.413-1.483,2.156-3.48,2.056-5.526
	l-7.606-156.297c-0.194-3.988-3.484-7.121-7.476-7.121h-19.569L335.071,343.593z"/>
<path style="fill:#C6C5CA;" d="M436.918,179.447c-0.194-3.988-3.484-7.121-7.476-7.121h-34.08c-3.992,0-7.282,3.133-7.476,7.121
	l-7.607,156.297c-0.099,2.046,0.643,4.043,2.056,5.526c1.413,1.483,3.371,2.322,5.42,2.322h49.293c2.049,0,4.007-0.84,5.42-2.322
	c1.413-1.483,2.156-3.48,2.056-5.526L436.918,179.447z"/>
<path style="fill:#B2B1B5;" d="M418.208,343.593h18.841c2.049,0,4.007-0.84,5.42-2.322c1.413-1.483,2.156-3.48,2.056-5.526
	l-7.607-156.297c-0.194-3.988-3.484-7.121-7.476-7.121h-19.569L418.208,343.593z"/>
<path style="fill:#E0E0E2;" d="M284.056,331.865c-1.397-2.03-3.702-3.241-6.165-3.241H38.626c-4.134,0-7.485,3.351-7.485,7.485
	v51.071c0,4.134,3.351,7.485,7.485,7.485h231.929c2.087,0,4.079-0.871,5.496-2.403c1.416-1.532,2.129-3.586,1.967-5.666
	c-0.225-2.871-0.339-5.784-0.339-8.658c0-13.482,2.424-26.656,7.203-39.156C285.761,336.481,285.452,333.893,284.056,331.865z"/>
<path id="SVGCleanerId_0" style="fill:#C6C5CA;" d="M293.309,434.391c-8.816-14.653-13.961-30.734-15.291-47.795
	c-0.304-3.896-3.554-6.902-7.462-6.902H7.485c-4.134,0-7.485,3.351-7.485,7.485v51.071c0,4.134,3.351,7.485,7.485,7.485h279.411
	c2.699,0,5.188-1.452,6.515-3.801C294.739,439.586,294.7,436.703,293.309,434.391z"/>
<g>
	<path id="SVGCleanerId_0_1_" style="fill:#C6C5CA;" d="M293.309,434.391c-8.816-14.653-13.961-30.734-15.291-47.795
		c-0.304-3.896-3.554-6.902-7.462-6.902H7.485c-4.134,0-7.485,3.351-7.485,7.485v51.071c0,4.134,3.351,7.485,7.485,7.485h279.411
		c2.699,0,5.188-1.452,6.515-3.801C294.739,439.586,294.7,436.703,293.309,434.391z"/>
</g>
<path style="fill:#C6C5CA;" d="M456.513,121.832L249.01,35.307c-1.844-0.769-3.918-0.769-5.762,0L35.746,121.832
	c-3.292,1.373-5.158,4.879-4.459,8.377c0.701,3.498,3.773,6.016,7.34,6.016h415.006c3.568,0,6.639-2.518,7.339-6.016
	C461.672,126.711,459.805,123.205,456.513,121.832z"/>
<path style="fill:#B2B1B5;" d="M456.513,121.832l-202.9-84.605V16.904c0-4.134-3.351-7.485-7.485-7.485s-7.485,3.351-7.485,7.485
	v20.323L222,44.167l220.773,92.058h10.858c3.568,0,6.639-2.518,7.339-6.016C461.672,126.711,459.805,123.205,456.513,121.832z"/>
<path style="fill:#E0E0E2;" d="M453.633,121.256H38.626c-4.134,0-7.485,3.351-7.485,7.485v51.071c0,4.134,3.351,7.485,7.485,7.485
	h415.006c4.134,0,7.485-3.351,7.485-7.485v-51.071C461.117,124.607,457.767,121.256,453.633,121.256z"/>
<g>
	<path style="fill:#C6C5CA;" d="M453.633,121.256h-28.808v66.04h28.808c4.134,0,7.485-3.351,7.485-7.485v-51.07
		C461.117,124.607,457.767,121.256,453.633,121.256z"/>
	<path style="fill:#C6C5CA;" d="M277.891,328.623h-27.315c-5.571,15.405-8.616,32.01-8.616,49.314
		c0,5.657,0.336,11.236,0.968,16.727h27.628c2.087,0,4.079-0.871,5.496-2.403c1.416-1.532,2.129-3.586,1.967-5.666
		c-0.225-2.871-0.339-5.784-0.339-8.658c0-13.482,2.424-26.656,7.203-39.156c0.879-2.301,0.57-4.887-0.826-6.916
		C282.659,329.836,280.354,328.623,277.891,328.623z"/>
</g>
<path style="fill:#B2B1B5;" d="M278.018,386.596c-0.304-3.896-3.554-6.902-7.462-6.902h-28.573
	c0.284,23.817,6.321,46.271,16.786,66.041h28.127c2.699,0,5.188-1.452,6.515-3.801c1.328-2.349,1.289-5.231-0.101-7.542
	C284.493,419.739,279.349,403.659,278.018,386.596z"/>
<path style="fill:#FFD039;" d="M387.354,253.292c-68.729,0-124.645,55.915-124.645,124.645s55.915,124.645,124.645,124.645
	S512,446.667,512,377.937C512,309.208,456.085,253.292,387.354,253.292z"/>
<path style="fill:#FFAE47;" d="M387.354,253.292c-3.692,0-7.345,0.171-10.956,0.487c63.617,5.567,113.689,59.121,113.689,124.158
	s-50.072,118.591-113.689,124.158c3.612,0.316,7.264,0.487,10.956,0.487c68.73,0,124.646-55.915,124.646-124.645
	C512,309.208,456.085,253.292,387.354,253.292z"/>
<circle style="fill:#F99608;" cx="387.35" cy="377.94" r="84.09"/>
<path style="fill:#FFD039;" d="M411.861,380.19c-5.089-5.637-12.77-8.927-22.828-9.78c-10.08-0.855-14.208-5.564-13.386-15.27
	c0.678-7.982,6.574-12.282,15.755-11.503c7.674,0.651,10.517,10.895,10.532,10.951c1.02,4.006,5.097,6.429,9.1,5.407
	c4.007-1.019,6.427-5.094,5.408-9.1c-0.133-0.52-1.387-5.222-4.621-10.132c-4.306-6.536-10.146-10.557-16.981-11.751v-9.034
	c0-4.134-3.351-7.485-7.485-7.485c-4.134,0-7.485,3.351-7.485,7.485v9.951c-10.755,3.213-18.123,11.971-19.139,23.946
	c-1.536,18.128,8.571,29.885,27.037,31.451c6.066,0.514,10.556,2.207,12.983,4.895c1.872,2.075,2.668,4.937,2.365,8.508
	c-0.329,3.896-1.919,7.521-4.359,9.944c-2.806,2.786-6.696,3.988-11.565,3.577c-10.749-0.911-16.247-11.794-16.391-12.083
	c-1.77-3.714-6.21-5.303-9.938-3.553c-3.741,1.757-5.35,6.215-3.592,9.957c0.323,0.687,7.294,15.141,22.599,19.484v9.84
	c0,4.134,3.351,7.485,7.485,7.485c4.134,0,7.485-3.351,7.485-7.485v-9.113c6.77-1.238,11.467-4.509,14.466-7.486
	c4.994-4.959,8.093-11.814,8.728-19.301C418.691,392.239,416.556,385.391,411.861,380.19z"/>
<g>
</g>
<g>
</g>
<g>
</g>
<g>
</g>
<g>
</g>
<g>
</g>
<g>
</g>
<g>
</g>
<g>
</g>
<g>
</g>
<g>
</g>
<g>
</g>
<g>
</g>
<g>
</g>
<g>
</g>
</svg>
