<?xml version="1.0"?>
<svg xmlns="http://www.w3.org/2000/svg" xmlns:xlink="http://www.w3.org/1999/xlink" xmlns:svgjs="http://svgjs.com/svgjs" version="1.1" width="512" height="512" x="0" y="0" viewBox="0 0 512 512" style="enable-background:new 0 0 512 512" xml:space="preserve" class=""><g>
<g xmlns="http://www.w3.org/2000/svg">
	<g>
		<path style="" d="M206.165,433.718c0,0-2.28-17.31,14.381-11.709c16.662,5.601,11.233,21.449,4.881,16.026    c-6.352-5.423,5.566-23.817,18.316-15.627c12.75,8.19,9.898,24.083,0.854,25.256c-9.044,1.173,5.475-18.505,16.867-6.352    c11.393,12.153-13.481,34.309-23.654,26.163s-2.212-21.294,0.229-13.281c2.44,8.013-4.14,15.871-22.182,15.56    c-18.042-0.31-9.83-28.068-3.523-19.988c6.306,8.08-4.163,17.199-16.89,7.68C182.717,447.928,197.236,428.25,206.165,433.718z" fill="#ffffff" data-original="#ffffff" class=""/>
		<path style="" d="M216.882,470.919l-1.045-0.009c-5.913-0.102-10.077-3.132-11.541-8.352    c-3.112-0.394-6.394-1.83-9.544-4.186c-4.985-3.729-6.676-9.392-4.633-15.532c2.094-6.292,7.666-11.22,12.688-11.22    c0.724,0,1.424,0.097,2.097,0.289c-0.023-2.409,0.35-6.509,2.794-9.295c2.731-3.112,7.222-3.715,13.218-1.701    c2.311,0.777,4.338,1.786,6.037,3.007c2.866-3.024,6.524-4.738,10.18-4.738c2.473,0,4.909,0.758,7.238,2.253    c5.509,3.54,8.853,8.983,9.129,14.747c3.232,0.093,6.195,1.55,8.811,4.34c3.545,3.784,4.2,8.867,1.839,14.315    c-3.588,8.284-13.387,15.549-20.97,15.549c-2.374,0.001-4.423-0.676-6.089-2.01c-0.797-0.636-1.514-1.326-2.148-2.057    C230.957,469.333,224.751,470.919,216.882,470.919z M206.744,462.647c1.031,2.917,3.475,5.855,9.133,5.952l1.004,0.009    c9.075,0,14.028-2.128,16.689-4.149c-2.541-4.111-2.345-8.603-0.932-11.387c0.817-1.607,2.002-2.529,3.252-2.529    c0.84,0,2.376,0.431,3.254,3.314c1.223,4.013,0.316,7.936-2.482,10.922c0.548,0.635,1.176,1.237,1.871,1.794    c1.246,0.996,2.807,1.503,4.645,1.502c6.655,0,15.64-6.748,18.851-14.157c1.392-3.219,2.282-7.882-1.408-11.817    c-2.171-2.318-4.586-3.531-7.181-3.609c-0.544,5.534-4.006,9.709-8.693,10.317c-0.318,0.041-0.612,0.06-0.882,0.06l0,0    c-2.315,0-3.198-1.415-3.252-2.739c-0.131-3.26,4.568-8.741,10.58-9.781c-0.219-5.036-3.18-9.828-8.073-12.97    c-4.809-3.094-10.327-2.176-14.38,2.014c3.936,3.746,4.667,8.355,3.57,11.431c-0.765,2.145-2.408,3.478-4.283,3.479l0,0    c-1.126,0-2.282-0.481-3.347-1.39c-3.507-2.994-2.374-8.839,0.792-13.211c-1.485-1.044-3.261-1.916-5.292-2.599    c-5.035-1.695-8.641-1.364-10.747,1.034c-2.891,3.296-2.13,9.368-2.121,9.429c0.056,0.442-0.144,0.878-0.517,1.12    c-0.377,0.244-0.855,0.248-1.232,0.016c-0.84-0.512-1.765-0.773-2.756-0.773c-4.019,0-8.727,4.324-10.494,9.638    c-0.808,2.431-2.054,8.557,3.825,12.953c2.568,1.922,5.197,3.157,7.691,3.626c-0.512-4.484,0.86-8.852,2.668-11.097    c1.009-1.251,2.185-1.913,3.403-1.913c0.842,0,2.108,0.333,3.347,1.918c2.239,2.871,2.749,6.108,1.395,8.88    C213.305,460.674,210.319,462.438,206.744,462.647z M235.891,452.855c-0.212,0-0.724,0.344-1.192,1.265    c-1.034,2.037-1.205,5.491,0.6,8.72c1.988-2.332,2.57-5.237,1.634-8.31C236.563,453.31,236.096,452.855,235.891,452.855z     M209.899,449.448c-0.487,0-1.058,0.374-1.605,1.052c-1.539,1.912-2.67,5.999-2.108,9.857c2.927-0.047,5.362-1.354,6.378-3.434    c0.95-1.949,0.535-4.298-1.142-6.445C211.057,450.008,210.495,449.448,209.899,449.448z M251.088,438.725    c-4.845,1.077-8.237,5.526-8.165,7.313c0.009,0.22,0.02,0.521,0.941,0.521l0,0c0.178,0,0.375-0.014,0.585-0.041    C247.917,446.069,250.517,442.944,251.088,438.725z M227.254,427.174c-2.731,3.806-3.252,8.123-1.076,9.983    c1.645,1.403,3.241,0.889,3.954-1.107C230.964,433.722,230.346,430.182,227.254,427.174z" fill="#ffffff" data-original="#241726" class=""/>
	</g>
	<g>
		<path style="" d="M332.498,33.922c0,0-2.28-17.31,14.381-11.709c16.662,5.601,11.233,21.449,4.881,16.026    s5.566-23.817,18.316-15.627s9.898,24.083,0.854,25.256c-9.044,1.173,5.475-18.505,16.867-6.352s-13.481,34.309-23.654,26.163    s-2.212-21.294,0.229-13.281c2.44,8.013-4.14,15.871-22.182,15.56c-18.042-0.31-9.83-28.068-3.523-19.988    s-4.163,17.199-16.89,7.68S323.568,28.454,332.498,33.922z" fill="#ffffff" data-original="#ffffff" class=""/>
		<path style="" d="M343.215,71.123l-1.045-0.009c-5.913-0.102-10.077-3.132-11.544-8.352    c-3.11-0.394-6.391-1.83-9.542-4.186c-4.988-3.729-6.676-9.391-4.633-15.532c2.092-6.292,7.664-11.22,12.688-11.22    c0.722,0,1.424,0.097,2.097,0.29c-0.023-2.409,0.35-6.51,2.794-9.296c2.728-3.11,7.222-3.715,13.218-1.7    c2.311,0.777,4.338,1.786,6.037,3.007c2.866-3.024,6.524-4.738,10.178-4.738c2.476,0,4.911,0.758,7.238,2.253    c5.509,3.54,8.856,8.983,9.129,14.747c3.234,0.093,6.197,1.55,8.813,4.34c3.545,3.784,4.2,8.867,1.839,14.314    c-3.588,8.284-13.387,15.55-20.97,15.55c-2.374,0.001-4.423-0.676-6.089-2.01c-0.797-0.636-1.514-1.326-2.148-2.058    C357.291,69.537,351.084,71.123,343.215,71.123z M333.077,62.851c1.029,2.917,3.475,5.855,9.133,5.952l1.004,0.009    c9.072,0,14.028-2.128,16.687-4.15c-2.539-4.11-2.345-8.601-0.932-11.384c0.817-1.608,2.004-2.53,3.254-2.53    c0.837,0,2.376,0.431,3.254,3.314c1.221,4.013,0.316,7.936-2.482,10.921c0.548,0.636,1.174,1.237,1.871,1.795    c1.246,0.996,2.807,1.503,4.644,1.502c6.655,0,15.64-6.748,18.849-14.158c1.395-3.218,2.284-7.881-1.406-11.815    c-2.171-2.318-4.586-3.531-7.181-3.609c-0.544,5.534-4.006,9.709-8.693,10.317c-0.318,0.041-0.612,0.06-0.882,0.06l0,0    c-2.315,0-3.198-1.415-3.252-2.739c-0.131-3.26,4.568-8.741,10.58-9.781c-0.219-5.037-3.182-9.828-8.075-12.97    c-4.807-3.091-10.327-2.176-14.378,2.014c3.936,3.746,4.667,8.355,3.57,11.431c-0.767,2.145-2.408,3.478-4.283,3.479h-0.002    c-1.124,0-2.282-0.481-3.347-1.39c-3.507-2.994-2.372-8.84,0.794-13.212c-1.485-1.043-3.261-1.915-5.292-2.598    c-5.037-1.695-8.641-1.364-10.747,1.034c-2.891,3.296-2.13,9.368-2.121,9.429c0.056,0.442-0.144,0.878-0.517,1.12    c-0.375,0.243-0.853,0.248-1.232,0.016c-0.84-0.512-1.765-0.773-2.756-0.773c-4.019,0-8.729,4.324-10.496,9.638    c-0.808,2.431-2.051,8.557,3.828,12.953c2.568,1.922,5.197,3.157,7.689,3.626c-0.512-4.483,0.86-8.851,2.668-11.097    c1.009-1.251,2.187-1.913,3.403-1.913c0.844,0,2.11,0.333,3.349,1.918c2.239,2.871,2.749,6.108,1.395,8.88    C339.638,60.877,336.652,62.642,333.077,62.851z M362.224,53.059c-0.212,0-0.724,0.344-1.194,1.266    c-1.034,2.036-1.203,5.491,0.603,8.718c1.986-2.331,2.57-5.236,1.634-8.308C362.896,53.513,362.429,53.059,362.224,53.059z     M336.23,49.652c-0.487,0-1.056,0.374-1.602,1.052c-1.541,1.912-2.67,5.999-2.108,9.857c2.927-0.047,5.362-1.354,6.378-3.434    c0.95-1.949,0.535-4.298-1.142-6.445C337.39,50.212,336.828,49.652,336.23,49.652z M377.421,38.929    c-4.845,1.076-8.24,5.525-8.167,7.313c0.009,0.22,0.023,0.521,0.943,0.521l0,0c0.178,0,0.375-0.014,0.585-0.041    C374.25,46.272,376.85,43.148,377.421,38.929z M353.587,27.377c-2.731,3.806-3.254,8.124-1.077,9.983    c1.645,1.406,3.245,0.887,3.954-1.108C357.297,33.924,356.679,30.386,353.587,27.377z" fill="#ffffff" data-original="#241726" class=""/>
	</g>
	<g>
		<path style="" d="M16.895,178.556c0,0-2.28-17.31,14.381-11.709c16.662,5.601,11.233,21.449,4.881,16.026    s5.566-23.817,18.316-15.627s9.898,24.083,0.854,25.256c-9.044,1.173,5.475-18.505,16.867-6.352    c11.393,12.153-13.481,34.309-23.654,26.163s-2.212-21.294,0.229-13.281s-4.14,15.871-22.182,15.56    c-18.042-0.311-9.83-28.068-3.523-19.988c6.306,8.08-4.163,17.199-16.89,7.68C-6.553,192.766,7.965,173.089,16.895,178.556z" fill="#ffffff" data-original="#ffffff" class=""/>
		<path style="" d="M27.613,215.758l-1.045-0.009c-5.915-0.103-10.077-3.132-11.544-8.352    c-3.112-0.394-6.394-1.83-9.544-4.186c-4.985-3.729-6.676-9.391-4.633-15.532c2.094-6.291,7.666-11.22,12.69-11.22    c0.722,0,1.424,0.097,2.097,0.289c-0.023-2.409,0.348-6.509,2.792-9.295c2.728-3.111,7.222-3.714,13.218-1.701    c2.313,0.777,4.338,1.786,6.037,3.007c2.866-3.024,6.524-4.738,10.18-4.738c2.473,0,4.909,0.758,7.238,2.253    c5.509,3.54,8.853,8.983,9.129,14.748c3.234,0.091,6.195,1.549,8.811,4.339c3.545,3.782,4.2,8.866,1.842,14.313    c-3.588,8.285-13.39,15.552-20.972,15.552c-2.374,0.001-4.423-0.676-6.089-2.01c-0.794-0.636-1.514-1.326-2.148-2.057    C41.686,214.171,35.48,215.758,27.613,215.758z M17.475,207.486c1.029,2.917,3.475,5.855,9.133,5.952l1.004,0.009    c9.072,0,14.026-2.128,16.687-4.149c-2.541-4.11-2.347-8.602-0.932-11.384c0.817-1.608,2.002-2.531,3.254-2.531    c0.837,0,2.374,0.431,3.254,3.313c1.221,4.015,0.316,7.938-2.482,10.923c0.546,0.635,1.174,1.237,1.869,1.794    c1.246,0.996,2.807,1.503,4.644,1.502c6.658,0,15.642-6.749,18.851-14.159c1.395-3.218,2.282-7.88-1.406-11.814    c-2.173-2.317-4.588-3.53-7.181-3.609c-0.544,5.534-4.008,9.709-8.695,10.317c-0.318,0.041-0.612,0.06-0.882,0.06l0,0    c-2.315,0-3.198-1.415-3.252-2.74c-0.131-3.26,4.568-8.741,10.58-9.78c-0.219-5.037-3.18-9.828-8.073-12.97    c-4.811-3.094-10.327-2.177-14.38,2.014c3.936,3.746,4.669,8.355,3.57,11.431c-0.765,2.145-2.408,3.478-4.283,3.478l0,0    c-1.124,0-2.282-0.481-3.349-1.39c-3.505-2.994-2.372-8.839,0.794-13.211c-1.485-1.043-3.261-1.915-5.292-2.598    c-5.033-1.693-8.639-1.365-10.74,1.028c-2.884,3.28-2.135,9.375-2.126,9.436c0.056,0.441-0.144,0.877-0.519,1.119    c-0.37,0.244-0.851,0.249-1.23,0.016c-0.84-0.512-1.765-0.773-2.756-0.773c-4.019,0-8.729,4.324-10.496,9.639    c-0.808,2.429-2.054,8.556,3.825,12.952c2.568,1.922,5.2,3.157,7.691,3.626c-0.512-4.484,0.86-8.852,2.668-11.097    c1.009-1.251,2.185-1.913,3.401-1.913c0.844,0,2.11,0.333,3.349,1.918c2.241,2.871,2.749,6.107,1.397,8.881    C24.036,205.512,21.05,207.277,17.475,207.486z M46.622,197.693c-0.214,0-0.727,0.344-1.194,1.266    c-1.036,2.037-1.205,5.492,0.6,8.72c1.988-2.332,2.573-5.237,1.636-8.311C47.292,198.149,46.827,197.693,46.622,197.693z     M20.626,194.287c-0.485,0-1.056,0.374-1.602,1.052c-1.539,1.912-2.67,5.999-2.106,9.857c2.927-0.047,5.362-1.353,6.375-3.434    c0.952-1.949,0.535-4.298-1.142-6.445C21.786,194.846,21.224,194.287,20.626,194.287z M61.817,183.562    c-4.845,1.076-8.237,5.526-8.167,7.314c0.009,0.22,0.023,0.521,0.943,0.521l0,0c0.178,0,0.375-0.014,0.585-0.041    C58.646,190.907,61.246,187.782,61.817,183.562z M37.983,172.012c-2.731,3.806-3.252,8.123-1.076,9.982    c1.645,1.403,3.241,0.889,3.956-1.107C41.693,178.559,41.075,175.02,37.983,172.012z" fill="#ffffff" data-original="#241726" class=""/>
	</g>
	<path style="" d="M128.629,42.647h-0.034c-4.405-0.018-7.973-3.618-7.955-8.025c0.018-4.387,3.602-7.955,7.989-7.955   c2.169,0.009,4.173,0.849,5.676,2.365c1.501,1.514,2.324,3.525,2.315,5.658C136.6,39.077,133.014,42.647,128.629,42.647z    M128.654,28.977c-3.144,0-5.689,2.537-5.703,5.653c-0.014,3.132,2.523,5.692,5.653,5.705l0.025,1.155v-1.155   c3.117,0,5.665-2.537,5.68-5.656c0.007-1.517-0.578-2.945-1.647-4.022C131.595,29.58,130.171,28.984,128.654,28.977z" fill="#ffffff" data-original="#241726" class=""/>
	<path style="" d="M492.835,208.895h-0.034c-4.405-0.018-7.973-3.618-7.955-8.025c0.018-4.387,3.602-7.955,7.989-7.955   c2.169,0.009,4.173,0.849,5.676,2.365c1.501,1.514,2.324,3.525,2.315,5.658C500.806,205.325,497.22,208.895,492.835,208.895z    M492.859,195.226c-3.144,0-5.689,2.537-5.703,5.653c-0.014,3.132,2.523,5.692,5.653,5.705l0.025,1.155v-1.155   c3.117,0,5.665-2.537,5.68-5.656c0.007-1.517-0.578-2.945-1.647-4.022C495.8,195.828,494.376,195.233,492.859,195.226z" fill="#ffffff" data-original="#241726" class=""/>
	<path style="" d="M484.567,411.827h-0.034c-4.405-0.018-7.973-3.618-7.955-8.025c0.018-4.387,3.602-7.955,7.989-7.955   c2.169,0.009,4.173,0.849,5.676,2.365c1.501,1.514,2.324,3.525,2.315,5.658C492.538,408.256,488.952,411.827,484.567,411.827z    M484.592,398.157c-3.144,0-5.689,2.537-5.703,5.653c-0.014,3.132,2.523,5.692,5.653,5.705l0.025,1.155v-1.155   c3.117,0,5.665-2.537,5.68-5.656c0.007-1.517-0.578-2.945-1.647-4.022C487.533,398.76,486.109,398.164,484.592,398.157z" fill="#ffffff" data-original="#241726" class=""/>
	<path style="" d="M16.163,279.906h-0.034c-4.405-0.018-7.973-3.618-7.955-8.025c0.018-4.387,3.602-7.955,7.989-7.955   c2.169,0.009,4.173,0.849,5.676,2.365c1.501,1.514,2.325,3.525,2.315,5.658C24.134,276.335,20.548,279.906,16.163,279.906z    M16.188,266.236c-3.144,0-5.689,2.537-5.703,5.653c-0.014,3.132,2.523,5.692,5.653,5.705l0.025,1.155v-1.155   c3.117,0,5.665-2.537,5.68-5.656c0.007-1.517-0.578-2.945-1.647-4.022C19.128,266.839,17.704,266.243,16.188,266.236z" fill="#ffffff" data-original="#241726" class=""/>
	<g>
		<path style="" d="M56.222,68.891h-0.007c-0.639-0.005-1.153-0.524-1.149-1.162l0.115-19.447    c0.005-0.636,0.521-1.149,1.155-1.149h0.007c0.639,0.005,1.153,0.524,1.149,1.162l-0.115,19.447    C57.373,68.379,56.857,68.891,56.222,68.891z" fill="#ffffff" data-original="#241726" class=""/>
		<path style="" d="M48.382,64.646c-0.363,0-0.722-0.172-0.948-0.494c-0.366-0.524-0.237-1.243,0.287-1.609    L63.78,51.347c0.517-0.361,1.241-0.239,1.609,0.287c0.366,0.524,0.237,1.243-0.287,1.609L49.044,64.438    C48.843,64.578,48.612,64.646,48.382,64.646z" fill="#ffffff" data-original="#241726" class=""/>
		<path style="" d="M62.483,65.463c-0.307,0-0.612-0.122-0.84-0.361l-12.142-12.83    c-0.438-0.463-0.418-1.196,0.045-1.634c0.465-0.44,1.194-0.415,1.634,0.045l12.142,12.83c0.438,0.463,0.418,1.196-0.045,1.634    C63.054,65.359,62.767,65.463,62.483,65.463z" fill="#ffffff" data-original="#241726" class=""/>
		<path style="" d="M46.186,58.961c-0.634,0-1.149-0.51-1.155-1.144c-0.007-0.639,0.506-1.16,1.144-1.167l18.704-0.178    h0.007c0.639,0,1.153,0.51,1.16,1.144c0.007,0.639-0.506,1.16-1.144,1.167l-18.704,0.178H46.186z" fill="#ffffff" data-original="#241726" class=""/>
	</g>
	<g>
		<path style="" d="M421.354,93.541h-0.007c-0.639-0.005-1.153-0.524-1.149-1.162l0.115-19.447    c0.005-0.636,0.521-1.149,1.155-1.149h0.007c0.639,0.005,1.153,0.524,1.149,1.162l-0.115,19.447    C422.505,93.029,421.988,93.541,421.354,93.541z" fill="#ffffff" data-original="#241726" class=""/>
		<path style="" d="M413.514,89.296c-0.363,0-0.722-0.172-0.948-0.494c-0.366-0.524-0.237-1.243,0.287-1.609    l16.059-11.196c0.517-0.361,1.241-0.239,1.609,0.287c0.366,0.524,0.237,1.243-0.287,1.609l-16.059,11.196    C413.975,89.229,413.744,89.296,413.514,89.296z" fill="#ffffff" data-original="#241726" class=""/>
		<path style="" d="M427.615,90.113c-0.307,0-0.612-0.122-0.84-0.361l-12.142-12.83    c-0.438-0.463-0.418-1.196,0.045-1.634c0.465-0.44,1.194-0.415,1.634,0.045l12.142,12.83c0.438,0.463,0.418,1.196-0.045,1.634    C428.186,90.009,427.899,90.113,427.615,90.113z" fill="#ffffff" data-original="#241726" class=""/>
		<path style="" d="M411.318,83.611c-0.634,0-1.149-0.51-1.155-1.144c-0.007-0.639,0.506-1.16,1.144-1.167    l18.704-0.178h0.007c0.639,0,1.153,0.51,1.16,1.144c0.007,0.639-0.506,1.16-1.144,1.167l-18.704,0.178H411.318z" fill="#ffffff" data-original="#241726" class=""/>
	</g>
	<g>
		<path style="" d="M45.438,441.726h-0.007c-0.639-0.005-1.153-0.524-1.149-1.162l0.115-19.447    c0.005-0.636,0.521-1.149,1.155-1.149h0.007c0.639,0.004,1.153,0.524,1.149,1.162l-0.115,19.447    C46.589,441.214,46.072,441.726,45.438,441.726z" fill="#ffffff" data-original="#241726" class=""/>
		<path style="" d="M37.598,437.481c-0.363,0-0.722-0.172-0.948-0.494c-0.366-0.524-0.237-1.243,0.287-1.609    l16.059-11.196c0.517-0.361,1.241-0.239,1.609,0.287c0.366,0.524,0.237,1.243-0.287,1.609l-16.059,11.196    C38.058,437.413,37.828,437.481,37.598,437.481z" fill="#ffffff" data-original="#241726" class=""/>
		<path style="" d="M51.698,438.298c-0.307,0-0.612-0.122-0.84-0.361l-12.142-12.83    c-0.438-0.463-0.418-1.196,0.045-1.634c0.465-0.44,1.194-0.415,1.634,0.045l12.142,12.83c0.438,0.463,0.418,1.196-0.045,1.634    C52.269,438.194,51.983,438.298,51.698,438.298z" fill="#ffffff" data-original="#241726" class=""/>
		<path style="" d="M35.402,431.796c-0.634,0-1.149-0.51-1.155-1.144c-0.007-0.639,0.506-1.16,1.144-1.167    l18.704-0.178h0.007c0.639,0,1.153,0.51,1.16,1.144c0.007,0.639-0.506,1.16-1.144,1.167l-18.704,0.178H35.402z" fill="#ffffff" data-original="#241726" class=""/>
	</g>
	<path style="" d="M179.741,69.196c-0.677,0-1.228-0.425-1.435-1.108c-0.041-0.187-0.79-4.719-1.541-10.309   c-7.596-0.612-9.086-1.719-9.53-2.829c-0.129-0.317-0.341-1.151,0.451-2.025c1.467-1.619,5.326-4.173,7.863-5.77   c-0.812-9.255-0.129-11.399,0.657-12.26c0.542-0.595,1.365-0.749,2.117-0.381c1.663,0.819,5.563,3.573,8.862,6.027   c4.848-2.462,8.149-3.709,9.815-3.709c1.426,0,1.977,0.886,2.013,1.645c0.023,0.448,0.09,1.775-3.532,8.552   c8.176,6.752,8.113,8.056,8.082,8.765c-0.025,0.48-0.262,0.906-0.654,1.169c-1.53,1.025-10.835,1.178-13.94,1.201   C181.991,69.195,180.418,69.196,179.741,69.196z M179.119,57.94c0.483,3.558,0.955,6.629,1.219,8.295   c1.022-1.063,2.918-3.465,5.89-8.074C183.707,58.139,181.294,58.064,179.119,57.94z M178.809,55.606   c2.654,0.162,5.698,0.248,8.878,0.251c1.697-2.725,3.39-5.605,4.85-8.25c-1.744-1.408-3.649-2.893-5.581-4.35   c-2.909,1.52-6.05,3.307-8.975,5.106C178.193,50.538,178.471,52.967,178.809,55.606z M194.354,49.096   c-1.207,2.174-2.561,4.491-3.94,6.742c5.297-0.076,8.887-0.366,10.456-0.631C200.235,54.384,198.592,52.618,194.354,49.096z    M169.667,54.201c0.632,0.297,2.347,0.844,6.791,1.233c-0.26-2.032-0.478-3.938-0.661-5.697   C172.892,51.604,170.692,53.205,169.667,54.201z M177.762,36.834c-0.214,0.786-0.481,2.978-0.007,8.961   c2.349-1.421,4.805-2.818,7.147-4.068C181.809,39.45,179.134,37.618,177.762,36.834z M189.245,42.093   c1.521,1.158,3.013,2.325,4.41,3.447c1.819-3.436,2.636-5.397,2.923-6.342C195.636,39.351,193.591,39.947,189.245,42.093z" fill="#ffffff" data-original="#241726" class=""/>
	<path style="" d="M449.682,446.262c-0.117,0-0.332-0.034-0.442-0.069c-1.758-0.552-7.702-7.714-9.664-10.121   c-4.01,0.45-7.499,0.697-9.878,0.697c-2.961,0-4.18-0.32-4.658-1.228c-0.26-0.491-0.212-1.079,0.124-1.572   c0.122-0.148,3.184-3.57,7.073-7.656c-4.238-6.251-4.335-8.103-3.785-9.155c0.323-0.615,0.95-0.968,1.722-0.968   c2.334,0.134,6.755,1.548,9.587,2.526c6.576-6.303,8.668-7.168,9.84-7.168c0.889,0,1.562,0.543,1.756,1.416   c0.402,1.811,0.695,6.575,0.846,10.684c9.21,4.164,9.447,5.689,9.562,6.431c0.088,0.568-0.113,1.116-0.548,1.503   c-0.334,0.297-1.327,1.179-8.878,2.598c-0.153,11.17-1.246,12.08-2.654,12.081C449.682,446.262,449.682,446.262,449.682,446.262z    M442.295,435.745c3.374,4.084,5.85,6.703,7.037,7.76c0.244-1.01,0.594-3.398,0.688-8.909   C447.567,435.016,444.915,435.41,442.295,435.745z M427.883,434.391c1.478,0.134,5.344,0.018,9.98-0.458   c-1.559-1.978-3.011-3.903-4.277-5.683C431.115,430.852,429.018,433.142,427.883,434.391z M435.211,426.55   c1.541,2.178,3.374,4.6,5.362,7.08c3.189-0.381,6.493-0.864,9.47-1.381c0.007-2.243-0.029-4.658-0.102-7.075   c-3.006-1.317-6.366-2.647-9.6-3.803C438.781,422.894,437.059,424.63,435.211,426.55z M452.281,426.229   c0.05,1.91,0.074,3.804,0.072,5.597c3.843-0.738,5.883-1.33,6.793-1.698C458.512,429.556,456.804,428.334,452.281,426.229z    M430.587,418.539c0.165,0.679,0.81,2.361,3.288,6.067c1.424-1.474,2.771-2.839,4.028-4.08   C434.629,419.431,432.004,418.716,430.587,418.539z M442.203,419.586c2.58,0.943,5.206,1.984,7.646,3.029   c-0.16-3.839-0.406-7.073-0.654-8.632C448.449,414.306,446.574,415.47,442.203,419.586z" fill="#ffffff" data-original="#241726" class=""/>
	<g>
		<path style="" d="M338.825,483.107c-12.582,0-27.17-4.404-40.106-19.589c-0.413-0.486-0.354-1.215,0.131-1.629    c0.483-0.414,1.212-0.355,1.629,0.131c29.37,34.479,67.654,10.957,68.038,10.715c0.539-0.339,1.255-0.181,1.593,0.361    c0.341,0.539,0.178,1.254-0.361,1.593C369.52,474.835,356.061,483.107,338.825,483.107z" fill="#ffffff" data-original="#241726" class=""/>
		<path style="" d="M301.281,478.736L301.281,478.736c-2.494,0-7.244-7.829-10.792-14.396    c-5.908-10.938-5.098-12.172-4.753-12.698c0.469-0.719,1.456-1.012,3.403-1.012c6.132,0,21.32,3.056,24.254,4.879    c1.029,0.639,1.016,1.506,0.964,1.851c-0.287,1.862-4.748,3.952-13.27,6.215c0.765,2.429,2.311,8.096,1.914,13.18    C302.854,478.64,301.543,478.736,301.281,478.736z M287.817,453.021c0.578,4.098,9.824,19.616,12.9,22.851    c0.203-6.039-2.178-12.637-2.203-12.707c-0.113-0.307-0.088-0.645,0.063-0.934c0.151-0.289,0.42-0.5,0.736-0.581    c5.046-1.294,10.772-3.244,12.406-4.408c-3.478-1.571-16.885-4.301-22.579-4.301C288.481,452.941,288.068,452.98,287.817,453.021z    " fill="#ffffff" data-original="#241726" class=""/>
		<path style="" d="M348.48,492.614c0,0,0,0-0.002,0c-0.406,0-0.763-0.029-1.061-0.085    c-5.87-1.074-12.837-10.124-13.13-10.509c-0.309-0.403-0.316-0.961-0.02-1.374c0.156-0.217,3.861-5.366,7.77-8.829    c3.952-3.5,26.147-10.18,32.15-10.18c0.569,0,1.02,0.054,1.383,0.164c0.803,0.244,1.341,0.796,1.514,1.553    c0.566,2.486-3.907,7.337-6.98,10.321c2.841,0.819,7.903,2.475,10.09,4.397c0.562,0.494,0.738,1.215,0.469,1.928    C379.107,484.127,354.776,492.614,348.48,492.614z M336.659,481.297c2.252,2.775,7.373,8.263,11.173,8.96    c0.183,0.033,0.399,0.046,0.648,0.046c6.608,0,27.147-7.969,29.794-10.809c-2.498-1.817-8.513-3.573-10.74-4.122    c-0.413-0.102-0.736-0.422-0.842-0.835c-0.106-0.412,0.025-0.849,0.336-1.137c4.317-3.97,7.964-8.426,7.802-9.536    c0.02,0.133-0.178,0.085-0.643,0.085c-5.917,0-27.377,6.729-30.616,9.598C340.676,476.111,337.803,479.782,336.659,481.297z" fill="#ffffff" data-original="#241726" class=""/>
	</g>
	<g>
		<path style="" d="M60.479,115.341c-0.095,0-0.192-0.012-0.289-0.037c-0.616-0.159-0.988-0.788-0.831-1.406    c0.12-0.458,12.37-45.753,59.315-40.642c0.636,0.069,1.095,0.64,1.025,1.274c-0.07,0.635-0.686,1.097-1.273,1.023    c-45.023-4.904-56.368,37.129-56.828,38.92C61.463,114.994,60.993,115.341,60.479,115.341z" fill="#ffffff" data-original="#241726" class=""/>
		<path style="" d="M113.003,89.207L113.003,89.207c-0.682-0.001-1.25-0.325-1.559-0.889    c-1.099-1.993,2.218-8.215,5.473-13.478c-2.225-1.241-7.238-4.3-10.44-8.269c-0.77-0.955-0.673-1.695-0.456-2.148    c0.524-1.095,1.977-1.095,2.525-1.095c4.737,0,27.154,6.457,27.727,9.648c0.641,3.585-19.641,15.543-22.767,16.177    C113.322,89.191,113.157,89.207,113.003,89.207z M108.743,65.641c3.999,4.534,10.259,7.697,10.325,7.73    c0.291,0.147,0.508,0.408,0.596,0.723c0.088,0.315,0.038,0.651-0.135,0.928c-2.783,4.409-5.61,9.766-5.994,11.727    c4.335-1.432,18.336-10.637,20.282-13.313C131.035,71.536,114.303,65.779,108.743,65.641z" fill="#ffffff" data-original="#241726" class=""/>
		<path style="" d="M62.941,127.523L62.941,127.523c-0.406,0-1.004-0.123-1.55-0.706    c-1.731-1.86-1.745-8.192-1.587-11.941c-2.629,1.354-7.45,3.629-10.361,3.732h-0.002c-0.862,0-1.503-0.501-1.742-1.307    c-1.377-4.647,11.264-28.859,15.653-31.708c1.984-1.287,5.139-1.94,9.377-1.94c3.873,0,7.244,0.544,7.387,0.566    c0.501,0.082,0.889,0.482,0.957,0.986c0.036,0.264,0.876,6.553,0.411,11.755c-0.49,5.491-13.742,28.432-17.506,30.305    C63.634,127.436,63.284,127.523,62.941,127.523z M61.072,111.73c0.214,0,0.429,0.06,0.616,0.178    c0.361,0.228,0.566,0.634,0.537,1.058c-0.399,5.632-0.034,11.164,0.779,12.192c2.961-1.829,15.728-23.365,16.177-28.404    c0.343-3.853-0.084-8.487-0.296-10.376c-1.219-0.158-3.597-0.415-6.157-0.415c-3.73,0-6.538,0.542-8.118,1.567    c-4.256,2.761-14.75,24.663-14.746,28.726c3.051-0.389,8.639-3.248,10.639-4.377C60.68,111.779,60.876,111.73,61.072,111.73z" fill="#ffffff" data-original="#241726" class=""/>
	</g>
	<path style="" d="M481.981,367.169c-0.853,0-1.661,0-3.913-8.966c-7.599-1.461-8.242-2.324-8.488-2.656   c-0.214-0.288-0.307-0.816-0.208-1.161c0.138-0.487,0.456-1.616,9.135-5.116c3.119-8.128,4.175-8.128,4.881-8.128   c0.363,0,0.867,0.262,1.083,0.553c0.56,0.75,1.065,2.697,1.833,5.812c0.239,0.975,0.528,2.152,0.695,2.67   c0.456,0.204,1.46,0.564,2.293,0.862c4.466,1.601,5.617,2.145,5.827,3.211c0.077,0.399-0.126,0.983-0.429,1.255   c-0.907,0.814-5.222,2.415-7.486,3.22c-3.676,8.365-4.462,8.405-5.157,8.443C482.028,367.169,482.001,367.169,481.981,367.169z    M472.52,354.552c1.519,0.438,4.286,1.066,6.703,1.517c0.445,0.083,0.801,0.42,0.909,0.86c0.618,2.502,1.424,5.352,2.006,6.979   c0.842-1.515,2.117-4.197,3.15-6.566c0.129-0.295,0.372-0.522,0.675-0.629c2.065-0.726,4.396-1.618,5.847-2.253   c-1.018-0.428-2.401-0.924-3.297-1.246c-2.55-0.914-3.031-1.111-3.358-1.553c-0.284-0.384-0.463-1.026-1.097-3.603   c-0.239-0.969-0.605-2.459-0.93-3.571c-0.758,1.443-1.817,3.901-2.64,6.076c-0.115,0.302-0.352,0.544-0.652,0.663   C477.156,352.296,474.114,353.661,472.52,354.552z" fill="#ffffff" data-original="#241726" class=""/>
	<path style="" d="M259.499,74.376c-0.853,0-1.663,0-3.916-8.966c-7.596-1.464-8.262-2.356-8.486-2.656   c-0.217-0.288-0.309-0.817-0.21-1.162c0.138-0.486,0.456-1.615,9.138-5.115c3.119-8.129,4.175-8.129,4.879-8.129   c0.363,0,0.867,0.262,1.086,0.554c0.557,0.75,1.063,2.696,1.828,5.81c0.241,0.976,0.53,2.153,0.697,2.672   c0.456,0.203,1.462,0.564,2.297,0.863c4.464,1.6,5.615,2.145,5.823,3.21c0.079,0.398-0.124,0.982-0.427,1.254   c-0.907,0.814-5.222,2.416-7.486,3.222c-3.676,8.365-4.462,8.405-5.157,8.443C259.546,74.376,259.519,74.376,259.499,74.376z    M250.036,61.76c1.519,0.438,4.288,1.066,6.703,1.517c0.445,0.083,0.801,0.42,0.909,0.86c0.618,2.503,1.426,5.354,2.006,6.98   c0.842-1.514,2.117-4.197,3.153-6.567c0.129-0.295,0.372-0.522,0.675-0.629c2.065-0.726,4.394-1.618,5.845-2.253   c-1.016-0.428-2.397-0.923-3.293-1.245c-2.552-0.915-3.033-1.113-3.36-1.554c-0.287-0.384-0.465-1.026-1.099-3.605   c-0.239-0.969-0.605-2.455-0.93-3.568c-0.756,1.444-1.814,3.901-2.638,6.075c-0.115,0.302-0.352,0.544-0.652,0.663   C254.674,59.504,251.632,60.868,250.036,61.76z" fill="#ffffff" data-original="#241726" class=""/>
	<path style="" d="M53.422,263.276c-0.855,0-1.666,0-3.918-8.966c-7.599-1.461-8.242-2.325-8.488-2.656   c-0.214-0.288-0.307-0.816-0.208-1.161c0.138-0.487,0.456-1.616,9.138-5.115c3.119-8.129,4.175-8.129,4.879-8.129   c0.366,0,0.867,0.262,1.086,0.555c0.557,0.749,1.063,2.695,1.828,5.81c0.241,0.975,0.53,2.152,0.697,2.671   c0.456,0.203,1.46,0.563,2.295,0.862c4.464,1.6,5.615,2.145,5.825,3.211c0.077,0.399-0.126,0.983-0.429,1.255   c-0.907,0.812-5.222,2.415-7.486,3.22c-3.676,8.365-4.462,8.405-5.157,8.442C53.465,263.276,53.44,263.276,53.422,263.276z    M43.957,250.659c1.519,0.438,4.288,1.066,6.703,1.517c0.445,0.083,0.801,0.42,0.909,0.86c0.618,2.502,1.426,5.353,2.006,6.979   c0.842-1.514,2.117-4.195,3.15-6.565c0.129-0.295,0.372-0.522,0.675-0.629c2.063-0.727,4.394-1.618,5.847-2.253   c-1.018-0.429-2.401-0.924-3.297-1.246c-2.55-0.915-3.031-1.113-3.358-1.554c-0.284-0.384-0.463-1.026-1.097-3.603   c-0.239-0.969-0.605-2.457-0.93-3.569c-0.756,1.444-1.814,3.901-2.638,6.075c-0.115,0.302-0.352,0.544-0.652,0.663   C48.594,248.405,45.55,249.768,43.957,250.659z" fill="#ffffff" data-original="#241726" class=""/>
	<g>
		<path style="" d="M31.169,330.228c0,0-18.981-16.02-22.797,1.487c-2.026,9.293,18.078,10.282,18.518,7.552    s-9.198,3.95-3.919,11.566C28.25,358.45,42.75,340.071,31.169,330.228z" fill="#b1739a" data-original="#b1739a" class=""/>
		<path style="" d="M33.422,328.578c0,0-3.98-24.517,12.998-18.788c9.012,3.041-0.478,20.792-3.045,19.765    c-2.568-1.026,8.118-5.857,11.935,2.587S35.908,343.572,33.422,328.578z" fill="#b1739a" data-original="#b1739a" class=""/>
		<path style="" d="M30.592,326.344c-0.361,0-0.718-0.169-0.943-0.487c-0.156-0.222-3.841-5.499-2.774-10.922    c0.542-2.756,2.194-5.028,4.909-6.755c0.539-0.342,1.255-0.183,1.596,0.355c0.343,0.538,0.183,1.253-0.354,1.594    c-2.162,1.373-3.469,3.14-3.882,5.25c-0.878,4.461,2.358,9.094,2.392,9.14c0.368,0.52,0.246,1.241-0.275,1.61    C31.057,326.276,30.824,326.344,30.592,326.344z" fill="#ffffff" data-original="#241726" class=""/>
		<path style="" d="M28.513,327.476c-0.42,0-0.826-0.23-1.029-0.631c-2.331-4.577-5.006-7.238-7.732-7.697    c-2.794-0.463-4.861,1.468-4.881,1.487c-0.458,0.441-1.185,0.431-1.634-0.032c-0.442-0.459-0.429-1.19,0.032-1.634    c0.117-0.113,2.907-2.767,6.867-2.1c3.527,0.592,6.691,3.596,9.406,8.926c0.291,0.569,0.063,1.265-0.506,1.554    C28.87,327.436,28.692,327.476,28.513,327.476z" fill="#ffffff" data-original="#241726" class=""/>
		<path style="" d="M27.493,347.204c-0.871,0-1.368-0.465-1.6-0.77c-1.207-1.584,0.047-5.468,1.194-8.226    c-2.568-1.092-5.938-2.828-6.378-4.558c-0.149-0.586-0.016-1.163,0.372-1.626c1.634-1.953,7.057-1.222,9.316-0.818    c0.627,0.113,1.045,0.713,0.932,1.342c-0.115,0.626-0.722,1.043-1.341,0.933c-2.807-0.504-5.838-0.552-6.845-0.155    c0.756,0.774,3.286,2.155,5.895,3.183c0.293,0.116,0.526,0.348,0.645,0.64c0.12,0.292,0.113,0.621-0.016,0.908    c-1.23,2.745-2.106,5.797-1.975,6.795c1.984-0.489,3.64-3.683,4.083-4.801c0.232-0.596,0.905-0.885,1.499-0.652    c0.594,0.235,0.885,0.905,0.65,1.499c-0.228,0.583-2.347,5.709-6.019,6.273C27.76,347.194,27.622,347.204,27.493,347.204z" fill="#ffffff" data-original="#241726" class=""/>
		<path style="" d="M39.068,336.999c-0.591,0-1.095-0.452-1.149-1.054c-0.056-0.635,0.413-1.196,1.049-1.253    c2.205-0.195,4.748-0.561,6.208-0.919c-1.228-0.642-3.415-1.564-5.34-2.249c-0.542-0.193-0.858-0.755-0.745-1.318    c0.864-4.285,1.149-8.639,0.675-9.814c-0.919,0.689-2.719,3.899-4.055,7.289c-0.235,0.595-0.907,0.878-1.499,0.651    c-0.594-0.235-0.885-0.905-0.65-1.5c0.718-1.821,3.243-7.836,5.599-8.721c0.555-0.211,1.115-0.186,1.616,0.07    c2.173,1.118,1.677,6.67,0.77,11.505c3.992,1.482,6.236,2.744,6.676,3.755c0.183,0.42,0.151,0.89-0.086,1.289    c-0.253,0.424-0.921,1.55-8.966,2.262C39.138,336.998,39.105,336.999,39.068,336.999z" fill="#ffffff" data-original="#241726" class=""/>
	</g>
	<g>
		<path style="" d="M464.351,64.094c0,0-5.359-24.253-19.019-12.656c-7.251,6.155,8.125,19.145,10.132,17.242    s-9.707-2.444-10.135,6.813S467.58,78.946,464.351,64.094z" fill="#b1739a" data-original="#b1739a" class=""/>
		<path style="" d="M467.143,64.151c0,0,11.72-21.899,21.734-7.04c5.315,7.887-13.001,16.233-14.418,13.859    c-1.417-2.374,10.007,0.273,7.915,9.3C480.281,89.297,460.017,77.575,467.143,64.151z" fill="#b1739a" data-original="#b1739a" class=""/>
		<path style="" d="M466.953,60.894c-0.014,0-0.027,0-0.043,0c-0.636-0.024-1.135-0.559-1.113-1.195    c0.011-0.272,0.284-6.702,4.423-10.364c2.103-1.862,4.809-2.67,8.003-2.388c0.636,0.054,1.106,0.615,1.052,1.25    c-0.054,0.638-0.612,1.11-1.25,1.052c-2.543-0.22-4.656,0.389-6.265,1.809c-3.394,2.996-3.649,8.667-3.651,8.725    C468.084,60.404,467.571,60.894,466.953,60.894z" fill="#ffffff" data-original="#241726" class=""/>
		<path style="" d="M464.615,60.533c-0.07,0-0.14-0.006-0.21-0.019c-0.627-0.115-1.045-0.717-0.93-1.345    c0.923-5.035,0.42-8.765-1.453-10.79c-1.925-2.076-4.775-1.807-4.805-1.8c-0.625,0.061-1.203-0.39-1.273-1.023    c-0.068-0.632,0.384-1.201,1.016-1.273c0.156-0.02,3.997-0.427,6.732,2.498c2.442,2.612,3.135,6.92,2.058,12.805    C465.646,60.143,465.161,60.533,464.615,60.533z" fill="#ffffff" data-original="#241726" class=""/>
		<path style="" d="M453.99,76.168c-0.873,0-1.74-0.165-2.516-0.589c-1.004-0.548-1.153-1.368-1.153-1.808    c0.002-1.99,3.358-4.316,5.942-5.812c-1.377-2.427-3.004-5.852-2.302-7.493c0.237-0.556,0.691-0.935,1.28-1.069    c2.53-0.553,6.357,3.314,7.903,5.006c0.431,0.471,0.397,1.202-0.072,1.632c-0.476,0.429-1.203,0.398-1.634-0.072    c-1.923-2.101-4.301-3.979-5.346-4.279c0.133,1.075,1.304,3.709,2.753,6.11c0.165,0.27,0.21,0.596,0.126,0.9    c-0.084,0.305-0.287,0.562-0.564,0.712c-2.645,1.435-5.191,3.329-5.694,4.201c1.857,0.808,5.125-0.719,6.159-1.339    c0.539-0.328,1.255-0.152,1.584,0.394c0.329,0.546,0.153,1.256-0.39,1.585C459.657,74.494,456.779,76.168,453.99,76.168z" fill="#ffffff" data-original="#241726" class=""/>
		<path style="" d="M474.511,78.091c-0.869,0-2.846-0.56-7.906-3.761c-0.539-0.341-0.7-1.055-0.359-1.594    c0.345-0.538,1.061-0.698,1.596-0.358c1.871,1.184,4.112,2.436,5.491,3.04c-0.587-1.256-1.767-3.317-2.88-5.03    c-0.314-0.482-0.226-1.12,0.208-1.499c3.288-2.882,6.159-6.169,6.495-7.39c-1.165,0.007-4.527,1.447-7.646,3.331    c-0.542,0.328-1.255,0.157-1.587-0.393c-0.329-0.546-0.156-1.256,0.39-1.587c1.679-1.012,7.326-4.26,9.745-3.532    c0.571,0.173,1.002,0.531,1.243,1.039c1.047,2.206-2.719,6.316-6.375,9.608c2.275,3.601,3.29,5.966,3.026,7.036    c-0.111,0.446-0.42,0.8-0.851,0.973C474.983,78.022,474.816,78.091,474.511,78.091z" fill="#ffffff" data-original="#241726" class=""/>
	</g>
	<g>
		<path style="" d="M103.593,143.541c0,0,291.181-29.964,300.425-8.172c9.244,21.792,16.177,236.989,0,242.437    s-303.026,24.683-308.71-0.894C92.466,364.122,89.727,148.989,103.593,143.541z" fill="#f3c200" data-original="#f3c200" class=""/>
		<polygon style="" points="98.971,118.863 94.349,182.695 410.951,178.94 407.965,117.648   " fill="#e17b8d" data-original="#e17b8d" class=""/>
		<g>
			<path style="" d="M184.251,360.937c-57.483,0-58.48-3.386-59.015-5.205c-5.856-19.888-2.092-145.323,0.799-152.876     c0.165-0.431,0.571-0.722,1.031-0.741c1.131-0.046,113.982-4.622,189.368-4.622c67.587,0,68.559,3.559,69.083,5.472     c1.485,5.431,1.86,42.56,1.363,75.318c-0.311,20.513-1.404,68.863-4.836,74.8c-0.32,0.556-0.727,0.902-1.203,1.026     C376.41,355.265,256.256,360.937,184.251,360.937z M127.991,204.389c-2.823,12.483-6.208,131.434-0.539,150.69     c0.774,1.01,7.93,3.547,56.799,3.547c73.863,0,189.33-5.668,195.813-6.716c1.715-2.594,3.746-25.783,4.484-72.381     c0.589-37.182,0.023-71.255-1.262-75.955c-0.858-1.062-9.183-3.77-66.853-3.77C244.516,199.803,138.458,203.971,127.991,204.389z     " fill="#ffffff" data-original="#241726" class=""/>
			<path style="" d="M385.941,242.741c-0.447,0-45.346-0.009-102.468-0.771c-57.095-0.761-157.644,0.755-158.653,0.771     c-0.007,0-0.014,0-0.018,0c-0.63,0-1.146-0.506-1.155-1.137c-0.009-0.639,0.499-1.163,1.137-1.174     c1.009-0.016,101.59-1.531,158.721-0.771c57.106,0.762,101.989,0.771,102.436,0.771c0.639,0,1.155,0.517,1.155,1.155     S386.579,242.741,385.941,242.741z" fill="#ffffff" data-original="#241726" class=""/>
			<path style="" d="M385.941,288.19c-0.447,0-45.346-0.009-102.468-0.77c-57.097-0.758-158.416-0.008-159.432,0     c-0.524,0.009-1.16-0.508-1.165-1.146c-0.005-0.639,0.508-1.16,1.146-1.164c1.018-0.01,102.355-0.763,159.481,0     c57.104,0.761,101.989,0.77,102.436,0.77c0.639,0,1.155,0.517,1.155,1.155S386.579,288.19,385.941,288.19z" fill="#ffffff" data-original="#241726" class=""/>
			<path style="" d="M124.802,327.476c-0.623,0-1.135-0.494-1.155-1.12c-0.018-0.638,0.483-1.17,1.119-1.19     c1.011-0.03,101.592-3.075,158.739-2.311c57.095,0.762,99.681,0.008,100.105,0c0.627,0.002,1.164,0.496,1.176,1.134     c0.011,0.639-0.496,1.166-1.135,1.177c-0.424,0.006-43.048,0.761-100.177,0c-57.092-0.761-157.626,2.279-158.635,2.311     C124.825,327.476,124.813,327.476,124.802,327.476z" fill="#ffffff" data-original="#241726" class=""/>
			<path style="" d="M165.63,361.371c-0.636,0-1.151-0.513-1.155-1.149c-0.007-1.385-0.779-138.652-1.541-157.105     c-0.025-0.638,0.469-1.176,1.108-1.202c0.632-0.068,1.174,0.468,1.203,1.107c0.763,18.492,1.535,155.801,1.541,157.186     c0.005,0.639-0.51,1.159-1.149,1.162C165.634,361.371,165.632,361.371,165.63,361.371z" fill="#ffffff" data-original="#241726" class=""/>
			<path style="" d="M231.106,359.746c-0.639,0-1.155-0.517-1.155-1.155c0-16.852-3.812-157.793-3.85-159.215     c-0.016-0.639,0.485-1.169,1.124-1.187c0.011,0,0.023,0,0.032,0c0.625,0,1.137,0.496,1.155,1.124     c0.038,1.422,3.85,142.395,3.85,159.278C232.262,359.229,231.745,359.746,231.106,359.746z" fill="#ffffff" data-original="#241726" class=""/>
			<path style="" d="M290.422,359.746c-0.63,0-1.146-0.507-1.155-1.139l-2.311-160.059     c-0.009-0.639,0.501-1.163,1.14-1.172c0.724-0.035,1.162,0.503,1.171,1.139l2.311,160.059c0.009,0.639-0.501,1.163-1.14,1.172     C290.433,359.746,290.426,359.746,290.422,359.746z" fill="#ffffff" data-original="#241726" class=""/>
			<path style="" d="M344.343,354.87c-0.625,0-1.14-0.499-1.155-1.127l-3.85-155.267     c-0.016-0.638,0.49-1.168,1.126-1.184c0.011,0,0.02,0,0.029,0c0.625,0,1.14,0.499,1.155,1.127l3.85,155.267     c0.016,0.638-0.49,1.168-1.126,1.184C344.361,354.87,344.352,354.87,344.343,354.87z" fill="#ffffff" data-original="#241726" class=""/>
			<g>
				<path style="" d="M205.065,277.85c-0.323,0-0.645-0.135-0.873-0.398l-21.23-24.496      c-0.417-0.483-0.366-1.212,0.117-1.631c0.481-0.419,1.212-0.366,1.629,0.116l21.23,24.496c0.417,0.483,0.366,1.212-0.117,1.631      C205.602,277.758,205.334,277.85,205.065,277.85z" fill="#ffffff" data-original="#241726" class=""/>
				<path style="" d="M182.474,275.944c-0.273,0-0.548-0.096-0.767-0.292c-0.476-0.423-0.521-1.154-0.097-1.631      l19.596-22.047c0.422-0.478,1.158-0.524,1.632-0.096c0.476,0.423,0.521,1.154,0.097,1.631l-19.596,22.047      C183.111,275.814,182.793,275.944,182.474,275.944z" fill="#ffffff" data-original="#241726" class=""/>
			</g>
			<g>
				<path style="" d="M157.162,277.577c-0.323,0-0.645-0.135-0.873-0.398l-21.23-24.495      c-0.418-0.483-0.366-1.212,0.117-1.631c0.483-0.418,1.214-0.366,1.629,0.116l21.23,24.495c0.418,0.483,0.366,1.212-0.117,1.631      C157.699,277.485,157.431,277.577,157.162,277.577z" fill="#ffffff" data-original="#241726" class=""/>
				<path style="" d="M134.572,275.673c-0.273,0-0.548-0.096-0.767-0.292c-0.476-0.423-0.521-1.154-0.097-1.631      l19.596-22.047c0.422-0.48,1.155-0.522,1.632-0.096c0.476,0.423,0.521,1.154,0.097,1.631l-19.596,22.047      C135.208,275.542,134.89,275.673,134.572,275.673z" fill="#ffffff" data-original="#241726" class=""/>
			</g>
			<g>
				<path style="" d="M203.977,234.574c-0.323,0-0.645-0.135-0.873-0.398l-21.23-24.496      c-0.418-0.483-0.366-1.212,0.117-1.631c0.483-0.417,1.212-0.366,1.629,0.116l21.23,24.496c0.418,0.483,0.366,1.212-0.117,1.631      C204.514,234.481,204.246,234.574,203.977,234.574z" fill="#ffffff" data-original="#241726" class=""/>
				<path style="" d="M181.387,232.668c-0.273,0-0.548-0.096-0.767-0.292c-0.476-0.423-0.521-1.154-0.097-1.631      l19.596-22.047c0.422-0.48,1.155-0.522,1.632-0.096c0.476,0.423,0.521,1.154,0.097,1.631l-19.596,22.047      C182.023,232.537,181.705,232.668,181.387,232.668z" fill="#ffffff" data-original="#241726" class=""/>
			</g>
			<g>
				<path style="" d="M268.754,236.207c-0.323,0-0.645-0.135-0.873-0.398l-21.23-24.496      c-0.418-0.483-0.366-1.212,0.117-1.631c0.481-0.418,1.212-0.366,1.629,0.116l21.23,24.496c0.418,0.483,0.366,1.212-0.117,1.631      C269.291,236.114,269.023,236.207,268.754,236.207z" fill="#ffffff" data-original="#241726" class=""/>
				<path style="" d="M246.164,234.301c-0.273,0-0.548-0.096-0.767-0.292c-0.478-0.423-0.521-1.154-0.097-1.631      l19.598-22.047c0.422-0.478,1.155-0.524,1.632-0.096c0.478,0.423,0.521,1.154,0.097,1.631l-19.598,22.047      C246.8,234.17,246.482,234.301,246.164,234.301z" fill="#ffffff" data-original="#241726" class=""/>
			</g>
			<g>
				<path style="" d="M267.215,276.263c-0.323,0-0.645-0.135-0.873-0.398l-21.23-24.495      c-0.418-0.483-0.366-1.212,0.117-1.631c0.483-0.416,1.212-0.367,1.629,0.116l21.23,24.495c0.418,0.483,0.366,1.212-0.117,1.631      C267.752,276.17,267.484,276.263,267.215,276.263z" fill="#ffffff" data-original="#241726" class=""/>
				<path style="" d="M244.624,274.358c-0.273,0-0.548-0.096-0.767-0.292c-0.476-0.423-0.521-1.154-0.097-1.631      l19.596-22.047c0.422-0.48,1.155-0.522,1.632-0.096c0.476,0.423,0.521,1.154,0.097,1.631l-19.596,22.047      C245.261,274.227,244.943,274.358,244.624,274.358z" fill="#ffffff" data-original="#241726" class=""/>
			</g>
			<g>
				<path style="" d="M324.28,235.39c-0.323,0-0.645-0.135-0.873-0.398l-21.23-24.496      c-0.418-0.483-0.366-1.212,0.117-1.631c0.481-0.419,1.212-0.366,1.629,0.116l21.23,24.496c0.418,0.483,0.366,1.212-0.117,1.631      C324.817,235.297,324.549,235.39,324.28,235.39z" fill="#ffffff" data-original="#241726" class=""/>
				<path style="" d="M301.69,233.485c-0.273,0-0.548-0.096-0.767-0.292c-0.476-0.423-0.521-1.154-0.097-1.631      l19.596-22.047c0.422-0.481,1.155-0.521,1.632-0.096c0.476,0.423,0.521,1.154,0.097,1.631l-19.596,22.047      C302.326,233.354,302.008,233.485,301.69,233.485z" fill="#ffffff" data-original="#241726" class=""/>
			</g>
			<g>
				<path style="" d="M373.271,235.118c-0.323,0-0.645-0.135-0.873-0.398l-21.23-24.496      c-0.418-0.483-0.366-1.212,0.117-1.631c0.483-0.418,1.212-0.366,1.629,0.116l21.23,24.496c0.418,0.483,0.366,1.212-0.117,1.631      C373.808,235.025,373.539,235.118,373.271,235.118z" fill="#ffffff" data-original="#241726" class=""/>
				<path style="" d="M350.68,233.213c-0.273,0-0.548-0.096-0.767-0.292c-0.478-0.423-0.521-1.154-0.097-1.631      l19.598-22.047c0.422-0.48,1.155-0.522,1.632-0.096c0.478,0.423,0.521,1.154,0.097,1.631l-19.598,22.047      C351.317,233.082,350.999,233.213,350.68,233.213z" fill="#ffffff" data-original="#241726" class=""/>
			</g>
		</g>
		<path style="" d="M140.473,148.262c-2.744,0-5.662-0.805-8.727-2.409c-7.059-3.698-11.916-11.546-12.085-19.527    c-0.167-7.947,4.234-14.925,12.392-19.649c6.17-3.569,11.783-4.387,16.685-2.441c8.398,3.341,11.512,13.544,11.641,13.977    c0.181,0.61-0.167,1.254-0.779,1.435c-0.621,0.186-1.255-0.168-1.438-0.777c-0.027-0.095-2.938-9.576-10.289-12.493    c-4.216-1.672-9.145-0.897-14.66,2.297c-7.398,4.283-11.39,10.534-11.241,17.6c0.151,7.166,4.511,14.21,10.848,17.53    c4.198,2.2,8.027,2.71,11.356,1.506c5.285-1.905,7.696-7.531,7.718-7.587c0.248-0.588,0.928-0.867,1.512-0.621    c0.587,0.245,0.867,0.92,0.623,1.508c-0.111,0.269-2.801,6.603-9.048,8.866C143.54,148,142.035,148.262,140.473,148.262z" fill="#ffffff" data-original="#241726" class=""/>
		<path style="" d="M192.084,148.262c-2.744,0-5.662-0.805-8.727-2.409c-7.059-3.698-11.916-11.546-12.085-19.527    c-0.167-7.947,4.234-14.925,12.392-19.649c6.17-3.569,11.785-4.387,16.687-2.441c8.398,3.342,11.512,13.544,11.641,13.977    c0.181,0.61-0.167,1.254-0.779,1.435c-0.618,0.186-1.253-0.168-1.438-0.777c-0.027-0.095-2.936-9.574-10.289-12.493    c-4.211-1.667-9.145-0.898-14.662,2.297c-7.398,4.283-11.39,10.534-11.241,17.6c0.151,7.166,4.511,14.21,10.848,17.53    c4.202,2.2,8.023,2.71,11.358,1.505c5.285-1.904,7.693-7.53,7.716-7.586c0.248-0.588,0.919-0.867,1.512-0.621    c0.587,0.245,0.867,0.919,0.623,1.508c-0.111,0.269-2.798,6.602-9.045,8.866C195.153,148,193.646,148.262,192.084,148.262z" fill="#ffffff" data-original="#241726" class=""/>
		<path style="" d="M249.858,148.262c-2.744,0-5.662-0.805-8.727-2.409c-7.059-3.698-11.916-11.546-12.085-19.527    c-0.167-7.947,4.234-14.925,12.392-19.649c6.17-3.569,11.783-4.387,16.687-2.441c8.398,3.342,11.512,13.544,11.641,13.977    c0.181,0.61-0.167,1.254-0.779,1.435c-0.618,0.186-1.253-0.168-1.438-0.777c-0.027-0.095-2.936-9.574-10.289-12.493    c-4.211-1.667-9.142-0.898-14.662,2.297c-7.398,4.283-11.39,10.534-11.241,17.6c0.151,7.166,4.511,14.21,10.848,17.53    c4.204,2.2,8.023,2.71,11.358,1.505c5.285-1.904,7.693-7.53,7.716-7.586c0.25-0.588,0.921-0.867,1.512-0.621    c0.587,0.245,0.867,0.919,0.623,1.508c-0.111,0.269-2.798,6.602-9.045,8.866C252.927,148,251.42,148.262,249.858,148.262z" fill="#ffffff" data-original="#241726" class=""/>
		<path style="" d="M301.469,148.262c-2.744,0-5.662-0.805-8.727-2.409c-7.059-3.699-11.916-11.547-12.083-19.528    c-0.169-7.946,4.234-14.924,12.392-19.648c6.17-3.569,11.783-4.387,16.685-2.441c8.398,3.341,11.512,13.544,11.641,13.977    c0.181,0.61-0.167,1.254-0.779,1.435c-0.621,0.186-1.253-0.168-1.438-0.777c-0.027-0.095-2.938-9.576-10.289-12.493    c-4.216-1.672-9.145-0.897-14.66,2.297c-7.4,4.283-11.392,10.532-11.243,17.599c0.151,7.166,4.511,14.211,10.848,17.531    c4.202,2.2,8.021,2.71,11.358,1.505c5.285-1.904,7.693-7.53,7.716-7.586c0.248-0.588,0.919-0.867,1.512-0.621    c0.587,0.245,0.867,0.919,0.623,1.508c-0.111,0.269-2.798,6.602-9.045,8.866C304.538,148,303.03,148.262,301.469,148.262z" fill="#ffffff" data-original="#241726" class=""/>
		<path style="" d="M363.865,148.262c-2.744,0-5.662-0.805-8.727-2.409c-7.059-3.699-11.916-11.547-12.083-19.528    c-0.169-7.946,4.234-14.924,12.392-19.648c6.17-3.569,11.78-4.387,16.685-2.441c8.398,3.341,11.512,13.544,11.641,13.977    c0.181,0.61-0.167,1.254-0.779,1.435c-0.621,0.186-1.255-0.168-1.438-0.777c-0.027-0.095-2.938-9.576-10.289-12.493    c-4.213-1.672-9.145-0.897-14.66,2.297c-7.4,4.283-11.392,10.532-11.243,17.599c0.151,7.166,4.511,14.211,10.848,17.531    c4.202,2.2,8.021,2.71,11.358,1.505c5.285-1.904,7.693-7.53,7.716-7.586c0.248-0.588,0.919-0.867,1.512-0.621    c0.587,0.245,0.867,0.919,0.623,1.508c-0.111,0.269-2.798,6.602-9.045,8.866C366.934,148,365.426,148.262,363.865,148.262z" fill="#ffffff" data-original="#241726" class=""/>
	</g>
	<path style="" d="M136.203,456.47c-1.444,0-2.893-0.106-4.308-0.316c-0.632-0.094-1.067-0.682-0.973-1.312   c0.093-0.632,0.702-1.061,1.311-0.974c1.302,0.193,2.638,0.291,3.97,0.291l0.451-0.003c0.6,0.02,1.162,0.502,1.171,1.139   c0.009,0.639-0.501,1.163-1.14,1.172L136.203,456.47z M141.263,456.025c-0.551,0-1.038-0.395-1.135-0.956   c-0.111-0.629,0.309-1.228,0.937-1.338c1.444-0.253,2.893-0.623,4.308-1.099c0.609-0.202,1.259,0.123,1.462,0.727   c0.203,0.605-0.122,1.26-0.727,1.465c-1.523,0.512-3.087,0.911-4.642,1.185C141.398,456.019,141.331,456.025,141.263,456.025z    M127.564,455.122c-0.117,0-0.235-0.017-0.352-0.055l-0.709-0.236c-1.298-0.449-2.557-1.003-3.737-1.644   c-0.562-0.305-0.77-1.007-0.465-1.567c0.305-0.561,1.013-0.766,1.566-0.464c1.07,0.581,2.212,1.083,3.394,1.492l0.654,0.219   c0.607,0.194,0.943,0.844,0.749,1.452C128.508,454.809,128.054,455.122,127.564,455.122z M150.004,453.1   c-0.422,0-0.828-0.232-1.031-0.634c-0.287-0.57-0.059-1.265,0.51-1.553c1.318-0.665,2.607-1.433,3.837-2.283   c0.524-0.36,1.246-0.234,1.607,0.292c0.363,0.525,0.232,1.245-0.293,1.608c-1.313,0.911-2.697,1.733-4.107,2.445   C150.358,453.06,150.18,453.1,150.004,453.1z M119.512,450.721c-0.266,0-0.53-0.09-0.749-0.275   c-1.216-1.035-2.343-2.213-3.349-3.501c-0.393-0.503-0.302-1.23,0.201-1.622c0.503-0.395,1.228-0.305,1.623,0.2   c0.907,1.166,1.925,2.23,3.024,3.163c0.485,0.413,0.544,1.143,0.131,1.628C120.164,450.583,119.839,450.721,119.512,450.721z    M157.58,447.847c-0.311,0-0.623-0.125-0.851-0.372c-0.431-0.469-0.402-1.201,0.068-1.633c1.101-1.014,2.13-2.106,3.056-3.243   c0.404-0.497,1.133-0.569,1.625-0.167c0.494,0.403,0.571,1.131,0.167,1.625c-0.995,1.223-2.099,2.396-3.281,3.484   C158.139,447.745,157.86,447.847,157.58,447.847z M113.838,443.502c-0.415,0-0.817-0.226-1.025-0.621   c-0.718-1.375-1.347-2.863-1.869-4.42c-0.203-0.605,0.122-1.259,0.727-1.462c0.607-0.2,1.262,0.123,1.462,0.729   c0.485,1.441,1.065,2.815,1.729,4.084c0.296,0.565,0.077,1.263-0.49,1.558C114.202,443.46,114.019,443.502,113.838,443.502z    M163.393,440.699c-0.201,0-0.404-0.052-0.587-0.16c-0.551-0.325-0.733-1.033-0.408-1.582c0.758-1.286,1.41-2.627,1.939-3.984   c0.23-0.598,0.898-0.891,1.494-0.66c0.596,0.231,0.891,0.9,0.659,1.495c-0.571,1.475-1.28,2.929-2.101,4.323   C164.172,440.496,163.788,440.699,163.393,440.699z M110.868,434.781c-0.542,0-1.027-0.384-1.133-0.937   c-0.293-1.524-0.501-3.111-0.618-4.717c-0.045-0.636,0.433-1.189,1.07-1.236c0.632-0.051,1.189,0.431,1.237,1.069   c0.108,1.514,0.305,3.011,0.582,4.446c0.12,0.627-0.291,1.233-0.916,1.354C111.015,434.775,110.943,434.781,110.868,434.781z    M90.149,433.064c-1.395,0-2.78-0.091-4.116-0.272c-0.632-0.086-1.074-0.668-0.988-1.3c0.084-0.633,0.645-1.074,1.3-0.991   c1.232,0.167,2.512,0.252,3.805,0.252l0.625-0.007c0.009,0,0.018,0,0.025,0c0.627,0,1.142,0.502,1.155,1.132   c0.014,0.638-0.494,1.166-1.131,1.179L90.149,433.064z M95.398,432.636c-0.557,0-1.047-0.405-1.14-0.973   c-0.099-0.631,0.329-1.223,0.959-1.324c1.444-0.231,2.916-0.563,4.371-0.985c0.616-0.183,1.255,0.175,1.433,0.788   c0.178,0.613-0.176,1.254-0.788,1.431c-1.548,0.45-3.114,0.802-4.651,1.048C95.522,432.632,95.459,432.636,95.398,432.636z    M166.681,432.105c-0.072,0-0.142-0.007-0.214-0.019c-0.627-0.117-1.04-0.721-0.923-1.348c0.248-1.331,0.375-2.681,0.377-4.01   l-0.002-0.351c-0.011-0.639,0.496-1.166,1.135-1.177c0.589,0.015,1.165,0.496,1.176,1.134l0.002,0.396   c-0.002,1.471-0.142,2.962-0.418,4.432C167.71,431.717,167.225,432.105,166.681,432.105z M81.679,431.805   c-0.115,0-0.23-0.017-0.345-0.053c-1.537-0.482-3.035-1.1-4.455-1.839c-0.564-0.294-0.785-0.993-0.49-1.558   c0.296-0.568,0.995-0.782,1.559-0.491c1.298,0.676,2.668,1.242,4.076,1.684c0.609,0.191,0.948,0.838,0.758,1.448   C82.627,431.489,82.171,431.805,81.679,431.805z M104.267,430.083c-0.451,0-0.88-0.267-1.067-0.711   c-0.244-0.589,0.034-1.265,0.623-1.511c1.377-0.575,2.74-1.233,4.046-1.958c0.562-0.308,1.262-0.107,1.571,0.451   s0.106,1.262-0.451,1.571c-1.381,0.765-2.821,1.46-4.277,2.068C104.568,430.054,104.416,430.083,104.267,430.083z M73.521,427.565   c-0.246,0-0.494-0.078-0.706-0.24c-1.313-1.013-2.498-2.138-3.521-3.345c-0.411-0.487-0.352-1.216,0.135-1.628   c0.487-0.411,1.214-0.352,1.629,0.134c0.916,1.082,1.981,2.094,3.169,3.008c0.503,0.389,0.598,1.115,0.21,1.62   C74.209,427.411,73.866,427.565,73.521,427.565z M112.34,425.605c-0.359,0-0.715-0.168-0.941-0.484   c-0.059-0.081-0.104-0.168-0.138-0.258c-0.178,0.434-0.528,0.776-1.113,0.715c-0.636-0.024-1.135-0.56-1.113-1.197   c0.061-1.601,0.208-3.193,0.44-4.731c0.095-0.633,0.684-1.061,1.313-0.97c0.632,0.096,1.065,0.685,0.97,1.316   c-0.187,1.242-0.316,2.524-0.384,3.819c0.074-0.115,0.174-0.219,0.291-0.304c1.255-0.897,2.422-1.847,3.464-2.827   c0.46-0.433,1.196-0.415,1.632,0.052c0.438,0.465,0.415,1.196-0.052,1.634c-1.117,1.048-2.361,2.065-3.699,3.021   C112.807,425.535,112.572,425.605,112.34,425.605z M166.512,422.932c-0.526,0-1.002-0.36-1.126-0.894   c-0.327-1.405-0.808-2.796-1.429-4.136c-0.269-0.579-0.018-1.266,0.56-1.535c0.58-0.271,1.268-0.017,1.535,0.562   c0.691,1.483,1.223,3.025,1.587,4.585c0.144,0.622-0.241,1.242-0.864,1.387C166.686,422.923,166.598,422.932,166.512,422.932z    M67.624,420.551c-0.42,0-0.826-0.231-1.031-0.633c-0.724-1.431-1.293-2.97-1.688-4.572c-0.153-0.619,0.226-1.246,0.846-1.398   c0.627-0.156,1.246,0.227,1.397,0.845c0.354,1.433,0.86,2.805,1.508,4.08c0.289,0.569,0.061,1.264-0.508,1.553   C67.978,420.512,67.8,420.551,67.624,420.551z M118.993,419.236c-0.235,0-0.472-0.071-0.677-0.219   c-0.517-0.374-0.634-1.096-0.26-1.614c0.952-1.318,1.587-2.568,1.884-3.716c0.16-0.616,0.785-0.996,1.41-0.828   c0.616,0.16,0.988,0.791,0.828,1.408c-0.372,1.427-1.128,2.937-2.25,4.49C119.704,419.071,119.35,419.236,118.993,419.236z    M111.602,416.463c-0.106,0-0.217-0.015-0.325-0.046c-0.612-0.181-0.964-0.823-0.783-1.434c0.508-1.731,1.119-3.25,1.819-4.515   c0.309-0.56,1.011-0.761,1.571-0.452c0.557,0.309,0.761,1.012,0.451,1.57c-0.618,1.118-1.165,2.48-1.625,4.048   C112.563,416.137,112.103,416.463,111.602,416.463z M162.664,414.595c-0.359,0-0.713-0.167-0.939-0.482   c-0.429-0.596-0.891-1.186-1.392-1.769c-0.418-0.484-0.361-1.213,0.122-1.629c0.485-0.414,1.214-0.36,1.629,0.124   c0.546,0.635,1.054,1.277,1.519,1.927c0.372,0.519,0.253,1.24-0.266,1.612C163.134,414.525,162.899,414.595,162.664,414.595z    M65.389,411.656c-0.618,0-1.131-0.487-1.155-1.11c-0.014-0.361-0.02-0.723-0.02-1.084c-0.002-1.206,0.079-2.46,0.244-3.721   c0.084-0.632,0.673-1.08,1.295-0.996c0.634,0.082,1.079,0.661,0.998,1.294c-0.151,1.162-0.228,2.313-0.226,3.421   c0,0.334,0.007,0.665,0.02,0.996c0.025,0.638-0.472,1.175-1.11,1.199C65.419,411.656,65.403,411.656,65.389,411.656z    M120.428,410.717c-0.357,0-0.709-0.166-0.937-0.477c-0.318-0.44-0.765-0.833-1.327-1.168c-0.454-0.272-0.86-0.331-1.309-0.178   c-0.605,0.201-1.259-0.123-1.462-0.728c-0.203-0.605,0.122-1.259,0.727-1.464c1.088-0.361,2.205-0.227,3.229,0.386   c0.833,0.495,1.51,1.1,2.015,1.795c0.375,0.517,0.257,1.239-0.26,1.614C120.902,410.646,120.665,410.717,120.428,410.717z    M66.534,402.52c-0.104,0-0.21-0.014-0.314-0.044c-0.614-0.173-0.973-0.811-0.799-1.425c0.165-0.581,0.343-1.159,0.537-1.732   c-0.754-0.121-1.523-0.282-2.302-0.482c-0.616-0.159-0.988-0.789-0.831-1.407c0.16-0.617,0.781-0.994,1.408-0.832   c0.871,0.225,1.726,0.395,2.557,0.509c0.077-0.186,0.156-0.372,0.237-0.556c0.253-0.586,0.948-0.851,1.519-0.598   c0.582,0.254,0.851,0.928,0.603,1.511c0.323,0.217,0.526,0.59,0.51,1.007c-0.029,0.636-0.582,1.119-1.203,1.106   c-0.047-0.002-0.093-0.003-0.138-0.006c-0.248,0.694-0.474,1.399-0.673,2.108C67.502,402.187,67.039,402.52,66.534,402.52z    M73.083,399.113c-0.51,0-0.975-0.337-1.115-0.852c-0.167-0.616,0.196-1.251,0.812-1.418c1.424-0.387,2.656-1.036,3.561-1.877   c0.463-0.432,1.201-0.408,1.632,0.062c0.436,0.467,0.406,1.198-0.061,1.633c-1.178,1.092-2.744,1.926-4.527,2.411   C73.284,399.1,73.182,399.113,73.083,399.113z M59.578,397.376c-0.151,0-0.305-0.029-0.451-0.093   c-1.39-0.589-2.821-1.299-4.254-2.107c-0.557-0.314-0.754-1.018-0.44-1.574c0.314-0.56,1.025-0.752,1.573-0.439   c1.361,0.766,2.715,1.436,4.024,1.994c0.587,0.249,0.862,0.928,0.612,1.514C60.454,397.112,60.027,397.376,59.578,397.376z    M70.228,394.072c-0.21,0-0.422-0.056-0.612-0.175c-0.542-0.339-0.706-1.051-0.368-1.592c0.955-1.53,1.995-2.862,3.013-3.852   c0.456-0.442,1.187-0.437,1.634,0.02c0.445,0.457,0.436,1.189-0.023,1.634c-0.885,0.863-1.808,2.047-2.665,3.421   C70.989,393.879,70.612,394.072,70.228,394.072z M79.097,392.883c-0.639,0-1.158-0.473-1.158-1.111   c0-0.029,0.005-0.147,0.007-0.177c-0.005-1.011-0.515-2.018-1.483-2.823c-0.472-0.395-0.609-1.133-0.239-1.625   c0.37-0.49,0.998-0.653,1.514-0.306c0.034,0.023,0.178,0.133,0.21,0.159c1.485,1.237,2.304,2.902,2.304,4.684   C80.253,392.322,79.734,392.883,79.097,392.883z M51.542,392.845c-0.237,0-0.476-0.072-0.682-0.222   c-1.359-0.993-2.584-2.053-3.64-3.152c-0.442-0.46-0.429-1.192,0.032-1.634c0.458-0.44,1.194-0.428,1.634,0.032   c0.964,1.003,2.088,1.974,3.338,2.888c0.515,0.377,0.627,1.099,0.251,1.615C52.248,392.681,51.896,392.845,51.542,392.845z    M45.241,386.174c-0.393,0-0.779-0.202-0.993-0.565c-0.855-1.438-1.501-2.963-1.921-4.533c-0.165-0.616,0.203-1.249,0.819-1.414   c0.621-0.169,1.248,0.203,1.415,0.818c0.363,1.364,0.928,2.692,1.672,3.948c0.327,0.548,0.147,1.258-0.404,1.583   C45.645,386.122,45.442,386.174,45.241,386.174z M42.887,377.362c-0.005,0-0.009,0-0.014,0c-0.639-0.008-1.151-0.531-1.142-1.17   c0.02-1.576,0.239-3.206,0.654-4.84c0.153-0.617,0.763-0.997,1.404-0.837c0.618,0.157,0.993,0.785,0.835,1.404   c-0.368,1.459-0.564,2.907-0.582,4.303C44.033,376.854,43.519,377.362,42.887,377.362z M45.067,368.445   c-0.165,0-0.33-0.035-0.487-0.108c-0.58-0.27-0.831-0.957-0.56-1.536c1.192-2.555,2.41-4.145,2.462-4.211   c0.39-0.504,1.115-0.596,1.618-0.209c0.506,0.389,0.6,1.115,0.212,1.62c-0.011,0.015-1.122,1.47-2.198,3.777   C45.918,368.198,45.5,368.445,45.067,368.445z" fill="#ffffff" data-original="#241726" class=""/>
	<g>
		<g>
			<path style="" d="M421.643,255.964l-90.897,117.143c0,0-18.533,64.766-12.848,64.766s63.953-15.633,63.953-15.633     s100.903-112.272,98.061-116.536C477.069,301.441,421.643,255.964,421.643,255.964z" fill="#ffffff" data-original="#ffffff" class=""/>
			<path style="" d="M317.898,439.029c-0.591,0-1.122-0.273-1.496-0.77c-3.796-5.034,10.359-55.421,13.234-65.471     c0.041-0.141,0.106-0.274,0.196-0.39l90.897-117.142c0.192-0.246,0.474-0.405,0.785-0.44c0.305-0.034,0.621,0.056,0.862,0.255     c5.687,4.666,55.641,45.71,58.496,49.994c0.903,1.353,2.266,3.399-48.054,61.265c-24.592,28.281-49.855,56.403-50.108,56.683     c-0.149,0.167-0.345,0.287-0.56,0.344C379.766,423.996,323.669,439.029,317.898,439.029z M331.795,373.639     c-8.131,28.444-15.344,59.394-13.64,63.07c5.66-0.36,46.926-11.169,63.066-15.495c38.569-42.922,95.756-108.304,97.555-115.097     c-3.238-3.944-35.204-30.653-56.948-48.507L331.795,373.639z" fill="#ffffff" data-original="#241726" class=""/>
		</g>
		<path style="" d="M330.746,369.534c-7.45,11.876,23.179,0.898,24.496,3.062c2.217,3.642-3.243,24.096,1.021,25.517    c4.264,1.421,20.123-4.774,22.965-0.51c2.842,4.263-4.483,24.637,2.622,24.637c7.106,0,103.892-118.502,102.507-119.56    c-12.213-9.336-51.345-50.98-62.714-46.716C410.274,260.227,329.325,375.219,330.746,369.534z" fill="#51b0a7" data-original="#51b0a7"/>
		<path style="" d="M322.071,404.748c0,0,27.048,23.986,27.048,26.027s-34.703,13.779-35.724,10.207    C312.374,437.409,320.54,404.748,322.071,404.748z" fill="#ffffff" data-original="#241726" class=""/>
		<g>
			<path style="" d="M419.035,255.729c0,0,60.22,52.054,61.751,52.565c1.531,0.51,26.027-32.151,24.496-33.172     c-1.531-1.021-58.178-48.992-62.261-45.93S419.035,255.729,419.035,255.729z" fill="#ffffff" data-original="#ffffff" class=""/>
			<path style="" d="M480.825,309.455c-0.181-0.01-0.287-0.025-0.406-0.065c-1.521-0.507-39.587-33.289-62.141-52.785     c-0.478-0.415-0.535-1.139-0.126-1.622c0.817-0.963,20.036-23.611,24.175-26.715c0.329-0.247,0.738-0.372,1.219-0.372     c4.322,0,22.153,13.118,57.815,42.533c2.406,1.985,4.308,3.553,4.57,3.737c0.309,0.206,0.792,0.72,0.467,1.791     C505.652,278.411,484.075,309.455,480.825,309.455z M420.657,255.604c22.579,19.515,55.587,47.859,60.187,51.337     c3.753-3.183,21.44-27.021,23.222-31.301c-0.661-0.53-1.918-1.566-4.177-3.429c-33.791-27.873-52.746-42.005-56.343-42.005     C440.67,232.397,427.718,247.299,420.657,255.604z" fill="#ffffff" data-original="#241726" class=""/>
		</g>
		<path style="" d="M427.2,243.481c0,0,62.261,54.606,64.303,52.565s21.944-24.496,20.414-27.558    c-1.531-3.062-59.199-49.503-61.751-48.482C447.614,221.026,427.2,243.481,427.2,243.481z" fill="#e17b8d" data-original="#e17b8d" class=""/>
		<g>
			<path style="" d="M355.242,372.596c0,0,79.102-94.923,80.123-99.005" fill="#ffffff" data-original="#ffffff" class=""/>
			<path style="" d="M355.244,373.752c-0.262,0-0.524-0.088-0.74-0.267c-0.49-0.408-0.555-1.137-0.147-1.628     c31.354-37.626,78.507-94.933,79.9-98.59c0.156-0.618,0.774-0.974,1.395-0.818c0.618,0.155,0.988,0.805,0.835,1.423     c-1.034,4.13-67.117,83.581-80.356,99.466C355.903,373.611,355.573,373.752,355.244,373.752z" fill="#ffffff" data-original="#241726" class=""/>
		</g>
		<g>
			<path style="" d="M463.434,295.535c0,0-80.633,100.026-84.206,102.068" fill="#ffffff" data-original="#ffffff" class=""/>
			<path style="" d="M379.229,398.758c-0.399,0-0.79-0.209-1.004-0.582c-0.316-0.554-0.124-1.26,0.431-1.576     c3.038-2.112,51.83-62.033,83.878-101.789c0.404-0.499,1.133-0.575,1.625-0.174c0.496,0.401,0.576,1.127,0.176,1.625     c-8.269,10.255-80.877,100.256-84.533,102.345C379.622,398.71,379.425,398.758,379.229,398.758z" fill="#ffffff" data-original="#241726" class=""/>
		</g>
		<g>
			<path style="" d="M463.434,238.378c0,0,20.924,12.758,22.455,17.351" fill="#ffffff" data-original="#ffffff" class=""/>
			<path style="" d="M485.89,256.885c-0.483,0-0.934-0.306-1.097-0.79c-1.018-3.053-14.01-11.883-21.961-16.731     c-0.544-0.332-0.715-1.043-0.384-1.588c0.332-0.544,1.04-0.717,1.589-0.385c2.178,1.328,21.329,13.118,22.949,17.972     c0.201,0.605-0.126,1.259-0.731,1.461C486.133,256.865,486.012,256.885,485.89,256.885z" fill="#ffffff" data-original="#241726" class=""/>
		</g>
		<g>
			<path style="" d="M490.992,260.832c0,0,8.165,6.124,9.696,7.145" fill="#ffffff" data-original="#ffffff" class=""/>
			<path style="" d="M500.69,269.132c-0.221,0-0.442-0.062-0.641-0.194c-1.541-1.026-9.415-6.932-9.749-7.182     c-0.51-0.383-0.614-1.107-0.232-1.617c0.386-0.512,1.11-0.61,1.618-0.231c0.081,0.061,8.156,6.117,9.646,7.108     c0.53,0.353,0.675,1.071,0.32,1.601C501.43,268.952,501.062,269.132,500.69,269.132z" fill="#ffffff" data-original="#241726" class=""/>
		</g>
	</g>
	<path style="" d="M448.337,194.873c-0.314,0-0.63-0.007-0.943-0.023c-0.639-0.032-1.128-0.574-1.097-1.212   c0.029-0.635,0.603-1.139,1.21-1.097c1.442,0.069,2.898-0.045,4.315-0.327c0.616-0.13,1.234,0.279,1.361,0.906   c0.126,0.625-0.28,1.234-0.905,1.36C450.984,194.74,449.657,194.872,448.337,194.873z M442.904,194.082   c-0.108,0-0.219-0.015-0.327-0.047c-1.573-0.466-3.083-1.118-4.489-1.94c-0.551-0.322-0.738-1.029-0.415-1.58   c0.32-0.553,1.029-0.737,1.58-0.415c1.246,0.728,2.586,1.306,3.979,1.719c0.612,0.182,0.961,0.824,0.781,1.436   C443.864,193.758,443.403,194.082,442.904,194.082z M456.423,193.057c-0.433,0-0.849-0.246-1.047-0.665   c-0.271-0.578-0.02-1.266,0.557-1.537c1.291-0.606,2.541-1.373,3.715-2.281c0.501-0.39,1.228-0.3,1.62,0.208   c0.39,0.504,0.298,1.23-0.208,1.62c-1.307,1.011-2.701,1.868-4.148,2.545C456.754,193.022,456.587,193.057,456.423,193.057z    M435.001,189.459c-0.293,0-0.585-0.111-0.81-0.332c-1.201-1.18-2.214-2.49-3.013-3.894c-0.316-0.555-0.122-1.26,0.433-1.576   c0.555-0.318,1.259-0.122,1.575,0.432c0.693,1.22,1.578,2.359,2.625,3.391c0.456,0.448,0.46,1.179,0.014,1.634   C435.599,189.344,435.299,189.459,435.001,189.459z M463.714,187.481c-0.273,0-0.546-0.096-0.767-0.291   c-0.476-0.423-0.521-1.153-0.097-1.631c0.512-0.579,1.013-1.197,1.501-1.857c0.415-0.561,0.799-1.122,1.146-1.684   c0.341-0.542,1.058-0.702,1.593-0.369c0.542,0.337,0.706,1.051,0.37,1.592c-0.384,0.612-0.799,1.224-1.253,1.835   c-0.526,0.714-1.072,1.387-1.629,2.015C464.351,187.349,464.033,187.481,463.714,187.481z M430.526,181.525   c-0.533,0-1.011-0.37-1.128-0.912c-0.23-1.069-0.348-2.173-0.35-3.281c0-0.556,0.029-1.117,0.09-1.682   c0.068-0.635,0.648-1.087,1.273-1.025c0.634,0.068,1.092,0.638,1.025,1.273c-0.052,0.482-0.077,0.959-0.077,1.432   c0.002,0.943,0.102,1.886,0.298,2.796c0.135,0.624-0.262,1.239-0.885,1.373C430.691,181.517,430.607,181.525,430.526,181.525z    M468.546,179.662c-0.138,0-0.275-0.024-0.411-0.076c-0.598-0.228-0.896-0.895-0.668-1.492c0.526-1.382,0.9-2.802,1.11-4.218   c0.093-0.63,0.673-1.054,1.311-0.974c0.632,0.094,1.067,0.68,0.973,1.312c-0.232,1.582-0.65,3.164-1.237,4.703   C469.451,179.378,469.011,179.662,468.546,179.662z M469.871,170.593c-0.596,0-1.101-0.459-1.149-1.064   c-0.115-1.429-0.39-2.87-0.824-4.283c-0.185-0.609,0.158-1.256,0.767-1.442c0.614-0.192,1.255,0.158,1.444,0.767   c0.481,1.573,0.788,3.18,0.914,4.775c0.052,0.636-0.424,1.193-1.061,1.243C469.934,170.591,469.902,170.593,469.871,170.593z    M467.219,161.807c-0.411,0-0.808-0.22-1.018-0.607c-0.693-1.289-1.514-2.519-2.444-3.656c-0.165-0.202-0.248-0.442-0.26-0.685   c-0.937,0.636-1.912,1.168-2.914,1.589c-0.58,0.247-1.266-0.028-1.512-0.617c-0.248-0.588,0.029-1.266,0.618-1.513   c1.271-0.535,2.501-1.282,3.654-2.222c0.494-0.403,1.221-0.331,1.625,0.166c0.348,0.428,0.341,1.029,0.014,1.444   c0.214,0.063,0.413,0.191,0.566,0.378c1.02,1.25,1.925,2.603,2.688,4.019c0.302,0.562,0.093,1.263-0.469,1.566   C467.594,161.763,467.404,161.807,467.219,161.807z M455.24,159.578c-1.783,0-3.387-0.395-4.635-1.144   c-0.548-0.327-0.727-1.037-0.397-1.584c0.329-0.551,1.04-0.728,1.584-0.397c0.878,0.525,2.103,0.815,3.448,0.815l0.368-0.007   c0.675-0.029,1.176,0.471,1.203,1.108c0.025,0.638-0.472,1.175-1.108,1.201L455.24,159.578z M461.392,154.7   c-0.257,0-0.515-0.085-0.729-0.258c-1.196-0.973-2.455-1.748-3.64-2.242c-0.589-0.245-0.867-0.922-0.623-1.511   c0.246-0.59,0.928-0.869,1.512-0.622c1.408,0.587,2.823,1.456,4.209,2.581c0.494,0.403,0.571,1.131,0.167,1.626   C462.06,154.555,461.726,154.7,461.392,154.7z M449.648,154.698c-0.144,0-0.289-0.026-0.429-0.082   c-0.594-0.238-0.88-0.911-0.643-1.503c0.354-0.888,1.004-1.75,1.93-2.563c0.621-0.542,1.352-0.92,2.176-1.125   c0.607-0.161,1.248,0.221,1.401,0.841c0.153,0.618-0.221,1.246-0.842,1.4c-0.465,0.116-0.871,0.326-1.212,0.623   c-0.648,0.569-1.088,1.135-1.309,1.684C450.539,154.424,450.106,154.698,449.648,154.698z M467.197,152.772   c-0.208,0-0.415-0.055-0.605-0.17c-0.544-0.334-0.713-1.045-0.381-1.589c0.679-1.106,1.131-2.417,1.341-3.897   c0.09-0.632,0.682-1.067,1.307-0.981c0.632,0.09,1.072,0.676,0.982,1.308c-0.257,1.794-0.815,3.402-1.656,4.778   C467.964,152.575,467.585,152.772,467.197,152.772z M468.706,143.825c-0.578,0-1.076-0.433-1.146-1.021   c-0.16-1.371-0.467-2.827-0.914-4.324c-0.181-0.612,0.167-1.255,0.779-1.436c0.621-0.185,1.253,0.167,1.438,0.777   c0.483,1.625,0.817,3.21,0.995,4.714c0.072,0.634-0.381,1.207-1.013,1.282C468.797,143.822,468.752,143.825,468.706,143.825z    M466.134,134.977c-0.44,0-0.862-0.254-1.054-0.682c-0.612-1.359-1.311-2.692-2.085-3.966c-0.329-0.545-0.156-1.256,0.388-1.587   c0.544-0.328,1.255-0.159,1.589,0.388c0.821,1.354,1.566,2.772,2.216,4.217c0.262,0.582,0.002,1.266-0.58,1.528   C466.454,134.944,466.292,134.977,466.134,134.977z M457.125,128.811c-0.011,0-0.023,0-0.034,0   c-1.821-0.053-3.539-0.522-4.965-1.359c-0.551-0.323-0.736-1.03-0.413-1.581c0.325-0.551,1.034-0.737,1.582-0.412   c0.761,0.446,2.049,0.988,3.864,1.04c0.636,0.019,1.14,0.551,1.122,1.188C458.262,128.316,457.747,128.811,457.125,128.811z    M461.645,128.019c-0.467,0-0.907-0.284-1.081-0.747c-0.065-0.174-0.086-0.354-0.068-0.527c-0.023-0.023-0.043-0.045-0.063-0.07   c-1.025-1.257-2.058-2.305-3.069-3.116c-0.499-0.398-0.578-1.126-0.181-1.624c0.399-0.501,1.133-0.579,1.625-0.179   c1.14,0.912,2.288,2.075,3.417,3.459c0.027,0.035,0.054,0.071,0.079,0.108c0.896-0.436,1.781-0.987,2.64-1.649   c0.501-0.389,1.228-0.296,1.62,0.212c0.388,0.506,0.293,1.231-0.212,1.62c-1.377,1.06-2.826,1.88-4.299,2.437   C461.918,127.996,461.78,128.019,461.645,128.019z M450.336,123.962c-0.072,0-0.144-0.007-0.217-0.02   c-0.627-0.118-1.04-0.722-0.921-1.35c0.156-0.823,0.702-1.963,2.426-2.726c0.761-0.339,1.611-0.459,2.498-0.354   c0.634,0.074,1.088,0.649,1.011,1.283c-0.074,0.634-0.663,1.088-1.282,1.012c-0.476-0.056-0.907,0-1.291,0.172   c-0.447,0.197-0.997,0.538-1.092,1.043C451.365,123.576,450.88,123.962,450.336,123.962z M468.968,122.547   c-0.266,0-0.533-0.09-0.749-0.276c-0.485-0.414-0.544-1.143-0.129-1.629c0.898-1.055,1.774-2.266,2.602-3.6   c0.339-0.544,1.054-0.703,1.591-0.372c0.542,0.336,0.709,1.048,0.372,1.591c-0.887,1.432-1.833,2.737-2.81,3.882   C469.618,122.409,469.293,122.547,468.968,122.547z M473.868,114.741c-0.153,0-0.309-0.03-0.458-0.095   c-0.587-0.254-0.855-0.934-0.603-1.52c0.557-1.29,0.914-2.673,1.061-4.113c0.063-0.636,0.666-1.093,1.264-1.034   c0.636,0.064,1.099,0.631,1.034,1.266c-0.167,1.676-0.585,3.29-1.237,4.799C474.739,114.481,474.315,114.741,473.868,114.741z    M474.854,105.679c-0.557,0-1.047-0.405-1.14-0.974c-0.217-1.361-0.594-2.792-1.122-4.253c-0.217-0.6,0.095-1.263,0.695-1.479   c0.603-0.218,1.262,0.094,1.48,0.694c0.575,1.599,0.988,3.171,1.23,4.675c0.099,0.63-0.329,1.222-0.959,1.322   C474.976,105.675,474.915,105.679,474.854,105.679z M471.805,96.993c-0.415,0-0.817-0.225-1.022-0.617   c-0.67-1.274-1.447-2.575-2.311-3.867c-0.354-0.531-0.212-1.248,0.32-1.603c0.526-0.353,1.243-0.212,1.602,0.319   c0.907,1.359,1.726,2.73,2.433,4.075c0.298,0.565,0.081,1.264-0.485,1.561C472.171,96.95,471.988,96.993,471.805,96.993z    M466.696,89.289c-0.339,0-0.673-0.148-0.9-0.432c-1.677-2.089-2.963-3.371-2.977-3.383c-0.451-0.449-0.456-1.181-0.005-1.634   c0.447-0.452,1.18-0.457,1.632-0.007c0.056,0.055,1.386,1.378,3.15,3.577c0.399,0.498,0.32,1.225-0.178,1.625   C467.206,89.206,466.951,89.289,466.696,89.289z" fill="#ffffff" data-original="#241726" class=""/>
</g>















</g></svg>
