<?xml version="1.0" encoding="utf-8"?>
<!-- Generator: Adobe Illustrator 17.1.0, SVG Export Plug-In . SVG Version: 6.00 Build 0)  -->
<!DOCTYPE svg PUBLIC "-//W3C//DTD SVG 1.1//EN" "http://www.w3.org/Graphics/SVG/1.1/DTD/svg11.dtd">
<svg version="1.1" id="Layer_1" xmlns="http://www.w3.org/2000/svg" xmlns:xlink="http://www.w3.org/1999/xlink" x="0px" y="0px"
	 viewBox="0 0 512 512" enable-background="new 0 0 512 512" xml:space="preserve">
<g>
	
		<image overflow="visible" opacity="0.7" width="532" height="573" xlink:href="32C95A95.png"  transform="matrix(1 0 0 1 -10 -30)">
	</image>
	<g>
		<path d="M484,167.4c4.1,0,7.5-3.4,7.5-7.5v-27.2c0-15.3-8.9-29-22.4-35.4L272.9,3.8c-10.7-5.1-23-5.1-33.8,0L96,72
			c-3.7,1.8-5.3,6.3-3.5,10s6.3,5.3,10,3.5l143.1-68.2c6.6-3.2,14.2-3.2,20.9,0l196.3,93.5c1.2,0.6,2.4,1.3,3.5,2L256,213
			L45.8,112.9c1.1-0.8,2.3-1.5,3.5-2l24.3-11.6c3.7-1.8,5.3-6.3,3.5-10c-1.8-3.7-6.3-5.3-10-3.5L42.9,97.3
			c-13.6,6.4-22.4,20.2-22.4,35.4v246.6c0,15,8.8,28.9,22.4,35.4L174,477.2c3.7,1.8,8.2,0.2,10-3.5s0.2-8.2-3.5-10L49.3,401.2
			c-8.4-4-13.8-12.6-13.8-21.9V132.7c0-2.6,0.4-5.1,1.2-7.6L248.5,226v269.8c-1-0.3-2-0.7-2.9-1.2l-36.3-17.3
			c-3.7-1.8-8.2-0.2-10,3.5c-1.8,3.7-0.2,8.2,3.5,10l36.3,17.3c5.2,2.5,11.1,3.8,16.9,3.8c5.8,0,11.7-1.3,16.9-3.8l196.3-93.5
			c0,0,0.1-0.1,0.2-0.1l0.3-0.1c13.3-6.5,21.9-20.4,21.9-35.2V191.7c0-4.1-3.4-7.5-7.5-7.5s-7.5,3.4-7.5,7.5v187.6
			c0,9.2-5.3,17.7-13.6,21.8l-196.4,93.6c-0.9,0.5-1.9,0.8-2.9,1.2V226l211.8-100.9c0.8,2.4,1.2,5,1.2,7.6v27.2
			C476.5,164,479.9,167.4,484,167.4L484,167.4z"/>
	</g>
</g>
<path d="M359.3,301.5c-2.9,21.4,9.7,36.9,24.9,36.9c13.6,0,25.5-12.5,27.9-29.8c2.5-18.6-7.1-34.7-21.9-36.7
	C375.4,269.9,361.8,282.9,359.3,301.5z M397.3,306.6c-1.3,9.7-7.8,17.6-14,16.7c-6.1-0.8-10.4-10.1-9.1-19.8
	c1.3-9.7,7.9-17.6,14-16.7C394.3,287.6,398.6,296.9,397.3,306.6z"/>
<path d="M218.9,261.6c-1-18.7-13.5-32.8-28.3-32c-14.9,0.8-25.7,16.1-24.7,34.8c1,18.2,12.8,32,27.1,32
	C206.8,296.5,220.1,282.6,218.9,261.6z M193.4,281.5c-6.1,0.3-12-8-12.5-17.8c-0.5-9.8,4.4-18.7,10.5-19.1c6.1-0.3,12,8,12.5,17.8
	C204.4,270.2,200.7,281.1,193.4,281.5L193.4,281.5z"/>
<path d="M57,358.6c1.1,19.5,14,32,27.2,32c14.1,0,26.9-14.4,25.8-34.9c-1.1-20.2-14.9-32.7-28.3-32C68.2,324.5,55.9,338.5,57,358.6
	L57,358.6z M82.5,338.7c7.3-0.4,12.1,10,12.5,17.8c0.4,7.6-3.2,18.7-10.5,19.1c-7.3,0.4-12.1-10-12.5-17.8
	C71.6,350,75.2,339.1,82.5,338.7z"/>
<path d="M165.3,135.2c18.7-1,32.8-13.5,32-28.3c-0.7-13.7-15-25.7-34.8-24.7c-18.7,1-32.8,13.5-32,28.3
	C131.3,126.5,148.1,136.1,165.3,135.2z M163.2,97.2c7.6-0.4,18.6,3.1,19.1,10.5c0.3,6.1-8,12-17.8,12.5c-9.8,0.5-18.7-4.4-19.1-10.5
	C145.1,103.6,153.4,97.7,163.2,97.2z"/>
<path d="M252.3,37.8c-18.7,1-32.8,13.5-32,28.3c0.7,13.2,14.4,25.8,34.8,24.7c18.7-1,32.8-13.5,32-28.3
	C286.3,47.6,271,36.8,252.3,37.8L252.3,37.8z M254.4,75.8c-7.7,0.4-18.7-3.2-19.1-10.5c-0.3-6.1,8-12,17.8-12.5
	c7.7-0.4,18.7,3.2,19.1,10.5C272.5,69.4,264.2,75.3,254.4,75.8L254.4,75.8z"/>
<path d="M349.3,138.3c20.2-1.1,32.7-14.9,32-28.3c-0.8-13.7-15.1-25.8-34.8-24.7c-18.7,1-32.8,13.5-32,28.3
	C315.2,127.4,329.1,139.5,349.3,138.3z M347.2,100.3c7.6-0.4,18.6,3.1,19.1,10.5c0.4,7.3-10,12.1-17.8,12.5
	c-9.8,0.5-18.7-4.4-19.1-10.5C329.1,106.7,337.4,100.9,347.2,100.3z"/>
<path d="M258.6,126.6c-18.7,1-32.8,13.5-32,28.3c0.8,14.2,14.8,24.7,32.4,24.7c21.4,0,35.2-14.3,34.4-28.4
	C292.7,137.5,278.4,125.5,258.6,126.6z M260.7,164.6c-9.8,0.5-18.7-4.4-19.1-10.5c-0.3-6.1,8-12,17.8-12.5
	c7.6-0.4,18.6,3.1,19.1,10.5C278.9,159.4,268.5,164.2,260.7,164.6L260.7,164.6z"/>
</svg>
