<?xml version="1.0" standalone="no"?>
<!DOCTYPE svg PUBLIC "-//W3C//DTD SVG 20010904//EN"
 "http://www.w3.org/TR/2001/REC-SVG-20010904/DTD/svg10.dtd">
<svg version="1.0" xmlns="http://www.w3.org/2000/svg"
 width="700.000000pt" height="700.000000pt" viewBox="0 0 700.000000 700.000000"
 preserveAspectRatio="xMidYMid meet">
<metadata>
Created by potrace 1.11, written by Peter Selinger 2001-2013
</metadata>
<g transform="translate(0.000000,700.000000) scale(0.100000,-0.100000)"
fill="#000000" stroke="none">
<path d="M1020 6990 c-48 -9 -93 -17 -125 -24 -97 -20 -268 -96 -367 -163
-219 -147 -403 -391 -474 -629 -19 -64 -20 -65 -28 -109 -3 -16 -10 -52 -15
-80 -14 -68 -14 -4866 -1 -4955 16 -104 19 -121 46 -205 59 -185 151 -335 293
-476 188 -188 409 -300 671 -338 40 -6 997 -9 2520 -7 2449 2 2455 2 2535 23
123 31 178 52 271 99 338 171 578 496 639 867 12 68 14 508 14 2512 0 2135 -2
2440 -15 2510 -66 348 -249 619 -549 813 -45 29 -185 92 -258 117 -165 55 -56
53 -2682 53 -1337 0 -2450 -4 -2475 -8z"/>
</g>
</svg>
