<?xml version="1.0" encoding="UTF-8"?>
<!-- Generator: Adobe Illustrator 25.3.1, SVG Export Plug-In . SVG Version: 6.00 Build 0)  -->
<svg xmlns="http://www.w3.org/2000/svg" xmlns:xlink="http://www.w3.org/1999/xlink" version="1.1" id="Capa_1" x="0px" y="0px" viewBox="0 0 512 512" style="enable-background:new 0 0 512 512;" xml:space="preserve" width="512" height="512">
<g>
	<g>
		<g>
			<g>
				<polygon style="fill:#FFCF00;" points="442.218,373.988 72.742,373.988 107.036,314.791 407.925,314.791 408.625,315.992           "/>
				<g>
					<polygon style="fill:#915EFD;" points="241.204,357.828 249.866,314.79 107.039,314.79 72.732,373.987 237.935,373.987             "/>
					<polygon style="fill:#915EFD;" points="407.925,314.782 408.625,315.992 408.625,111.277 107.336,111.277 107.336,314.782             "/>
					<path style="fill:#915EFD;" d="M102.469,497.573c0.291,1.392,0.894,2.681,1.725,3.741c1.642,2.141,4.239,3.47,7.086,3.47h292.4       c4.281,0,7.959-3.013,8.812-7.211l12.968-64.34H89.501L102.469,497.573z"/>
					<path style="fill:#915EFD;" d="M417.414,15.523c-1.041-4.845-5.345-8.308-10.29-8.308H108.837       c-4.945,0-9.249,3.463-10.29,8.308l-8.768,40.619h336.403L417.414,15.523z"/>
				</g>
				<g>
					<polygon style="fill:#00D5FE;" points="223.193,357.828 231.856,314.79 107.039,314.79 72.732,373.987 219.925,373.987             "/>
					<path style="fill:#00D5FE;" d="M352.17,461.731H162.807c-3.108,0-5.6,2.491-5.6,5.577v37.484h200.539v-37.484       C357.747,464.222,355.256,461.731,352.17,461.731z"/>
					<path style="fill:#00D5FE;" d="M384.75,396.209c-4.284,0-7.757,3.473-7.757,7.758c0,4.284,3.473,7.757,7.757,7.757       c4.284,0,7.758-3.473,7.758-7.757C392.508,399.682,389.034,396.209,384.75,396.209z"/>
					<path style="fill:#00D5FE;" d="M303.111,411.724c4.284,0,7.758-3.473,7.758-7.757c0-4.284-3.473-7.758-7.758-7.758       c-4.284,0-7.758,3.473-7.758,7.758C295.354,408.251,298.827,411.724,303.111,411.724z"/>
					<path style="fill:#00D5FE;" d="M204.091,403.966c0,4.284,3.473,7.757,7.758,7.757c4.284,0,7.757-3.473,7.757-7.757       c0-4.284-3.473-7.758-7.757-7.758C207.565,396.209,204.091,399.682,204.091,403.966z"/>
					<path style="fill:#00D5FE;" d="M130.21,396.209c-4.284,0-7.758,3.473-7.758,7.758c0,4.284,3.473,7.757,7.758,7.757       c4.284,0,7.757-3.473,7.757-7.757C137.968,399.682,134.495,396.209,130.21,396.209z"/>
				</g>
				<g>
					<path style="fill:#FC09B2;" d="M229.334,43.661c5.987,2.945,13.59,0.106,14.947-3.755c2.791-7.944-12.832-11.183-17.802-3.979       C224.788,38.377,225.578,41.813,229.334,43.661z"/>
					<path style="fill:#FC09B2;" d="M286.627,43.661c3.756-1.847,4.546-5.283,2.855-7.735c-4.97-7.204-20.593-3.964-17.802,3.979       C273.037,43.767,280.64,46.606,286.627,43.661z"/>
					<path style="fill:#FC09B2;" d="M72.723,374.488l7.067,51.589c0.28,2.082,1.301,3.904,2.763,5.185       c1.041,0.941,2.302,1.602,3.704,1.942c0.641,0.16,1.301,0.24,1.982,0.24h338.485c4.264,0,7.868-3.143,8.448-7.367l7.067-51.589       H72.723z"/>
				</g>
				<polygon style="fill:#FF8EDE;" points="426.603,56.122 409.086,110.855 106.875,110.855 106.375,109.273 89.358,56.122     "/>
				<g>
					<path style="fill:#FFCF00;" d="M258.581,386.482l4.933,9.995c0.179,0.362,0.525,0.613,0.924,0.672l11.03,1.603       c1.007,0.146,1.409,1.384,0.681,2.094l-7.981,7.78c-0.289,0.282-0.422,0.689-0.353,1.087l1.884,10.986       c0.172,1.003-0.881,1.768-1.781,1.294l-9.866-5.187c-0.358-0.188-0.785-0.188-1.143,0l-9.866,5.187       c-0.901,0.474-1.954-0.291-1.781-1.294l1.884-10.986c0.068-0.398-0.064-0.804-0.353-1.087l-7.982-7.78       c-0.729-0.71-0.326-1.948,0.681-2.094l11.03-1.603c0.4-0.058,0.746-0.309,0.924-0.672l4.933-9.995       C256.83,385.569,258.131,385.569,258.581,386.482z"/>
					<path style="fill:#FFCF00;" d="M344.753,390.9l3.686,7.469c0.134,0.271,0.392,0.458,0.691,0.502l8.243,1.198       c0.752,0.109,1.053,1.034,0.508,1.565l-5.965,5.814c-0.216,0.211-0.315,0.514-0.264,0.812l1.408,8.21       c0.129,0.75-0.658,1.321-1.331,0.967l-7.372-3.876c-0.267-0.14-0.587-0.14-0.854,0l-7.373,3.876       c-0.673,0.354-1.46-0.218-1.331-0.967l1.408-8.21c0.051-0.298-0.048-0.601-0.264-0.812l-5.964-5.814       c-0.545-0.531-0.244-1.456,0.508-1.565l8.243-1.198c0.299-0.044,0.557-0.231,0.691-0.502l3.686-7.469       C343.444,390.218,344.417,390.218,344.753,390.9z"/>
					<path style="fill:#FFCF00;" d="M171.852,390.9l3.686,7.469c0.134,0.271,0.392,0.458,0.691,0.502l8.243,1.198       c0.753,0.109,1.053,1.034,0.508,1.565l-5.964,5.814c-0.216,0.211-0.315,0.514-0.264,0.812l1.408,8.21       c0.129,0.75-0.658,1.321-1.331,0.967l-7.373-3.876c-0.267-0.14-0.586-0.14-0.854,0l-7.373,3.876       c-0.673,0.354-1.46-0.218-1.331-0.967l1.408-8.21c0.051-0.298-0.048-0.601-0.264-0.812l-5.965-5.814       c-0.545-0.531-0.244-1.456,0.508-1.565l8.243-1.198c0.299-0.044,0.557-0.231,0.691-0.502l3.686-7.469       C170.543,390.218,171.516,390.218,171.852,390.9z"/>
				</g>
				<g style="opacity:0.5;">
					<path style="fill:#FD8A02;" d="M442.223,373.987H237.935l3.268-16.159c62.1-0.023,125.891-0.412,133.937-1.417       c7.611-0.937,16.159-3.497,21.828-9.097c7.977-7.862,3.245-16.137,4.982-25.667c0.526-2.88,1.531-5.12,2.903-6.857h3.063       l0.708,1.212L442.223,373.987z"/>
				</g>
				<path style="fill:#FFFFFF;" d="M118.698,324.33c-0.568,3.029-1.497,5.875-2.553,8.657c-1.033,2.794-2.281,5.479-3.57,8.144      c-1.358,2.63-2.762,5.236-4.379,7.735c-1.594,2.51-3.318,4.955-5.407,7.215c-0.782,0.847-2.102,0.899-2.949,0.117      c-0.549-0.507-0.763-1.243-0.633-1.927c0.581-3.022,1.526-5.861,2.601-8.633c1.052-2.784,2.318-5.46,3.629-8.113      c1.38-2.619,2.802-5.216,4.437-7.705c1.613-2.501,3.353-4.937,5.455-7.191c0.74-0.794,1.984-0.837,2.777-0.097      C118.614,323.004,118.812,323.695,118.698,324.33z"/>
				<g style="opacity:0.25;">
					<g>
						<path style="fill:#4217A6;" d="M357.747,481.936v22.856H157.208v-22.353c2.537,0.068,5.051,0.137,7.497,0.159        c94.761,0.663,145.913,0.663,175.077,0.663C346.707,483.262,352.627,482.805,357.747,481.936z"/>
					</g>
					<g>
						<path style="fill:#4217A6;" d="M223.193,357.828l-3.269,16.159H75.36c3.725-12.776,39.541-16.662,61.003-16.479        C155.951,357.668,188.406,357.805,223.193,357.828z"/>
					</g>
				</g>
				<g style="opacity:0.25;">
					<g>
						<path style="fill:#000E3F;" d="M426.182,56.142H110.159c11.171-5.205,23.242-7.167,35.614-8.208        c23.383-1.981,19.278-1.981,228.86-2.782c35.234-0.14,21.32-22.762,21.3-37.936h11.191c4.945,0,9.249,3.463,10.29,8.308        L426.182,56.142z"/>
					</g>
					<g>
						<path style="fill:#000E3F;" d="M425.469,433.229l-12.982,64.34c-0.846,4.206-4.525,7.222-8.799,7.222h-45.941v-22.856        c35.632-5.873,31.472-30.512,41.072-48.706H425.469z"/>
					</g>
					<g>
						<path style="fill:#000E3F;" d="M157.208,482.439v22.353H111.29c-2.857,0-5.463-1.348-7.086-3.474        c3.931-7.154,11.154-12.685,18.902-15.496C133.62,481.959,145.802,482.188,157.208,482.439z"/>
					</g>
					<g>
						<path style="fill:#000E3F;" d="M442.238,374.488l-7.067,51.589c-0.581,4.224-4.184,7.367-8.448,7.367H88.237        c-0.681,0-1.341-0.08-1.982-0.24c13.153-18.138,38.337-16.116,59.077-16.877c48.807-1.822,231.503,1.962,251.161-2.963        c20.78-5.225,18.838-27.586,32.311-38.497c0.16-0.12,0.32-0.26,0.48-0.38H442.238z"/>
					</g>
					<g>
						<polygon style="fill:#000E3F;" points="241.204,357.828 237.935,373.987 219.925,373.987 223.193,357.828       "/>
					</g>
				</g>
			</g>
			<g>
				<path style="fill:#000E3F;" d="M444.004,374.145c0.033-0.37-0.011-0.742-0.203-1.075l-33.347-57.57      c-0.008-28.349,0.001-157.395,0.007-177.177c0.011-33.356-2.77-17.319,11.107-60.169c1.837-5.674,3.804-11.343,5.311-17.117      c1.117-4.282,0.702-7.084-0.203-11.279c-1.634-7.568-5.847-27.085-7.289-33.764c-0.062-0.285-0.123-0.571-0.185-0.856      c-1.213-5.652-6.293-9.752-12.078-9.752H108.838c-5.784,0-10.863,4.1-12.079,9.75c0,0-8.474,39.252-8.555,39.631      c-0.588,2.722,0.295,5.246,1.093,7.854c3.636,11.865,7.723,23.6,11.54,35.408c1.938,5.995,4.782,11.988,4.751,18.317      c-0.014,2.758-0.083,189.619-0.081,195.373c0,0.418,0.237,1.73,0.001,2.099c-0.015,0.022-0.041,0.031-0.055,0.054l-7.967,13.753      L71.149,373.07c-0.198,0.343-0.236,0.727-0.195,1.108c-0.032,0.184-0.069,0.369-0.043,0.557l7.065,51.585      c0.332,2.46,1.528,4.703,3.349,6.299c1.276,1.152,2.789,1.948,4.484,2.359c0.722,0.181,1.474,0.269,2.234,0.283l12.635,62.687      c0.345,1.647,1.062,3.201,2.064,4.48c2.01,2.62,5.202,4.185,8.538,4.185H403.68c5.124,0,9.583-3.649,10.604-8.678l12.632-62.68      c5.063-0.097,9.374-3.893,10.065-8.93l7.068-51.589C444.077,374.536,444.041,374.339,444.004,374.145z M247.632,316.618      L236.44,372.16h-14.281l11.193-55.542H247.632z M249.866,312.962h-18.01H109.164V112.185h297.634v200.777H249.866z       M108.092,316.618h121.53L218.43,372.16H75.915l24.699-42.638L108.092,316.618z M240.169,372.16l11.193-55.542h155.511      l32.172,55.542H240.169z M100.335,15.907c0.855-3.978,4.431-6.864,8.503-6.864h298.286c4.072,0,7.648,2.886,8.502,6.866      l8.287,38.384H92.048L100.335,15.907z M91.871,57.969h332.22l-16.34,51.058H108.215L91.871,57.969z M355.919,502.957H159.035      v-35.648c0-2.067,1.692-3.75,3.772-3.75H352.17c2.067,0,3.749,1.683,3.749,3.75V502.957z M410.699,497.209      c-0.676,3.33-3.628,5.748-7.02,5.748h-44.105v-35.648c0-4.084-3.321-7.406-7.405-7.406H162.807      c-4.096,0-7.428,3.321-7.428,7.406v35.648h-44.098c-2.206,0-4.312-1.031-5.648-2.772c-0.668-0.853-1.144-1.884-1.371-2.973      l-12.484-61.939h331.404L410.699,497.209z M433.359,425.829c-0.453,3.299-3.306,5.788-6.636,5.788H88.237      c-0.528,0-1.045-0.063-1.551-0.19c-1.11-0.27-2.089-0.781-2.928-1.54c-1.177-1.031-1.944-2.471-2.157-4.058l-6.782-49.513      h365.324L433.359,425.829z"/>
				<path style="fill:#000E3F;" d="M330.217,474.152H184.744c-1.01,0-1.828,0.819-1.828,1.828c0,1.009,0.818,1.828,1.828,1.828      h145.473c1.01,0,1.828-0.819,1.828-1.828C332.045,474.972,331.227,474.152,330.217,474.152z"/>
				<path style="fill:#000E3F;" d="M330.217,488.701H184.744c-1.01,0-1.828,0.819-1.828,1.828c0,1.009,0.818,1.828,1.828,1.828      h145.473c1.01,0,1.828-0.819,1.828-1.828C332.045,489.52,331.227,488.701,330.217,488.701z"/>
				<path style="fill:#000E3F;" d="M245.29,409.714l-1.83,10.676c-0.197,1.154,0.268,2.299,1.216,2.988      c0.948,0.688,2.18,0.777,3.218,0.232l9.587-5.04l9.586,5.04c0.451,0.237,0.939,0.355,1.424,0.355      c0.63,0,1.258-0.199,1.794-0.587c0.948-0.69,1.414-1.834,1.216-2.988l-1.83-10.676l7.756-7.56      c0.839-0.819,1.135-2.022,0.771-3.136c-0.364-1.114-1.309-1.909-2.466-2.076l-10.719-1.558l-4.792-9.712      c-0.518-1.049-1.567-1.703-2.739-1.703h-0.001c-1.172,0-2.222,0.652-2.741,1.703l-4.792,9.712l-10.715,1.558      c-1.16,0.167-2.106,0.962-2.47,2.076c-0.364,1.114-0.068,2.317,0.772,3.138L245.29,409.714z M250.785,398.957      c0.995-0.145,1.855-0.77,2.3-1.67l4.394-8.904l4.397,8.908c0.446,0.897,1.307,1.52,2.299,1.665l9.825,1.429l-7.113,6.933      c-0.718,0.703-1.045,1.714-0.875,2.701l1.678,9.788l-8.791-4.623c-0.892-0.464-1.954-0.466-2.841,0.002l-8.789,4.621      l1.679-9.788c0.17-0.986-0.157-1.998-0.878-2.705l-7.11-6.928L250.785,398.957z"/>
				<path style="fill:#000E3F;" d="M334.325,408.423l-1.327,7.736c-0.179,1.038,0.239,2.067,1.091,2.687      c0.481,0.348,1.045,0.527,1.611,0.527c0.437,0,0.876-0.105,1.281-0.319l6.948-3.652l6.947,3.652      c0.932,0.491,2.04,0.415,2.892-0.208c0.853-0.618,1.272-1.647,1.095-2.687l-1.328-7.736l5.622-5.482      c0.753-0.734,1.02-1.812,0.694-2.815c-0.325-1-1.174-1.716-2.215-1.868l-7.77-1.129l-3.475-7.04      c-0.465-0.942-1.407-1.529-2.46-1.529c-0.001,0-0.001,0-0.002,0c-1.051,0-1.994,0.585-2.462,1.529l-3.474,7.04l-7.769,1.129      c-1.041,0.152-1.891,0.868-2.217,1.871c-0.326,1-0.059,2.078,0.694,2.815L334.325,408.423z M338.988,400.681      c0.898-0.127,1.674-0.69,2.074-1.502l2.869-5.814l2.866,5.805c0.399,0.819,1.176,1.384,2.071,1.511l6.416,0.933l-4.638,4.522      c-0.651,0.629-0.947,1.54-0.795,2.435l1.096,6.388l-5.738-3.016c-0.804-0.422-1.76-0.422-2.555,0l-5.74,3.016l1.096-6.388      c0.153-0.895-0.143-1.806-0.789-2.433l-4.644-4.524L338.988,400.681z"/>
				<path style="fill:#000E3F;" d="M384.75,413.553c5.286,0,9.586-4.301,9.586-9.586c0-5.286-4.3-9.585-9.586-9.585      c-5.285,0-9.586,4.299-9.586,9.585C375.164,409.252,379.464,413.553,384.75,413.553z M384.75,398.038      c3.269,0,5.929,2.661,5.929,5.928c0,3.27-2.66,5.93-5.929,5.93c-3.269,0-5.929-2.66-5.929-5.93      C378.82,400.699,381.481,398.038,384.75,398.038z"/>
				<path style="fill:#000E3F;" d="M303.111,413.553c5.285,0,9.585-4.301,9.585-9.586c0-5.286-4.3-9.585-9.585-9.585      c-5.286,0-9.586,4.299-9.586,9.585C293.525,409.252,297.825,413.553,303.111,413.553z M303.111,398.038      c3.269,0,5.929,2.661,5.929,5.928c0,3.27-2.66,5.93-5.929,5.93c-3.269,0-5.929-2.66-5.929-5.93      C297.182,400.699,299.842,398.038,303.111,398.038z"/>
				<path style="fill:#000E3F;" d="M161.425,408.423l-1.328,7.738c-0.177,1.038,0.242,2.067,1.095,2.685      c0.481,0.351,1.044,0.527,1.609,0.527c0.436,0,0.876-0.105,1.28-0.319l6.948-3.652l6.947,3.652      c0.932,0.491,2.041,0.415,2.892-0.208c0.853-0.618,1.272-1.647,1.095-2.687l-1.328-7.736l5.622-5.482      c0.753-0.734,1.02-1.812,0.694-2.815c-0.325-1-1.174-1.716-2.215-1.868l-7.77-1.129l-3.474-7.04c0,0,0,0-0.001,0      c-0.467-0.944-1.41-1.529-2.461-1.529c-1.052,0-1.995,0.585-2.463,1.529l-3.474,7.04l-7.77,1.129      c-1.041,0.152-1.89,0.868-2.215,1.868c-0.326,1.002-0.059,2.08,0.694,2.817L161.425,408.423z M166.086,400.681      c0.899-0.127,1.674-0.69,2.074-1.502l2.87-5.814l2.868,5.812c0.401,0.815,1.176,1.377,2.068,1.504l6.416,0.933l-4.638,4.522      c-0.649,0.627-0.945,1.536-0.795,2.435l1.096,6.388l-5.736-3.016c-0.801-0.42-1.758-0.42-2.557,0l-5.739,3.016l1.097-6.395      c0.15-0.893-0.147-1.801-0.791-2.426l-4.643-4.524L166.086,400.681z"/>
				<path style="fill:#000E3F;" d="M211.849,413.553c5.285,0,9.586-4.301,9.586-9.586c0-5.286-4.3-9.585-9.586-9.585      s-9.586,4.299-9.586,9.585C202.263,409.252,206.563,413.553,211.849,413.553z M211.849,398.038c3.269,0,5.929,2.661,5.929,5.928      c0,3.27-2.661,5.93-5.929,5.93c-3.269,0-5.93-2.66-5.93-5.93C205.919,400.699,208.58,398.038,211.849,398.038z"/>
				<path style="fill:#000E3F;" d="M130.211,413.553c5.285,0,9.585-4.301,9.585-9.586c0-5.286-4.3-9.585-9.585-9.585      c-5.285,0-9.586,4.299-9.586,9.585C120.625,409.252,124.925,413.553,130.211,413.553z M130.211,398.038      c3.269,0,5.929,2.661,5.929,5.928c0,3.27-2.66,5.93-5.929,5.93c-3.269,0-5.929-2.66-5.929-5.93      C124.281,400.699,126.942,398.038,130.211,398.038z"/>
				<path style="fill:#000E3F;" d="M130.988,101.264c0.234,0.797,0.963,1.312,1.753,1.312c0.171,0,0.344-0.022,0.515-0.074      c0.97-0.283,1.524-1.301,1.24-2.27c-10.212-32.195-9.066-36.738-12.401-35.755C118.758,65.453,122.175,68.647,130.988,101.264z"/>
				<path style="fill:#000E3F;" d="M153.734,101.175c0.201,0.839,0.951,1.402,1.777,1.402c0.141,0,0.285-0.016,0.429-0.049      c0.981-0.236,1.586-1.223,1.35-2.205L149,65.806c-0.234-0.982-1.212-1.585-2.205-1.353c-0.981,0.237-1.586,1.223-1.35,2.205      L153.734,101.175z"/>
				<path style="fill:#000E3F;" d="M178.281,102.577c0.111,0,0.224-0.009,0.338-0.031c0.992-0.185,1.647-1.141,1.462-2.132      l-6.448-34.516c-0.185-0.993-1.135-1.659-2.134-1.462c-0.992,0.185-1.647,1.141-1.462,2.132l6.449,34.516      C176.651,101.963,177.418,102.577,178.281,102.577z"/>
				<path style="fill:#000E3F;" d="M201.051,102.577c0.08,0,0.162-0.004,0.244-0.016c1.001-0.134,1.704-1.053,1.57-2.053      l-4.605-34.516c-0.134-1.002-1.052-1.719-2.054-1.571c-1.001,0.134-1.704,1.053-1.57,2.053l4.605,34.516      C199.364,101.909,200.148,102.577,201.051,102.577z"/>
				<path style="fill:#000E3F;" d="M223.822,102.577c0.049,0,0.098-0.002,0.148-0.004c1.007-0.083,1.757-0.962,1.676-1.969      l-2.763-34.516c-0.08-1.009-0.962-1.732-1.969-1.678c-1.007,0.083-1.757,0.962-1.676,1.969l2.763,34.516      C222.078,101.851,222.879,102.577,223.822,102.577z"/>
				<path style="fill:#000E3F;" d="M246.595,102.577c0.016,0,0.033,0,0.05,0c1.009-0.027,1.806-0.868,1.779-1.877l-0.922-34.516      c-0.028-1.011-0.867-1.788-1.877-1.779c-1.009,0.027-1.806,0.868-1.779,1.877l0.922,34.516      C244.794,101.791,245.608,102.577,246.595,102.577z"/>
				<path style="fill:#000E3F;" d="M269.317,102.577c0.017,0,0.034,0,0.05,0c0.986,0,1.8-0.786,1.827-1.779l0.921-34.516      c0.027-1.009-0.77-1.85-1.779-1.877c-1.029-0.011-1.85,0.768-1.877,1.779l-0.921,34.516      C267.511,101.708,268.308,102.55,269.317,102.577z"/>
				<path style="fill:#000E3F;" d="M291.991,102.572c0.05,0.002,0.099,0.004,0.149,0.004c0.943,0,1.744-0.725,1.82-1.683      l2.763-34.516c0.08-1.007-0.67-1.886-1.676-1.969c-0.996-0.036-1.888,0.672-1.969,1.678l-2.763,34.516      C290.234,101.61,290.984,102.489,291.991,102.572z"/>
				<path style="fill:#000E3F;" d="M314.665,102.561c0.083,0.011,0.164,0.016,0.244,0.016c0.903,0,1.687-0.667,1.81-1.587      l4.606-34.516c0.134-1-0.569-1.92-1.57-2.053c-1.01-0.147-1.922,0.569-2.054,1.571l-4.606,34.516      C312.961,101.507,313.664,102.427,314.665,102.561z"/>
				<path style="fill:#000E3F;" d="M337.343,102.545c0.114,0.022,0.227,0.031,0.338,0.031c0.863,0,1.63-0.614,1.796-1.493      l6.447-34.516c0.185-0.991-0.47-1.946-1.462-2.132c-0.993-0.194-1.946,0.469-2.134,1.462l-6.447,34.516      C335.695,101.405,336.35,102.36,337.343,102.545z"/>
				<path style="fill:#000E3F;" d="M360.021,102.527c0.144,0.033,0.288,0.049,0.428,0.049c0.826,0,1.576-0.562,1.777-1.402      l8.291-34.516c0.235-0.982-0.37-1.969-1.35-2.205c-0.987-0.232-1.97,0.371-2.205,1.353l-8.291,34.516      C358.435,101.304,359.039,102.291,360.021,102.527z"/>
				<path style="fill:#000E3F;" d="M382.705,102.503c0.172,0.051,0.345,0.074,0.516,0.074c0.79,0,1.519-0.515,1.753-1.312      l10.132-34.516c0.284-0.969-0.27-1.986-1.24-2.27c-0.968-0.286-1.984,0.27-2.269,1.239l-10.132,34.516      C381.181,101.202,381.735,102.22,382.705,102.503z"/>
				<path style="fill:#000E3F;" d="M257.828,40.836c0.332,0,0.666-0.018,1.003-0.051c6.499-0.647,9.953-6.942,9.905-12.535      c-0.008-1.005-0.825-1.813-1.828-1.813c-0.004,0-0.01,0-0.016,0c-1.01,0.009-1.821,0.835-1.812,1.844      c0.033,3.975-2.271,8.433-6.61,8.866c-1.773,0.163-3.357-0.375-4.713-1.638c-1.816-1.692-2.941-4.516-2.865-7.192      c0.028-1.009-0.767-1.85-1.777-1.879c-0.91,0.034-1.851,0.766-1.879,1.777c-0.106,3.736,1.439,7.558,4.029,9.97      C253.139,39.93,255.391,40.836,257.828,40.836z"/>
				<path style="fill:#000E3F;" d="M278.814,30.535c0.256,0,0.513-0.015,0.773-0.045c4.826-0.542,7.394-5.667,7.359-10.212      c-0.007-1.004-0.825-1.815-1.828-1.815c-0.005,0-0.009,0-0.014,0c-1.01,0.007-1.822,0.833-1.815,1.841      c0.022,2.991-1.51,6.259-4.11,6.551c-0.926,0.103-1.762-0.196-2.513-0.884c-1.32-1.212-2.17-3.475-2.115-5.634      c0.026-1.011-0.772-1.85-1.782-1.875c-1.01-0.042-1.848,0.772-1.874,1.781c-0.083,3.252,1.182,6.48,3.299,8.422      C275.535,29.897,277.119,30.535,278.814,30.535z"/>
				<path style="fill:#000E3F;" d="M236.948,30.535c0.256,0,0.513-0.015,0.773-0.045c4.827-0.542,7.395-5.667,7.36-10.212      c-0.007-1.004-0.825-1.815-1.828-1.815c-0.005,0-0.009,0-0.013,0c-1.01,0.007-1.823,0.833-1.815,1.841      c0.022,2.991-1.51,6.259-4.111,6.551c-0.918,0.103-1.761-0.196-2.512-0.884c-1.32-1.21-2.171-3.475-2.116-5.636      c0.026-1.009-0.772-1.848-1.782-1.873c-0.958,0.018-1.848,0.772-1.874,1.783c-0.081,3.252,1.183,6.479,3.3,8.419      C233.67,29.897,235.254,30.535,236.948,30.535z"/>
				<path style="fill:#000E3F;" d="M307.271,25.321h92.088c1.01,0,1.828-0.819,1.828-1.828c0-1.009-0.818-1.828-1.828-1.828h-92.088      c-1.01,0-1.828,0.819-1.828,1.828C305.443,24.502,306.261,25.321,307.271,25.321z"/>
				<path style="fill:#000E3F;" d="M305.611,39.876c0,1.009,0.818,1.828,1.828,1.828h100.629c1.01,0,1.828-0.819,1.828-1.828      c0-1.009-0.818-1.828-1.828-1.828H307.439C306.429,38.048,305.611,38.868,305.611,39.876z"/>
				<path style="fill:#000E3F;" d="M116.601,25.321h92.09c1.01,0,1.828-0.819,1.828-1.828c0-1.009-0.818-1.828-1.828-1.828h-92.09      c-1.01,0-1.828,0.819-1.828,1.828C114.773,24.502,115.591,25.321,116.601,25.321z"/>
				<path style="fill:#000E3F;" d="M107.894,41.704h100.629c1.01,0,1.828-0.819,1.828-1.828c0-1.009-0.818-1.828-1.828-1.828      H107.894c-1.01,0-1.828,0.819-1.828,1.828C106.066,40.885,106.884,41.704,107.894,41.704z"/>
			</g>
		</g>
		<g>
			<g>
				<path style="fill:#FC09B2;" d="M395.279,136.115v156.537c0,5.694-4.614,10.331-10.308,10.331H130.993      c-3.489,0-6.55-1.733-8.418-4.389c-3.591-5.013-1.186,0.008-1.891-162.479c0-5.694,4.614-10.308,10.308-10.308      c268.774,0.26,254.373-0.647,257.759,0.72C392.578,128.035,395.279,131.749,395.279,136.115z"/>
				<path style="fill:#00D5FE;" d="M382.362,146.25v136.268c0,5.159-4.18,9.359-9.339,9.359H142.94      c-5.218,0-9.339-4.283-9.339-9.359V146.25c0-5.158,4.18-9.338,9.339-9.338c244.438,0.236,230.442-0.586,233.509,0.653      C379.915,138.931,382.362,142.295,382.362,146.25z"/>
				<g style="opacity:0.25;">
					<path style="fill:#4217A6;" d="M382.362,146.25v136.268c0,5.159-4.18,9.359-9.339,9.359H142.94c-3.16,0-5.933-1.57-7.626-3.976       c2.977-4.771,7.565-8.747,12.642-11.174c10.093-4.792,21.695-4.853,32.849-4.833c48.427,0.102,96.935,0.347,145.301,0.061       c10.297-0.061,30.83,1.346,34.439-11.602c4.812-17.25-3.303-86.332,4.486-106.131c2.916-7.422,6.851-12.887,11.419-16.659       C379.915,138.931,382.362,142.295,382.362,146.25z"/>
				</g>
				<path style="fill:#FFFFFF;" d="M147.474,149.547c15.263-1.401,30.525-1.736,45.788-1.81c15.262,0.032,30.525,0.332,45.788,1.707      c0.95,0.086,1.651,0.925,1.565,1.875c-0.076,0.845-0.749,1.492-1.565,1.565c-15.263,1.375-30.525,1.675-45.788,1.707      c-15.263-0.074-30.525-0.409-45.788-1.81c-0.893-0.082-1.551-0.872-1.469-1.766      C146.078,150.224,146.709,149.617,147.474,149.547z"/>
				<g>
					<path style="fill:#FFFFFF;" d="M185.037,179.643c0.609-0.42-3.102-10.401-12.162-10.176       c-6.769,0.168-11.448,6.452-11.448,12.896v0.101c-4.632-3.776-10.795,0.505-10.502,6c0.068,1.268,1.099,2.232,2.273,2.232       h42.621c1.604,0,2.899-1.431,2.865-3.166C198.546,180.364,190.987,175.54,185.037,179.643z"/>
					<path style="fill:#FFFFFF;" d="M354.776,223.245c0.609-0.42-3.102-10.401-12.162-10.176       c-6.769,0.168-11.448,6.453-11.448,12.896v0.101c-4.632-3.776-10.795,0.505-10.502,6c0.068,1.268,1.099,2.232,2.273,2.232       h42.621c1.604,0,2.899-1.431,2.865-3.166C368.285,223.966,360.726,219.142,354.776,223.245z"/>
					<path style="fill:#FFFFFF;" d="M319.288,164.403c-0.609-0.42,3.102-10.401,12.162-10.176       c6.769,0.168,11.448,6.453,11.448,12.896v0.101c4.632-3.776,10.795,0.505,10.502,6c-0.068,1.268-1.099,2.232-2.273,2.232       h-42.621c-1.604,0-2.899-1.431-2.865-3.166C305.778,165.125,313.337,160.3,319.288,164.403z"/>
					<path style="fill:#FFFFFF;" d="M178.485,230.147c-0.609-0.42,3.102-10.401,12.161-10.176       c6.769,0.168,11.448,6.452,11.448,12.896v0.101c4.632-3.775,10.795,0.505,10.502,6c-0.068,1.268-1.099,2.232-2.273,2.232       h-42.621c-1.604,0-2.899-1.431-2.865-3.166C164.975,230.869,172.534,226.044,178.485,230.147z"/>
					<path style="fill:#FFFFFF;" d="M281.901,269.491c-0.609-0.42,3.102-10.401,12.161-10.176       c6.769,0.168,11.448,6.453,11.448,12.896v0.101c4.632-3.775,10.795,0.505,10.502,6c-0.068,1.268-1.099,2.232-2.273,2.232       h-42.621c-1.604,0-2.899-1.431-2.865-3.167C268.391,270.212,275.95,265.388,281.901,269.491z"/>
				</g>
				<g>
					<path style="fill:#4217A6;" d="M158.708,206.313l1.578,3.146c0.144,0.287,0.422,0.486,0.744,0.532l3.53,0.504       c0.811,0.116,1.134,1.096,0.548,1.658l-2.554,2.449c-0.233,0.223-0.339,0.545-0.284,0.86l0.603,3.457       c0.138,0.794-0.709,1.4-1.434,1.025l-3.157-1.632c-0.288-0.149-0.632-0.149-0.92,0l-3.157,1.632       c-0.725,0.375-1.572-0.231-1.434-1.025l0.603-3.457c0.055-0.315-0.051-0.637-0.284-0.86l-2.554-2.449       c-0.586-0.562-0.263-1.542,0.548-1.658l3.53-0.504c0.322-0.046,0.6-0.245,0.744-0.532l1.579-3.146       C157.298,205.59,158.345,205.59,158.708,206.313z"/>
					<path style="fill:#4217A6;" d="M277.331,153.693l1.579,3.146c0.144,0.287,0.422,0.486,0.744,0.532l3.53,0.504       c0.81,0.116,1.134,1.095,0.548,1.658l-2.554,2.449c-0.233,0.223-0.339,0.545-0.284,0.86l0.603,3.458       c0.138,0.794-0.709,1.399-1.434,1.024l-3.157-1.632c-0.288-0.149-0.632-0.149-0.92,0l-3.157,1.632       c-0.725,0.375-1.572-0.231-1.434-1.024l0.603-3.458c0.055-0.315-0.051-0.637-0.284-0.86l-2.554-2.449       c-0.587-0.562-0.263-1.542,0.548-1.658l3.53-0.504c0.322-0.046,0.6-0.245,0.744-0.532l1.578-3.146       C275.922,152.971,276.969,152.971,277.331,153.693z"/>
					<path style="fill:#4217A6;" d="M342.601,251.97l1.579,3.146c0.144,0.287,0.422,0.485,0.744,0.531l3.53,0.505       c0.811,0.116,1.134,1.095,0.548,1.658l-2.554,2.448c-0.233,0.223-0.339,0.545-0.284,0.86l0.603,3.458       c0.138,0.794-0.709,1.399-1.434,1.024l-3.157-1.632c-0.288-0.149-0.632-0.149-0.92,0l-3.157,1.632       c-0.725,0.375-1.572-0.231-1.434-1.024l0.603-3.458c0.055-0.315-0.051-0.637-0.284-0.86l-2.554-2.448       c-0.586-0.562-0.263-1.542,0.548-1.658l3.53-0.505c0.322-0.046,0.6-0.245,0.744-0.531l1.578-3.146       C341.192,251.247,342.239,251.247,342.601,251.97z"/>
					<path style="fill:#4217A6;" d="M236.902,263.326l1.579,3.146c0.144,0.287,0.422,0.486,0.744,0.532l3.53,0.504       c0.811,0.116,1.134,1.096,0.548,1.658l-2.554,2.449c-0.233,0.223-0.339,0.545-0.284,0.86l0.603,3.458       c0.138,0.794-0.709,1.399-1.434,1.024l-3.157-1.632c-0.288-0.149-0.632-0.149-0.92,0l-3.157,1.632       c-0.725,0.375-1.572-0.23-1.434-1.024l0.603-3.458c0.055-0.315-0.051-0.637-0.284-0.86l-2.554-2.449       c-0.587-0.562-0.263-1.542,0.548-1.658l3.53-0.504c0.322-0.046,0.6-0.245,0.744-0.532l1.578-3.146       C235.493,262.604,236.54,262.604,236.902,263.326z"/>
				</g>
				<g>
					<path style="fill:#915EFD;" d="M338.013,192.232c0,2.129,1.726,3.855,3.855,3.855c2.129,0,3.855-1.726,3.855-3.855       c0-2.129-1.726-3.855-3.855-3.855C339.739,188.377,338.013,190.103,338.013,192.232z"/>
					<path style="fill:#915EFD;" d="M194.83,260.735c0,2.129,1.726,3.855,3.855,3.855c2.129,0,3.855-1.726,3.855-3.855       c0-2.129-1.726-3.855-3.855-3.855C196.556,256.88,194.83,258.606,194.83,260.735z"/>
					<path style="fill:#915EFD;" d="M218.897,167.987c0,2.129,1.726,3.855,3.855,3.855c2.129,0,3.855-1.726,3.855-3.855       c0-2.129-1.726-3.855-3.855-3.855C220.623,164.132,218.897,165.858,218.897,167.987z"/>
				</g>
			</g>
			<g>
				<path style="fill:#000E3F;" d="M389.436,124.83l-0.257-0.116c-1.704-0.833-1.71-0.826-51.471-0.766      c-36.788,0.051-98.359,0.134-206.716,0.031c-6.693,0-12.137,5.444-12.137,12.145c0.283,65.325,0.065,103.481-0.066,126.279      c-0.194,33.787-0.194,33.787,2.289,37.242c2.274,3.234,5.981,5.165,9.913,5.165h253.978c6.693,0,12.137-5.453,12.137-12.158      V136.115C397.108,131.098,394.091,126.667,389.436,124.83z M393.451,292.652c0,4.687-3.804,8.502-8.481,8.502H130.993      c-2.744,0-5.332-1.35-7.042-3.779c-1.66-2.308-1.691-2.353-1.505-34.952c0.132-22.805,0.351-60.972,0.066-126.309      c0-4.676,3.804-8.479,8.478-8.479c108.362,0.109,169.934,0.023,206.723-0.029c44.286-0.062,48.92-0.069,49.861,0.393      c0.141,0.069,0.294,0.143,0.506,0.228c3.262,1.285,5.37,4.381,5.37,7.888V292.652z"/>
				<path style="fill:#000E3F;" d="M377.134,135.868l-0.213-0.098c-1.52-0.774-1.521-0.772-46.084-0.712      c-33.335,0.045-89.129,0.123-187.897,0.027c-6.158,0-11.167,5.009-11.167,11.167v136.268c0,6.169,5.008,11.187,11.167,11.187      h230.084c6.158,0,11.167-5.018,11.167-11.187V146.251C384.191,141.633,381.415,137.555,377.134,135.868z M380.535,282.519      c0,4.152-3.369,7.531-7.511,7.531H142.94c-4.142,0-7.511-3.379-7.511-7.531V146.251c0-4.14,3.369-7.511,7.509-7.511      c98.772,0.096,154.568,0.02,187.904-0.027c37.864-0.052,43.685-0.058,44.423,0.315c0.14,0.071,0.293,0.147,0.514,0.237      c2.889,1.138,4.756,3.881,4.756,6.986V282.519z"/>
				<path style="fill:#000E3F;" d="M233.803,203.247c1.124-2.423,1.088-5.443-0.562-7.549c-1.37-2.002-3.582-3.408-6.075-3.69      c-0.983-0.139-1.897-0.385-2.283-1.508c-0.036-0.317-0.105-0.633,0-0.95c0.386-2.633,4.952-1.685,4.39,0.879      c1.651,0.456,3.617,0.317,5.268,0.036h0.035c0.667-3.512-0.773-5.795-3.02-6.956c-2.248-1.016-5.514-1.333-7.797-0.385      c-4.495,1.863-6.638,8.253-2.317,12.363c0.667,0.56,1.439,1.016,2.388,1.194c1.966,0.385,4.741,0.702,5.021,2.95      c0.562,3.266-4.565,3.195-4.741,0.21c-1.58,0.035-3.722-0.21-5.373,0.035v0.106v0.104c-0.28,4.46,4.18,7.095,8.289,7.199      C229.905,207.393,232.679,206.128,233.803,203.247z"/>
				<path style="fill:#000E3F;" d="M247.07,206.866v-0.035c-0.281-15.346-0.315-17.91-0.175-18.577c0-0.036,0.034-0.071,0.034-0.106      h0.036h0.07c2.213-0.106,3.407-0.175,4.285,0c0.246-1.685,0.246-3.897,0.141-5.443c-4.811-0.527-10.045-0.352-14.82-0.317      c0,0.035,0.034,0.035,0.034,0.071c-0.175,2.212-0.034,5.162,0.141,5.514c0.562,0.175,3.126-0.142,4.214,0.421l0.036,0.036      c0.562,13.098,0.141,18.298,0.246,18.718c1.686-0.281,4.039,0.036,5.76-0.246V206.866z"/>
				<path style="fill:#000E3F;" d="M259.358,206.972c1.51,0.314,3.302,0.421,4.707,0.139v-0.036l-2.634-12.292      c-0.562-2.351-2.458-10.605-2.88-12.432c-3.09,0.281-3.653,0.071-4.32,0.175c-3.371,11.238-5.092,23.566-5.373,24.514      c0.036,0.035,0.036,0.035,0.071,0.035c3.195-0.035,4.531,0.142,4.917,0.036c0.034,0,0.07-0.036,0.105-0.036      c0.807-1.546,0.912-4.389,1.545-5.864c1.054,0,0.983-0.142,2.178,0.033c0.632,1.371,1.088,4.216,1.651,5.727H259.358z       M255.249,197.067c0.983-7.199,1.195-12.115,2.599,0C256.97,197.067,256.057,197.102,255.249,197.067z"/>
				<path style="fill:#000E3F;" d="M265.884,207.112c0.456-0.106,4.53,0.281,6.111-0.385c-0.106-1.791-0.457-6.464-0.176-8.57      l0.07,0.104c2.002,2.46,3.969,6.674,4.882,8.815h0.035c2.107,0.142,4.18-0.071,5.829-0.071h-0.034      c-1.405-3.862-4.285-7.128-6.251-10.605v-0.035h0.034h0.141c2.248-0.14,3.688-1.369,4.566-3.056      c2.914-4.88-0.668-10.957-6.216-11.238c-3.407-0.385-6.603,0.106-9.236,0.492C265.989,184.917,266.164,207.112,265.884,207.112z       M275.155,187.585c1.3,1.019,1.159,3.829-0.632,4.214c-1.124,0.177-2.458,0.106-3.546,0h-0.036      c-0.175-1.052-0.07-3.124-0.175-4.318C272.416,186.812,274.136,186.637,275.155,187.585z"/>
				<path style="fill:#000E3F;" d="M283.788,182.388c0,0.035,0.034,0.035,0.034,0.071c-0.175,2.212-0.034,5.162,0.141,5.514      c0.562,0.175,3.126-0.142,4.214,0.421l0.035,0.036c0.562,13.098,0.141,18.298,0.246,18.718c1.686-0.281,4.039,0.036,5.76-0.246      v-0.036v-0.035c-0.281-15.346-0.316-17.91-0.175-18.577c0-0.036,0.034-0.071,0.034-0.106h0.035h0.07      c2.213-0.106,3.407-0.175,4.285,0c0.246-1.685,0.246-3.897,0.141-5.443C293.797,182.177,288.564,182.352,283.788,182.388z"/>
				<path style="fill:#000E3F;" d="M239.929,232.197h-0.071c-0.948,0-6.005-0.598-7.199,0.139c-0.035,0.036-0.07,0.036-0.07,0.036      c-0.035,0-0.035,0-0.035,0.035v0.036c0.175,1.614-0.036,2.177,0.141,3.687c0.456,0.175,2.036-0.035,2.599,0.068      c0.281,0.106,0.07,1.723-0.035,2.108c-0.175,0.667-0.561,1.019-1.088,1.265c-0.668,0.246-1.475,0.421-2.178,0.317      c-0.316-0.071-0.597-0.177-0.807-0.317c-0.878-0.702-1.054-2.108-1.159-3.127c-0.281-3.51-0.141-7.866,0.527-10.113      c0.105-0.385,0.281-0.844,0.387-0.948c0.561-0.562,1.334-0.423,2.143-0.388c1.37,0,2.107,1.966,2.387,2.917      c1.405,0.175,1.932,0.104,3.302,0.104c0.737-0.036,1.019,0,1.124-0.139l0.035-0.211c0.667-5.724-3.758-8.324-8.99-7.657      c-1.265,0.177-2.459,0.492-3.407,1.3c-1.37,0.948-1.826,2.493-2.072,4.039c-0.246,1.51-0.317,3.092-0.352,4.599      c-0.105,3.479,0.071,5.058,0.352,8.043c0.105,0.948,0.28,1.933,0.421,2.458c0.562,2.002,1.44,3.337,3.302,4.145      c2.248,0.948,5.128,0.421,7.445-0.246c1.791-0.667,3.09-1.791,3.336-4.178c0.457-2.529,0.281-5.445,0-7.939L239.929,232.197z"/>
				<path style="fill:#000E3F;" d="M251.546,219.798c-3.09,0.281-3.652,0.071-4.32,0.175c-3.372,11.238-5.092,23.566-5.372,24.514      c0.034,0.036,0.034,0.036,0.07,0.036c3.195-0.036,4.531,0.142,4.917,0.035c0.034,0,0.07-0.035,0.105-0.035      c0.807-1.546,0.912-4.389,1.544-5.864c1.054,0,0.983-0.142,2.178,0.033c0.632,1.371,1.088,4.216,1.651,5.727h0.034      c1.51,0.314,3.302,0.421,4.707,0.139v-0.035l-2.634-12.292C253.864,229.878,251.967,221.625,251.546,219.798z M248.245,234.513      c0.983-7.199,1.195-12.115,2.6,0C249.966,234.513,249.053,234.549,248.245,234.513z"/>
				<path style="fill:#000E3F;" d="M273.383,220.08c-1.475,0-4.53,0.246-5.197,0.139c-0.842,1.09-1.791,5.585-2.071,5.481      c-0.071,0-0.141-0.035-0.212-0.106c-0.737-1.09-1.44-4.32-2.318-5.304h-0.035c-1.545,0.106-3.512-0.21-4.776,0.175      c-0.14,19.07-0.14,23.355,0.035,23.986c0.036,0.071,0.071,0.106,0.105,0.106c1.51,0,3.407,0.14,4.917-0.106      c-0.281-4.353-0.492-8.92-0.105-13.308c0.034-0.071,1.475,4.845,2.177,4.88c0.386,0,1.615-4.179,2.213-5.126      c0.456,3.933,0.316,9.657,0.492,13.661c1.124,0,3.231-0.139,4.636,0.036l0.105-11.203      C273.595,228.895,273.208,224.575,273.383,220.08z"/>
				<path style="fill:#000E3F;" d="M290.726,239.781c-3.197,0.106-6.111-0.175-9.201-0.175l-0.035-0.035      c-0.105-1.125-0.246-3.021,0-4.389c0.492-0.387,2.809,0,4.25-0.387c-0.036-1.721,0.175-3.302-0.071-4.88v-0.036      c-1.44-0.035-2.914,0-4.319-0.106l-0.036-0.036c-0.315-1.264,0-2.739-0.034-4.108l0.034-0.035h0.105      c3.091-0.281,6.217,0.246,9.202-0.421v-0.036c0-1.652,0.246-3.337,0-4.987c0-0.21-9.096-0.071-14.54,0.21      c-0.456,8.043-0.035,15.873-0.035,24.022c4.531,0.385,9.623,0.035,14.399,0.068c0.387-1.404,0.387-3.089,0.281-4.599V239.781z"/>
			</g>
		</g>
		<g>
			<g>
				<g>
					<path style="fill:#4217A6;" d="M127.269,352.848c0,6.722,15.239,12.171,34.039,12.171c18.799,0,34.038-5.449,34.038-12.171       s-15.239-12.171-34.038-12.171C142.509,340.676,127.269,346.126,127.269,352.848z"/>
					<g>
						<path style="fill:#FC09B2;" d="M186.137,334.234c0.003-0.053,0.025-0.105,0.025-0.159c0-0.058-0.022-0.113-0.025-0.171v-0.151        h-0.022c-0.49-4.628-11.405-8.343-24.808-8.343c-13.427,0-24.318,3.715-24.808,8.343h-0.047v13.318        c0,4.778,11.115,8.664,24.855,8.664c13.714,0,24.854-3.887,24.854-8.664c0-0.074,0-0.174-0.025-0.248V334.234z"/>
						<path style="fill:#FC09B2;" d="M177.464,271.533c0,7.575-5.203,13.94-12.246,15.658c-1.258,0.339-2.565,0.508-3.921,0.508        s-2.638-0.169-3.896-0.484c-2.42-0.581-4.598-1.719-6.438-3.267c-3.557-2.977-5.808-7.43-5.808-12.415        c0-8.93,7.237-16.167,16.142-16.167c1.355,0,2.686,0.169,3.969,0.484C172.285,257.617,177.464,263.958,177.464,271.533z"/>
					</g>
					<path style="opacity:0.25;fill:#000E3F;" d="M177.463,271.535c0,8.933-7.231,16.164-16.164,16.164       c-3.94,0-7.555-1.41-10.344-3.745c16.747-6.842,16.488-19.876,14.299-28.096C172.275,257.625,177.463,263.964,177.463,271.535z       "/>
					<path style="opacity:0.5;fill:#FFFFFF;" d="M153.067,264.905c2.698-3.221,6.999-3.984,9.983-2.549       c1.247,0.6,1.192,2.398-0.079,2.927c-10.36,4.31-6.589,11.622-10.272,10.398C150.854,275.067,149.467,269.163,153.067,264.905z       "/>
					<path style="fill:#FFFFFF;" d="M165.218,287.192v42.813c0,2.154-1.743,3.921-3.921,3.921c-2.154,0-3.896-1.767-3.896-3.921       v-42.788c1.258,0.315,2.541,0.484,3.896,0.484S163.96,287.531,165.218,287.192z"/>
				</g>
				<path style="fill:#000E3F;" d="M187.967,343.267v-8.882c0.024-0.097,0.024-0.218,0.024-0.315c0-0.097,0-0.218-0.024-0.315      c-0.339-5.687-9.995-9.051-20.91-9.922v-35.238c7.115-2.42,12.222-9.148,12.222-17.062c0-8.253-5.566-15.441-13.577-17.449      c-1.404-0.363-2.88-0.533-4.405-0.533c-9.898,0-17.982,8.059-17.982,17.982c0,5.324,2.372,10.383,6.462,13.819      c1.719,1.428,3.679,2.517,5.784,3.219v35.262c-10.649,0.847-20.087,4.066-20.861,9.487c-0.024,0.024-0.024,0.073-0.024,0.121      c-0.048,0.097-0.048,0.194-0.048,0.315v9.511c-5.566,2.324-9.197,5.542-9.197,9.584c0,9.1,18.49,13.988,35.867,13.988      c17.401,0,35.867-4.888,35.867-13.988C197.164,348.809,193.534,345.59,187.967,343.267z M152.125,282.545      c-3.267-2.735-5.155-6.752-5.155-11.012c0-7.914,6.438-14.327,14.327-14.327c1.21,0,2.396,0.145,3.509,0.411      c6.365,1.622,10.818,7.333,10.818,13.916c0,5.857-3.509,10.891-8.567,13.117c-1.137,0.508-2.372,0.871-3.654,1.041      c-0.678,0.121-1.379,0.169-2.106,0.169c-0.702,0-1.404-0.049-2.081-0.169c-1.258-0.17-2.493-0.508-3.654-1.041      C154.327,284.142,153.166,283.416,152.125,282.545z M159.216,289.394c0.678,0.097,1.379,0.145,2.081,0.145      s1.404-0.048,2.106-0.145v34.245v3.655v2.71c0,0.847-0.532,1.597-1.283,1.912h-1.621c-0.75-0.315-1.283-1.065-1.283-1.912v-2.71      v-3.655V289.394z M155.562,327.487v2.517c0,0.678,0.121,1.307,0.315,1.912c0.653,1.815,2.154,3.195,4.041,3.654      c0.436,0.121,0.895,0.169,1.379,0.169c0.484,0,0.944-0.048,1.38-0.169c1.04-0.242,1.96-0.774,2.71-1.501      c0.581-0.605,1.041-1.331,1.331-2.154c0.218-0.605,0.339-1.234,0.339-1.912v-2.517c7.672,0.653,13.238,2.517,15.755,4.429      c0.992,0.75,1.525,1.476,1.525,2.154c0,0.436-0.242,0.944-0.774,1.501c-1.041,1.065-3.122,2.275-6.389,3.267      c-1.065,0.315-2.178,0.605-3.364,0.871c-3.751,0.774-8.059,1.21-12.512,1.21s-8.785-0.436-12.512-1.21      c-1.186-0.266-2.299-0.557-3.34-0.871c-3.267-0.992-5.349-2.202-6.365-3.267c-0.533-0.556-0.799-1.065-0.799-1.501      c0-0.678,0.532-1.404,1.525-2.154C142.323,330.004,147.89,328.116,155.562,327.487z M138.282,339.588      c0.823,0.557,1.791,1.089,2.88,1.549c0.968,0.436,2.057,0.823,3.219,1.186c1.355,0.412,2.807,0.774,4.356,1.089      c3.824,0.75,8.132,1.162,12.561,1.162c4.405,0,8.737-0.411,12.561-1.162c1.549-0.29,3.025-0.653,4.38-1.065      c1.186-0.363,2.251-0.75,3.243-1.186c0,0,0,0,0.024,0c1.065-0.484,2.009-0.992,2.808-1.525v2.299v3.921v0.968      c0,0.097,0,0.193,0.024,0.29c-0.097,2.783-9.051,6.801-23.04,6.801c-14.037,0-23.016-4.066-23.016-6.849v-1.21v-3.896V339.588z       M161.297,363.184c-18.417,0-32.212-5.445-32.212-10.334c0-1.864,2.033-3.824,5.566-5.542      c0.29,6.752,13.577,10.261,26.646,10.261c13.093,0,26.331-3.509,26.67-10.237c3.533,1.694,5.542,3.654,5.542,5.518      C193.51,357.739,179.739,363.184,161.297,363.184z"/>
			</g>
			<g>
				<g>
					<ellipse style="fill:#4217A6;" cx="297.121" cy="355.176" rx="27.526" ry="9.843"/>
					<path style="fill:#FC09B2;" d="M317.2,340.123c0.002-0.043,0.02-0.085,0.02-0.128c0-0.047-0.017-0.092-0.02-0.138v-0.122       h-0.018c-0.397-3.743-9.223-6.747-20.062-6.747c-10.858,0-19.666,3.004-20.062,6.747h-0.038v10.77       c0,3.864,8.989,7.007,20.099,7.007c11.091,0,20.099-3.143,20.099-7.007c0-0.06,0-0.14-0.02-0.2V340.123z"/>
				</g>
				<path style="fill:#000E3F;" d="M319.019,347.236v-6.849c0.024-0.121,0.024-0.266,0.024-0.387c0-0.097,0-0.17-0.024-0.266      c-0.315-5.639-11.181-8.567-21.902-8.567c-10.479,0-21.104,2.807-21.878,8.204c-0.024,0.194-0.048,0.411-0.048,0.629v7.236      c-4.501,1.936-7.43,4.598-7.43,7.938c0,7.575,15.126,11.665,29.356,11.665c14.23,0,29.356-4.09,29.356-11.665      C326.473,351.81,323.52,349.172,319.019,347.236z M297.116,334.82c7.962,0,13.48,1.549,16.239,3.098      c1.355,0.75,2.033,1.5,2.033,2.082c0,0.363-0.363,0.92-1.258,1.573c-0.871,0.629-2.251,1.331-4.284,1.936      c-0.847,0.266-1.767,0.484-2.735,0.678c-6.05,1.259-13.988,1.259-19.99,0c-0.968-0.194-1.864-0.411-2.711-0.678      c-2.033-0.605-3.436-1.307-4.308-1.936c-0.895-0.653-1.258-1.21-1.258-1.573c0-0.581,0.702-1.331,2.033-2.082      C283.636,336.369,289.178,334.82,297.116,334.82z M278.844,345.13c0.29,0.17,0.629,0.363,0.992,0.532      c0.968,0.484,2.106,0.944,3.485,1.355c1.089,0.339,2.251,0.605,3.509,0.871c3.122,0.605,6.655,0.944,10.286,0.944      c3.63,0,7.164-0.339,10.286-0.944c1.258-0.266,2.42-0.532,3.509-0.871c1.379-0.411,2.517-0.871,3.485-1.355      c0.339-0.169,0.677-0.339,0.968-0.532v0.799v3.8v0.581c0,0.073,0.024,0.169,0.024,0.242c-0.145,1.791-6.583,5.131-18.272,5.131      c-11.81,0-18.272-3.412-18.272-5.179v-0.774v-3.775V345.13z M297.116,363.184c-15.925,0-25.702-4.671-25.702-8.011      c0-1.234,1.331-2.662,3.824-3.945c0.896,5.324,11.447,8.108,21.878,8.108c10.431,0,20.983-2.783,21.878-8.108      c2.493,1.283,3.824,2.711,3.824,3.945C322.818,358.514,313.041,363.184,297.116,363.184z"/>
			</g>
			<g>
				<g>
					<ellipse style="fill:#4217A6;" cx="365.307" cy="342.784" rx="27.526" ry="9.843"/>
					<path style="fill:#FC09B2;" d="M385.386,327.732c0.002-0.043,0.02-0.085,0.02-0.128c0-0.047-0.017-0.092-0.02-0.138v-0.122       h-0.018c-0.397-3.743-9.223-6.747-20.062-6.747c-10.858,0-19.666,3.004-20.062,6.747h-0.038v10.77       c0,3.864,8.989,7.007,20.099,7.007c11.091,0,20.099-3.143,20.099-7.007c0-0.06,0-0.14-0.02-0.2V327.732z"/>
				</g>
				<path style="fill:#000E3F;" d="M387.219,334.844v-6.849c0.024-0.121,0.024-0.266,0.024-0.387c0-0.097,0-0.169-0.024-0.266      c-0.315-5.639-11.181-8.567-21.902-8.567c-10.431,0-20.959,2.759-21.854,8.084c-0.024,0.072-0.024,0.145-0.048,0.218      c-0.024,0.169-0.024,0.339-0.024,0.533v7.236c-4.501,1.936-7.43,4.598-7.43,7.938c0,7.575,15.126,11.665,29.356,11.665      s29.356-4.09,29.356-11.665C394.673,339.418,391.72,336.781,387.219,334.844z M365.316,322.429      c7.914,0,13.408,1.525,16.191,3.074c1.379,0.75,2.081,1.525,2.081,2.106c0,0.314-0.315,0.895-1.234,1.573      c-0.847,0.605-2.202,1.307-4.332,1.936c-0.847,0.266-1.743,0.484-2.711,0.678c-6.05,1.259-14.013,1.259-20.015,0      c-0.968-0.194-1.864-0.411-2.711-0.678c-2.13-0.629-3.485-1.331-4.308-1.936c-0.92-0.677-1.235-1.258-1.235-1.573      c0-0.581,0.702-1.331,2.057-2.106C351.86,323.954,357.378,322.429,365.316,322.429z M347.044,332.739      c0.29,0.169,0.629,0.363,0.992,0.532c0.968,0.484,2.106,0.944,3.485,1.355c1.089,0.339,2.275,0.629,3.509,0.871      c3.122,0.605,6.655,0.944,10.286,0.944c3.606,0,7.139-0.339,10.261-0.944c1.258-0.266,2.42-0.532,3.509-0.871      c1.379-0.411,2.517-0.871,3.485-1.355c0.363-0.169,0.678-0.339,0.992-0.532v0.798v3.8v0.823      c-0.121,1.791-6.559,5.131-18.248,5.131c-11.835,0-18.272-3.412-18.272-5.179v-0.774v-3.775V332.739z M365.316,350.793      c-15.925,0-25.702-4.671-25.702-8.011c0-1.234,1.331-2.662,3.824-3.945c0.895,5.324,11.423,8.108,21.878,8.108      c10.431,0,20.983-2.783,21.854-8.108c2.493,1.283,3.824,2.711,3.824,3.945C390.994,346.122,381.217,350.793,365.316,350.793z"/>
			</g>
		</g>
	</g>
	<g>
		<path style="fill:#FD8A02;" d="M62.495,435.45c2.335-2.458,4.431-4.472,5.303-6.584c0.864-2.095-1.623-3.964-3.271-2.697    c-2.697,2.071-5.653,6.751-6.474,6.441c-0.809-0.306-0.448-1.412-0.459-2.183c-0.057-4.286,0.262-6.903-0.282-9.702    c-0.413-2.125-3.886-1.827-4.313,0.012c-0.412,1.776-0.188,3.768-0.319,12.949c-0.043,3.043-2.486,0.746-5.806-1.438    c-1.884-1.24-4.793-2.097-5.721-0.052c-0.766,1.687,0.722,2.713,2.249,3.782c8.04,5.63,8.211,4.044-3.31,7.241    c-2.116,0.587-4.668,1.493-3.924,3.631c0.758,2.181,3.226,1.267,8.213,0.143c0.656-0.148,1.27-0.512,1.929-0.607    c1.455-0.21,2.815-0.965,4.34-0.759c0.25,1.793-1.323,2.75-1.941,4.147c-0.991,2.24-2.867,3.288-2.347,5.839    c0.203,0.993,1.216,1.62,2.137,1.243c4.496-1.841,5.519-9.299,7.435-5.157c2.475,5.353,2.851,6.683,4.325,8.686    c1.391,1.89,4.056,0.651,3.617-1.634c-0.728-3.789-4.484-10.205-3.751-10.917c0.764-0.743,7.516,5.287,10.139,5.376    c1.895,0.064,2.747-1.582,1.854-2.982c-1.358-2.13-2.549-2.541-7.882-6.261c-0.414-0.289-1.018-0.575-0.791-1.215    c0.203-0.572,0.841-0.615,1.359-0.692c2.622-0.384,8.544-1.165,8.816-1.242c2.563-0.726,2.207-4.853-0.718-4.549    c-10.164,1.056-12.858,2.37-10.344-0.762C62.536,435.488,62.516,435.469,62.495,435.45z"/>
		<path style="fill:#FD8A02;" d="M63.06,298.649c3.254-3.626,7.849-8.087,4.896-10.35c-2.058-1.577-3.564,0.314-5.452,2.487    c-1.082,1.245-3.762,5.088-4.49,4.836c-0.995-0.345-0.379-0.866-0.747-9.659c-0.108-2.574-0.33-5.528-2.876-5.161    c-3.475,0.502-2.54,1.746-2.337,16.191c0.048,3.396-2.75,0.911-6.523-1.421c-2.142-1.324-5.412-2.186-6.384,0.124    c-0.803,1.911,0.902,3.01,2.629,4.148c9.146,6.026,9.289,4.25-3.463,8.182c-2.342,0.722-5.16,1.813-4.262,4.175    c1.549,4.079,12.468-2.21,16.115-1.822c0.336,1.993-1.388,3.11-2.034,4.688c-1.035,2.53-3.096,3.753-2.433,6.588    c0.69,2.954,4.063,0.952,5.798-1.6c4.472-6.577,2.965-6.267,8.145,3.832c1.037,2.021,2.51,4.423,4.516,3.397    c2.161-1.106,1.055-3.649,0.007-6.09c-4.654-10.831-6.199-10.859,5.171-4.008c5.021,3.026,8.153-1.365,1.647-5.419    c-9.665-6.023-8.964-5.184,2.439-7.09c1.072-0.179,4.722-0.227,3.972-3.619c-0.276-1.25-1.249-2.012-2.7-1.82    c-11.294,1.499-14.269,3.058-11.564-0.523C63.106,298.69,63.083,298.669,63.06,298.649z"/>
		<path style="fill:#FD8A02;" d="M463.02,138.999c3.254-3.626,7.849-8.087,4.896-10.35c-2.058-1.577-3.564,0.313-5.452,2.487    c-1.082,1.245-3.762,5.088-4.49,4.836c-0.995-0.345-0.379-0.866-0.747-9.659c-0.108-2.574-0.33-5.528-2.876-5.161    c-3.475,0.502-2.541,1.745-2.338,16.191c0.048,3.396-2.75,0.911-6.523-1.421c-2.142-1.324-5.412-2.187-6.384,0.123    c-0.803,1.911,0.902,3.01,2.629,4.148c9.146,6.026,9.289,4.251-3.463,8.182c-2.342,0.722-5.16,1.813-4.262,4.175    c1.549,4.079,12.468-2.21,16.115-1.822c0.335,1.993-1.388,3.11-2.034,4.688c-1.035,2.53-3.096,3.753-2.433,6.588    c0.69,2.954,4.063,0.951,5.798-1.601c4.472-6.577,2.965-6.267,8.145,3.832c1.038,2.021,2.51,4.423,4.516,3.396    c2.161-1.106,1.055-3.649,0.007-6.09c-4.655-10.831-6.199-10.859,5.171-4.008c5.021,3.025,8.153-1.366,1.647-5.42    c-9.665-6.023-8.964-5.184,2.44-7.09c1.072-0.179,4.722-0.226,3.972-3.619c-0.276-1.25-1.249-2.013-2.7-1.82    c-11.294,1.498-14.27,3.058-11.564-0.523C463.066,139.04,463.043,139.02,463.02,138.999z"/>
		<path style="fill:#FD8A02;" d="M25.884,372.322c3.178-0.296,5.911-0.425,7.837-1.382c1.91-0.95,1.305-3.815-0.648-3.938    c-3.193-0.202-8.19,1.283-8.579,0.555c-0.384-0.719,0.557-1.279,1.027-1.832c2.614-3.073,4.462-4.73,5.81-7.052    c1.023-1.762-1.622-3.702-3.065-2.663c-1.39,1.001-2.455,2.54-8.248,8.981c-1.916,2.13-2.224-1.011-3.224-4.617    c-0.568-2.046-2.098-4.455-4.023-3.58c-1.592,0.723-1.166,2.38-0.749,4.074c2.211,8.97,3.316,7.952-6.831,3.082    c-1.864-0.894-4.234-1.833-5.031,0.144c-0.835,2.07,1.687,2.997,5.733,5.188c0.556,0.301,1.217,0.424,1.743,0.765    c1.161,0.753,2.593,1.06,3.546,2.15c-0.934,1.426-2.641,1.13-3.945,1.738c-2.09,0.973-4.069,0.554-5.28,2.685    c-0.471,0.83-0.141,1.902,0.745,2.205c4.324,1.478,9.673-3.174,8.465,0.95c-1.859,6.342-3.589,10.178-1.005,10.903    c1.971,0.553,2.744-1.655,3.493-3.767c3.33-9.395,2.367-10.327,5.498,0.481c1.334,4.606,5.865,3.948,4.124-2.412    c-2.536-9.275-2.57-8.338,5.571-2.992c0.53,0.348,1.027,0.761,1.595,1.03c2.265,1.073,4.572-2.071,2.309-3.668    c-7.828-5.526-10.605-6.277-6.86-6.949C25.889,372.375,25.887,372.349,25.884,372.322z"/>
		<path style="fill:#FD8A02;" d="M457.603,286.303c2.63,2.139,4.799,4.075,6.971,4.781c2.155,0.701,3.828-1.922,2.438-3.468    c-2.272-2.53-7.165-5.119-6.918-5.962c0.243-0.83,1.373-0.555,2.141-0.625c4.269-0.385,6.902-0.268,9.652-1.025    c2.087-0.575,1.523-4.014-0.343-4.3c-1.802-0.275-3.772,0.101-12.936,0.675c-3.037,0.19-0.935-2.422,0.989-5.899    c1.092-1.974,1.723-4.939-0.387-5.708c-1.741-0.635-2.65,0.928-3.599,2.532c-4.996,8.448-3.402,8.497-7.473-2.745    c-0.748-2.065-1.847-4.539-3.922-3.634c-2.117,0.924-1.016,3.313,0.487,8.199c0.198,0.642,0.608,1.227,0.753,1.876    c0.321,1.435,1.177,2.733,1.09,4.269c-1.769,0.387-2.843-1.107-4.284-1.617c-2.309-0.816-3.498-2.607-6.002-1.892    c-0.975,0.278-1.522,1.337-1.075,2.227c2.181,4.341,9.695,4.789,5.712,7.017c-5.148,2.879-6.445,3.355-8.328,4.978    c-1.777,1.532-0.338,4.095,1.906,3.481c3.721-1.017,9.831-5.253,10.597-4.577c0.799,0.705-4.695,7.899-4.582,10.521    c0.081,1.895,1.787,2.618,3.116,1.62c2.02-1.517,2.338-2.736,5.638-8.339c0.257-0.435,0.496-1.059,1.151-0.882    c0.585,0.159,0.678,0.791,0.794,1.302c0.585,2.585,1.817,8.43,1.914,8.695c0.92,2.501,5.008,1.828,4.48-1.064    c-1.833-10.053-3.349-12.639-0.033-10.373C457.569,286.346,457.586,286.324,457.603,286.303z"/>
		<path style="fill:#FD8A02;" d="M498.528,219.109c3.027,2.323,6.787,5.644,8.377,3.201c1.108-1.702-0.459-2.764-2.269-4.108    c-1.038-0.77-4.199-2.633-4.046-3.216c0.21-0.797,0.654-0.348,7.498-1.164c2.003-0.239,4.297-0.59,3.858-2.556    c-0.6-2.683-1.516-1.879-12.785-0.853c-2.649,0.242-0.876-2.092,0.718-5.179c0.905-1.752,1.383-4.358-0.48-4.978    c-1.541-0.512-2.297,0.885-3.082,2.302c-4.157,7.505-2.761,7.51-6.598-2.213c-0.705-1.785-1.726-3.921-3.517-3.078    c-3.092,1.455,2.475,9.604,2.391,12.476c-1.536,0.382-2.512-0.897-3.784-1.306c-2.038-0.657-3.117-2.192-5.291-1.505    c-2.265,0.716-0.499,3.23,1.599,4.432c5.405,3.097,5.072,1.939-2.503,6.591c-1.516,0.932-3.303,2.226-2.381,3.731    c0.993,1.622,2.913,0.605,4.756-0.36c8.179-4.286,8.108-5.494,3.441,3.798c-2.061,4.103,1.556,6.285,4.331,0.961    c4.123-7.91,3.511-7.312,5.684,1.479c0.204,0.826,0.46,3.674,3.065,2.885c0.959-0.291,1.496-1.096,1.259-2.218    c-1.848-8.731-3.245-10.961-0.286-9.063C498.498,219.147,498.513,219.128,498.528,219.109z"/>
	</g>
</g>















</svg>
