<?xml version="1.0" encoding="UTF-8"?>
<!-- Generator: Adobe Illustrator 25.3.1, SVG Export Plug-In . SVG Version: 6.00 Build 0)  -->
<svg xmlns="http://www.w3.org/2000/svg" xmlns:xlink="http://www.w3.org/1999/xlink" version="1.1" id="Capa_1" x="0px" y="0px" viewBox="0 0 512 512" style="enable-background:new 0 0 512 512;" xml:space="preserve" width="512" height="512">
<g>
	<g>
		<g>
			<path style="fill:#915EFD;" d="M301.772,10.855l165.188,373.129c3.44,7.769-0.055,16.858-7.844,20.306L222.597,509     c-7.496,3.318-16.246,0.165-19.932-7.052c-0.16-0.256-0.281-0.529-0.402-0.803L37.075,128.016     c-3.44-7.77,0.074-16.866,7.844-20.306l236.52-104.71c3.338-1.478,6.96-1.681,10.245-0.801     C296.007,3.368,299.811,6.424,301.772,10.855z"/>
			<path style="fill:#FC09B2;" d="M466.961,383.984l-19.722-44.547L182.55,456.617l19.713,44.528     c3.44,7.769,12.564,11.294,20.334,7.854l236.519-104.71C466.906,400.842,470.4,391.754,466.961,383.984z"/>
			<g style="opacity:0.25;">
				<path style="fill:#000E3F;" d="M301.772,10.855l165.188,373.129c3.44,7.769-0.055,16.858-7.844,20.306L222.597,509      c-7.496,3.318-16.246,0.165-19.932-7.052c1.699-7.5,6.522-14.538,12.562-19.827c11.104-9.725,13.818-9.713,154.439-71.36      c47.76-20.957,53.372-40.975,41.337-70.692C339.672,164.109,306.529,93.568,292.311,60.938      c-12.822-29.427-8.471-48.393-0.627-58.738C296.007,3.368,299.811,6.424,301.772,10.855z"/>
			</g>
			<path style="fill:#FC09B2;" d="M357.619,187.462L290.942,36.85c-1.634-3.691-5.951-5.358-9.642-3.724L67.334,127.851     c-3.691,1.634-5.359,5.951-3.725,9.642l66.678,150.612c1.634,3.691,5.951,5.359,9.642,3.725l213.966-94.725     C357.586,195.47,359.253,191.153,357.619,187.462z"/>
			<g>
				<path style="fill:#FFCF00;" d="M203.636,293.794c-7.165-0.409-14.524,0.836-21.525,3.935      c-23.655,10.473-34.339,38.132-23.867,61.787c7.61,17.19,24.287,27.534,41.914,27.872c6.638,0.144,13.408-1.143,19.873-4.006      c23.655-10.473,34.339-38.132,23.867-61.787C236.524,304.942,220.637,294.73,203.636,293.794z"/>
				<path style="fill:#FFCF00;" d="M391.693,256.165c-7.373-16.654-23.26-26.866-40.261-27.802      c-7.165-0.409-14.524,0.836-21.525,3.935c-23.655,10.472-34.339,38.131-23.867,61.787c7.61,17.19,24.287,27.534,41.914,27.872      c6.638,0.144,13.408-1.143,19.873-4.006C391.481,307.48,402.166,279.821,391.693,256.165z"/>
			</g>
			<g style="opacity:0.5;">
				<path style="fill:#FD8A02;" d="M243.897,321.596c10.472,23.655-0.212,51.314-23.867,61.787      c-6.465,2.862-13.235,4.149-19.873,4.006c45.382-35.039,18.248-76.492,3.479-93.594      C220.637,294.73,236.524,304.942,243.897,321.596z"/>
				<path style="fill:#FD8A02;" d="M391.693,256.166c10.472,23.655-0.212,51.314-23.867,61.787      c-6.465,2.862-13.235,4.149-19.873,4.006c45.382-35.039,18.248-76.492,3.479-93.594      C368.433,229.3,384.32,239.511,391.693,256.166z"/>
			</g>
			<g>
				<path style="fill:#4217A6;" d="M349.696,248.564c-2.178-4.919-7.377-7.565-12.446-6.681c-0.925,0.145-1.849,0.412-2.751,0.811      c-5.806,2.57-8.432,9.369-5.855,15.19c1.805,4.077,5.694,6.596,9.872,6.813c1.766,0.119,3.575-0.187,5.303-0.952      C349.639,261.168,352.266,254.369,349.696,248.564z"/>
				<path style="fill:#4217A6;" d="M356.649,285.701c-0.925,0.145-1.849,0.412-2.751,0.811c-5.806,2.57-8.432,9.369-5.855,15.19      c1.805,4.077,5.694,6.596,9.872,6.813c1.766,0.119,3.575-0.187,5.303-0.952c5.821-2.577,8.447-9.376,5.876-15.181      C366.917,287.463,361.717,284.818,356.649,285.701z"/>
				<path style="fill:#4217A6;" d="M381.305,260.773c-2.178-4.919-7.377-7.565-12.446-6.681c-0.925,0.145-1.849,0.412-2.751,0.811      c-5.806,2.57-8.432,9.369-5.855,15.19c1.805,4.077,5.694,6.596,9.872,6.813c1.766,0.119,3.575-0.187,5.303-0.952      C381.249,273.378,383.875,266.579,381.305,260.773z"/>
				<path style="fill:#4217A6;" d="M325.04,273.491c-0.925,0.145-1.849,0.412-2.751,0.811c-5.806,2.57-8.432,9.369-5.855,15.19      c1.805,4.077,5.694,6.596,9.872,6.813c1.766,0.119,3.575-0.187,5.303-0.952c5.821-2.577,8.447-9.376,5.876-15.181      C335.308,275.253,330.108,272.608,325.04,273.491z"/>
			</g>
			<g>
				<path style="fill:#00D5FE;" d="M338.305,182.417L281.698,54.553c-0.129-0.293-0.27-0.558-0.469-0.796      c-1.278-1.885-3.757-2.633-5.924-1.673L85.383,136.164c-2.44,1.08-3.558,3.933-2.469,6.393l56.607,127.864      c0.311,0.703,0.781,1.289,1.333,1.745c1.37,1.144,3.323,1.494,5.06,0.725l189.922-84.08      C338.295,187.721,339.386,184.857,338.305,182.417z"/>
				<path style="fill:#00D5FE;" d="M289.889,369.547c-1.922-0.742-4.113-0.75-6.138,0.147l-19.999,8.854      c-4.05,1.793-5.881,6.533-4.088,10.583c0.896,2.025,2.523,3.493,4.445,4.235c0.487,0.188,0.976,0.332,1.485,0.426      c0.026,0.01,0.018-0.008,0.018-0.008c1.518,0.263,3.126,0.103,4.636-0.565l19.999-8.854c4.049-1.793,5.881-6.534,4.088-10.583      C293.438,371.757,291.811,370.29,289.889,369.547z"/>
				<path style="fill:#00D5FE;" d="M345.437,351.158c-0.896-2.025-2.523-3.492-4.445-4.235c-1.922-0.742-4.113-0.749-6.138,0.147      l-19.999,8.854c-4.049,1.793-5.881,6.533-4.088,10.583c0.896,2.025,2.523,3.493,4.445,4.235      c0.487,0.188,0.975,0.332,1.485,0.426c0.026,0.01,0.018-0.008,0.018-0.008c1.518,0.262,3.126,0.103,4.635-0.565l19.999-8.854      C345.399,359.948,347.23,355.208,345.437,351.158z"/>
				<path style="fill:#00D5FE;" d="M302.17,328.26c-1.922-0.742-4.113-0.749-6.138,0.147l-19.999,8.854      c-4.049,1.793-5.881,6.534-4.088,10.583c0.896,2.025,2.523,3.493,4.445,4.235c0.487,0.188,0.975,0.332,1.485,0.426      c0.026,0.01,0.018-0.008,0.018-0.008c1.518,0.262,3.126,0.103,4.636-0.565l19.999-8.854c4.05-1.793,5.881-6.533,4.088-10.583      C305.719,330.47,304.092,329.002,302.17,328.26z"/>
			</g>
			<g>
				<path style="fill:#FFFFFF;" d="M276.433,277.9c-0.359-0.541-0.43-1.224-0.188-1.827l5.031-12.545      c0.609-1.518-0.787-3.075-2.362-2.635l-13.018,3.638c-0.625,0.175-1.297,0.031-1.795-0.385l-10.376-8.662      c-1.255-1.048-3.168-0.202-3.236,1.433l-0.563,13.504c-0.027,0.649-0.372,1.243-0.922,1.588l-11.444,7.192      c-1.385,0.87-1.17,2.95,0.362,3.52l12.67,4.709c0.609,0.226,1.067,0.738,1.226,1.367l3.303,13.106      c0.4,1.586,2.445,2.025,3.46,0.743l8.393-10.594c0.403-0.509,1.031-0.787,1.679-0.743l13.486,0.908      c1.631,0.11,2.681-1.699,1.776-3.061L276.433,277.9z"/>
				<path style="fill:#FFFFFF;" d="M201.202,110.907c-10.65,1.971-21.135,8.332-23.531,10.908      c-4.542,4.885,2.048,11.413,6.385,13.415c12.119,5.593,30.125-7.795,23.832-21.08      C206.716,111.673,204.47,110.302,201.202,110.907z"/>
				<path style="fill:#FFFFFF;" d="M273.422,191.124c2.78-1.231,4.036-4.482,2.806-7.263c-1.231-2.78-4.483-4.036-7.263-2.805      c-2.78,1.231-4.036,4.482-2.806,7.263C267.39,191.098,270.642,192.355,273.422,191.124z"/>
				<path style="fill:#FFFFFF;" d="M297.233,121.274c-1.231-2.78-4.483-4.036-7.263-2.806c-2.78,1.231-4.036,4.482-2.806,7.263      c1.231,2.78,4.482,4.036,7.263,2.806C297.208,127.306,298.464,124.054,297.233,121.274z"/>
				<path style="fill:#FFFFFF;" d="M185.142,218.165c-2.78,1.231-4.036,4.482-2.805,7.263c1.231,2.78,4.482,4.036,7.263,2.806      c2.78-1.231,4.036-4.483,2.806-7.263C191.174,218.19,187.922,216.934,185.142,218.165z"/>
				<path style="fill:#FFFFFF;" d="M124.687,191.641c-2.78,1.231-4.036,4.483-2.806,7.263c1.231,2.78,4.483,4.036,7.263,2.806      c2.78-1.231,4.036-4.482,2.806-7.263S127.467,190.411,124.687,191.641z"/>
			</g>
			<g>
				<path style="fill:#FFCF00;" d="M131.505,153.555l-7.182-3.147c-0.332-0.145-0.571-0.445-0.639-0.801l-1.479-7.7      c-0.172-0.896-1.298-1.206-1.904-0.524l-5.212,5.858c-0.241,0.271-0.6,0.406-0.959,0.361l-7.781-0.973      c-0.906-0.113-1.548,0.861-1.087,1.649l3.961,6.767c0.183,0.313,0.201,0.696,0.047,1.024l-3.329,7.099      c-0.387,0.826,0.341,1.738,1.232,1.543l7.66-1.676c0.354-0.078,0.723,0.024,0.988,0.272l5.723,5.36      c0.666,0.624,1.759,0.213,1.849-0.695l0.773-7.803c0.036-0.361,0.247-0.681,0.564-0.856l6.866-3.787      C132.394,155.087,132.341,153.921,131.505,153.555z"/>
				<path style="fill:#FFCF00;" d="M158.618,246.805l-1.783-6.4c-0.082-0.296-0.014-0.613,0.183-0.849l4.262-5.097      c0.496-0.593,0.097-1.498-0.676-1.531l-6.638-0.283c-0.307-0.013-0.588-0.176-0.751-0.436l-3.53-5.628      c-0.411-0.655-1.395-0.555-1.665,0.17l-2.32,6.225c-0.107,0.288-0.349,0.504-0.647,0.579l-6.444,1.618      c-0.75,0.188-0.959,1.155-0.353,1.636l5.204,4.13c0.241,0.191,0.372,0.488,0.351,0.795l-0.452,6.628      c-0.053,0.772,0.802,1.268,1.447,0.841l5.536-3.673c0.256-0.17,0.579-0.203,0.864-0.088l6.164,2.478      C158.089,248.21,158.826,247.55,158.618,246.805z"/>
				<path style="fill:#FFCF00;" d="M281.494,85.448L274,83.14c-0.346-0.107-0.618-0.377-0.727-0.723l-2.347-7.482      c-0.273-0.871-1.427-1.05-1.952-0.304l-4.511,6.414c-0.208,0.296-0.549,0.472-0.912,0.468l-7.841-0.08      c-0.913-0.009-1.44,1.032-0.892,1.762l4.706,6.272c0.217,0.29,0.278,0.668,0.163,1.012l-2.499,7.432      c-0.291,0.865,0.537,1.688,1.4,1.393l7.419-2.538c0.343-0.117,0.722-0.058,1.013,0.158l6.296,4.673      c0.733,0.544,1.771,0.011,1.757-0.901l-0.121-7.84c-0.006-0.362,0.168-0.705,0.463-0.915l6.39-4.544      C282.552,86.869,282.366,85.717,281.494,85.448z"/>
				<path style="fill:#FFCF00;" d="M304.459,175.051l3.54,5.622c0.412,0.654,1.396,0.552,1.665-0.173l2.309-6.229      c0.107-0.288,0.348-0.505,0.646-0.58l6.441-1.629c0.75-0.189,0.957-1.157,0.35-1.636l-5.211-4.121      c-0.241-0.191-0.373-0.488-0.352-0.794l0.441-6.629c0.051-0.772-0.804-1.267-1.448-0.839l-5.53,3.682      c-0.255,0.17-0.579,0.204-0.864,0.09l-6.168-2.468c-0.718-0.287-1.454,0.374-1.245,1.118l1.793,6.397      c0.083,0.296,0.015,0.613-0.182,0.849l-4.253,5.104c-0.495,0.594-0.094,1.498,0.679,1.53l6.638,0.271      C304.014,174.628,304.295,174.791,304.459,175.051z"/>
				<path style="fill:#FFCF00;" d="M222.492,211.662c0.259,0.254,0.375,0.619,0.313,0.976l-1.357,7.723      c-0.158,0.899,0.784,1.589,1.593,1.167l6.955-3.621c0.321-0.167,0.705-0.166,1.025,0.004l6.926,3.676      c0.806,0.428,1.753-0.254,1.603-1.154l-1.295-7.734c-0.06-0.358,0.06-0.722,0.321-0.974l5.637-5.451      c0.656-0.635,0.3-1.746-0.603-1.881l-7.755-1.159c-0.358-0.054-0.668-0.28-0.827-0.606l-3.442-7.045      c-0.401-0.82-1.568-0.825-1.975-0.008l-3.498,7.017c-0.162,0.324-0.473,0.548-0.832,0.599l-7.764,1.096      c-0.904,0.128-1.269,1.236-0.618,1.876L222.492,211.662z"/>
			</g>
			<g>
				<path style="fill:#FC09B2;" d="M231.004,317.238c-0.81-1.831-2.951-2.657-4.781-1.847l-15.301,6.774      c-1.831,0.81-3.971-0.016-4.782-1.847l-6.774-15.3c-0.81-1.83-2.951-2.657-4.782-1.847l-16.833,7.452      c-1.83,0.811-2.657,2.951-1.847,4.782l6.774,15.301c0.811,1.83-0.016,3.971-1.847,4.781l-15.3,6.774      c-1.831,0.81-2.657,2.951-1.847,4.782l7.452,16.833c0.81,1.831,2.951,2.657,4.782,1.847l15.301-6.774      c1.83-0.81,3.971,0.017,4.781,1.847l6.774,15.3c0.81,1.83,2.951,2.657,4.782,1.847l16.833-7.452      c1.83-0.81,2.657-2.951,1.847-4.781l-6.774-15.301c-0.81-1.831,0.017-3.971,1.847-4.782l15.3-6.774      c1.83-0.81,2.657-2.951,1.847-4.782L231.004,317.238z"/>
				<path style="fill:#FC09B2;" d="M172.341,137.484c-7.79-0.837-18.159,4.06-20.702,11.843      c-3.298,10.095,12.201,13.294,23.375,3.897C183.172,146.364,180.053,138.312,172.341,137.484z"/>
				<path style="fill:#FC09B2;" d="M240.525,109.976c-7.471-3.349-18.067,1.035-22.685,7.365c-4.571,6.266-0.707,13.988,9.856,12.56      C242.165,127.946,250.216,114.321,240.525,109.976z"/>
			</g>
			<g style="opacity:0.25;">
				<g>
					<path style="fill:#4217A6;" d="M294.334,373.782c1.793,4.05-0.038,8.79-4.088,10.583l-19.999,8.854       c-1.51,0.668-3.117,0.828-4.636,0.565c3.128-1.236,6.326-2.312,8.895-4.426c4.168-3.396,5.981-9.042,5.894-14.42       c-0.012-1.227-0.121-2.432-0.291-3.631l3.641-1.612c2.025-0.896,4.216-0.889,6.138-0.147       C291.811,370.29,293.438,371.757,294.334,373.782z"/>
				</g>
				<g>
					<path style="fill:#4217A6;" d="M345.437,351.158c1.793,4.05-0.038,8.79-4.088,10.583l-19.999,8.854       c-1.51,0.668-3.117,0.828-4.636,0.565c3.128-1.236,6.326-2.312,8.895-4.427c4.168-3.396,5.981-9.042,5.894-14.42       c-0.012-1.227-0.12-2.432-0.291-3.631l3.641-1.612c2.025-0.896,4.216-0.889,6.138-0.147       C342.914,347.666,344.541,349.134,345.437,351.158z"/>
				</g>
				<g>
					<path style="fill:#4217A6;" d="M306.615,332.495c1.793,4.05-0.038,8.79-4.088,10.583l-19.999,8.854       c-1.51,0.668-3.117,0.828-4.636,0.565c3.128-1.236,6.326-2.312,8.895-4.427c4.168-3.396,5.981-9.042,5.894-14.42       c-0.012-1.227-0.12-2.432-0.291-3.631l3.641-1.612c2.025-0.896,4.216-0.889,6.138-0.147       C304.092,329.002,305.719,330.47,306.615,332.495z"/>
				</g>
				<g>
					<path style="fill:#4217A6;" d="M281.698,54.553l56.607,127.864c1.08,2.44-0.01,5.304-2.469,6.393l-189.922,84.08       c-1.737,0.769-3.69,0.42-5.06-0.725c0.575-19.796,42.115-37.136,54.726-42.929c27.166-12.47,55.18-22.864,82.49-34.955       c34.865-15.435,32.921-23.517,22.904-50.997c-8.496-23.252-32.009-59.117-19.743-89.528       C281.428,53.995,281.569,54.26,281.698,54.553z"/>
				</g>
			</g>
			<g style="opacity:0.25;">
				<path style="fill:#000E3F;" d="M349.696,248.564c2.57,5.806-0.056,12.604-5.876,15.181c-1.728,0.765-3.537,1.071-5.303,0.952      c5.621-9.732,2.118-18.005-1.266-22.815C342.318,240.999,347.518,243.644,349.696,248.564z"/>
				<path style="fill:#000E3F;" d="M369.095,292.382c2.57,5.806-0.056,12.604-5.876,15.181c-1.728,0.765-3.537,1.071-5.303,0.952      c5.621-9.732,2.118-18.005-1.266-22.815C361.717,284.818,366.917,287.463,369.095,292.382z"/>
				<path style="fill:#000E3F;" d="M381.305,260.773c2.57,5.806-0.056,12.604-5.876,15.181c-1.728,0.765-3.537,1.071-5.303,0.952      c5.621-9.732,2.118-18.005-1.266-22.814C373.927,253.209,379.127,255.854,381.305,260.773z"/>
				<path style="fill:#000E3F;" d="M337.486,280.173c2.57,5.806-0.056,12.604-5.876,15.181c-1.728,0.765-3.537,1.071-5.303,0.952      c5.621-9.732,2.118-18.005-1.266-22.815C330.108,272.608,335.308,275.253,337.486,280.173z"/>
			</g>
			<path style="opacity:0.5;fill:#FFFFFF;" d="M54.405,116.893c29.198-15.695,76.12-36.543,107.419-47.676     c2.146-0.764,3.49,2.301,1.492,3.369c-28.504,15.27-75.438,36.118-107.508,47.475c-0.904,0.32-1.897-0.154-2.217-1.058     C53.3,118.184,53.662,117.292,54.405,116.893z"/>
		</g>
		<g>
			<path style="fill:#000E3F;" d="M216.37,512c-6.226,0-12.201-3.417-15.199-9.287c-0.128-0.195-0.284-0.533-0.434-0.871     L35.54,128.696c-3.811-8.607,0.091-18.71,8.699-22.52L280.759,1.466c3.564-1.58,7.596-1.895,11.359-0.888     c5.011,1.355,9.088,4.854,11.188,9.596l165.189,373.13c1.846,4.169,1.96,8.808,0.321,13.057c-1.641,4.255-4.844,7.615-9.02,9.463     l-236.52,104.71C221.033,511.529,218.684,512,216.37,512z M287.707,3.356c-1.912,0-3.821,0.396-5.589,1.18L45.598,109.245     c-3.348,1.483-5.918,4.182-7.239,7.599c-1.321,3.42-1.232,7.146,0.25,10.492l165.189,373.13c0.093,0.211,0.176,0.41,0.291,0.594     c3.374,6.595,11.173,9.349,17.829,6.407l236.52-104.71c3.355-1.486,5.928-4.186,7.247-7.601c1.316-3.415,1.225-7.14-0.258-10.49     L300.237,11.535l0,0c-1.688-3.815-4.966-6.626-8.992-7.715C290.088,3.51,288.897,3.356,287.707,3.356z"/>
			<path style="fill:#000E3F;" d="M216.384,511.996c-6.562,0-12.833-3.796-15.655-10.17l-19.714-44.529     c-0.18-0.408-0.192-0.871-0.031-1.285c0.16-0.416,0.478-0.75,0.886-0.93L446.56,337.903c0.847-0.379,1.839,0.008,2.214,0.855     l19.722,44.547c1.846,4.169,1.96,8.808,0.321,13.057c-1.641,4.255-4.844,7.615-9.02,9.463l-236.52,104.71     C221.035,511.527,218.691,511.996,216.384,511.996z M184.764,457.471l19.034,42.994c3.066,6.925,11.193,10.066,18.12,7.001     l236.52-104.71c3.355-1.486,5.928-4.186,7.247-7.601c1.316-3.415,1.225-7.14-0.258-10.49l-19.042-43.013L184.764,457.471z"/>
			<g>
				<g>
					<path style="fill:#000E3F;" d="M216.981,494.239c-0.202,0-0.406-0.035-0.604-0.113c-0.865-0.334-1.295-1.305-0.961-2.17       l15.032-38.915c0.334-0.867,1.307-1.301,2.17-0.961c0.864,0.334,1.295,1.305,0.961,2.17l-15.032,38.915       C218.29,493.831,217.654,494.239,216.981,494.239z"/>
				</g>
				<g>
					<path style="fill:#000E3F;" d="M235.777,485.917c-0.202,0-0.406-0.035-0.604-0.113c-0.865-0.334-1.295-1.305-0.961-2.17       l15.032-38.915c0.335-0.867,1.309-1.301,2.17-0.961c0.864,0.334,1.295,1.305,0.961,2.169l-15.032,38.915       C237.085,485.509,236.45,485.917,235.777,485.917z"/>
				</g>
				<g>
					<path style="fill:#000E3F;" d="M254.572,477.597c-0.202,0-0.406-0.035-0.604-0.113c-0.865-0.334-1.295-1.305-0.961-2.17       l15.032-38.915c0.334-0.864,1.308-1.297,2.17-0.961c0.864,0.334,1.295,1.305,0.961,2.17l-15.032,38.915       C255.88,477.189,255.245,477.597,254.572,477.597z"/>
				</g>
				<g>
					<path style="fill:#000E3F;" d="M273.367,469.276c-0.202,0-0.406-0.035-0.604-0.113c-0.865-0.334-1.295-1.305-0.961-2.17       l15.032-38.915c0.334-0.867,1.31-1.299,2.17-0.961c0.864,0.334,1.295,1.305,0.961,2.17l-15.032,38.915       C274.676,468.869,274.041,469.276,273.367,469.276z"/>
				</g>
				<g>
					<path style="fill:#000E3F;" d="M292.162,460.954c-0.202,0-0.406-0.035-0.605-0.113c-0.864-0.334-1.295-1.305-0.961-2.17       l15.032-38.915c0.335-0.867,1.309-1.299,2.17-0.961c0.864,0.334,1.295,1.305,0.961,2.17l-15.032,38.915       C293.47,460.547,292.835,460.954,292.162,460.954z"/>
				</g>
				<g>
					<path style="fill:#000E3F;" d="M310.958,452.634c-0.202,0-0.406-0.035-0.604-0.113c-0.865-0.334-1.295-1.305-0.961-2.169       l15.032-38.915c0.334-0.865,1.306-1.297,2.17-0.961c0.864,0.334,1.295,1.305,0.961,2.17l-15.032,38.915       C312.266,452.226,311.631,452.634,310.958,452.634z"/>
				</g>
				<g>
					<path style="fill:#000E3F;" d="M329.753,444.314c-0.202,0-0.406-0.035-0.605-0.112c-0.864-0.334-1.295-1.305-0.961-2.17       l15.032-38.915c0.334-0.865,1.31-1.299,2.17-0.961c0.864,0.334,1.295,1.305,0.961,2.17l-15.032,38.915       C331.061,443.906,330.425,444.314,329.753,444.314z"/>
				</g>
				<g>
					<path style="fill:#000E3F;" d="M348.548,435.992c-0.202,0-0.406-0.035-0.604-0.113c-0.865-0.334-1.295-1.305-0.961-2.17       l15.032-38.915c0.334-0.865,1.307-1.299,2.17-0.961c0.864,0.334,1.295,1.305,0.961,2.17l-15.032,38.915       C349.856,435.584,349.221,435.992,348.548,435.992z"/>
				</g>
				<g>
					<path style="fill:#000E3F;" d="M367.343,427.672c-0.202,0-0.406-0.035-0.605-0.113c-0.864-0.334-1.295-1.305-0.961-2.17       l15.032-38.915c0.334-0.867,1.306-1.301,2.17-0.961c0.864,0.334,1.295,1.305,0.961,2.169l-15.032,38.915       C368.651,427.264,368.016,427.672,367.343,427.672z"/>
				</g>
				<g>
					<path style="fill:#000E3F;" d="M386.139,419.351c-0.202,0-0.406-0.035-0.605-0.113c-0.864-0.334-1.295-1.305-0.961-2.17       l15.032-38.915c0.335-0.864,1.308-1.297,2.17-0.961c0.864,0.334,1.295,1.305,0.961,2.17l-15.032,38.915       C387.447,418.944,386.811,419.351,386.139,419.351z"/>
				</g>
				<g>
					<path style="fill:#000E3F;" d="M404.933,411.029c-0.202,0-0.405-0.035-0.604-0.113c-0.864-0.334-1.295-1.305-0.961-2.17       l15.032-38.915c0.335-0.864,1.307-1.297,2.169-0.961c0.865,0.334,1.295,1.305,0.961,2.17l-15.032,38.915       C406.241,410.621,405.606,411.029,404.933,411.029z"/>
				</g>
				<g>
					<path style="fill:#000E3F;" d="M423.729,402.709c-0.202,0-0.406-0.035-0.605-0.113c-0.864-0.334-1.295-1.305-0.961-2.17       l15.032-38.915c0.334-0.867,1.309-1.299,2.17-0.961c0.864,0.334,1.295,1.305,0.961,2.17l-15.032,38.915       C425.037,402.301,424.402,402.709,423.729,402.709z"/>
				</g>
			</g>
			<path style="fill:#000E3F;" d="M201.175,389.078c-0.351,0-0.702-0.004-1.053-0.012c-18.766-0.361-35.808-11.693-43.413-28.87     c-5.247-11.852-5.565-25.034-0.895-37.122c4.669-12.086,13.767-21.633,25.618-26.878c7.103-3.145,14.61-4.509,22.3-4.077     c18.302,1.008,34.283,12.043,41.7,28.798l0,0c5.247,11.852,5.564,25.034,0.895,37.122c-4.669,12.086-13.767,21.633-25.618,26.878     C214.471,387.679,207.903,389.078,201.175,389.078z M200.939,295.397c-6.249,0-12.342,1.297-18.149,3.868     c-11.031,4.882-19.499,13.768-23.845,25.02c-4.346,11.25-4.05,23.52,0.833,34.551c7.08,15.991,22.941,26.538,40.412,26.874     c6.621,0.119,13.05-1.156,19.161-3.862c11.031-4.882,19.499-13.768,23.845-25.02c4.347-11.25,4.051-23.52-0.833-34.551     c-6.905-15.598-21.78-25.868-38.82-26.807C202.672,295.421,201.805,295.397,200.939,295.397z"/>
			<path style="fill:#000E3F;" d="M206.097,379.93c-2.038,0-3.983-1.178-4.858-3.157l-6.774-15.298     c-0.435-0.979-1.586-1.422-2.567-0.992l-15.302,6.774c-2.677,1.182-5.812-0.031-6.996-2.705l-7.452-16.831     c-1.183-2.674,0.029-5.81,2.701-6.997l15.303-6.773c0.475-0.211,0.84-0.592,1.028-1.078c0.188-0.486,0.174-1.014-0.036-1.492     l-6.775-15.298c-1.184-2.674,0.028-5.812,2.701-6.997l16.834-7.451c2.679-1.184,5.814,0.031,6.996,2.704l6.773,15.298     c0.21,0.475,0.593,0.84,1.079,1.028c0.485,0.186,1.012,0.176,1.488-0.037l15.302-6.773c1.295-0.576,2.738-0.61,4.058-0.098     c1.321,0.51,2.365,1.506,2.938,2.803l7.451,16.831c0.574,1.295,0.608,2.735,0.098,4.057c-0.51,1.321-1.505,2.366-2.802,2.938     l-15.299,6.775c-0.475,0.211-0.84,0.592-1.027,1.078c-0.188,0.486-0.174,1.014,0.036,1.487l6.775,15.3     c0.574,1.297,0.608,2.737,0.098,4.059c-0.511,1.321-1.506,2.366-2.802,2.938l-16.832,7.454     C207.54,379.785,206.812,379.93,206.097,379.93z M192.678,356.959c2.034,0,3.98,1.178,4.857,3.155l6.773,15.3     c0.435,0.983,1.59,1.428,2.569,0.994l16.832-7.453c0.475-0.211,0.84-0.592,1.027-1.078c0.188-0.486,0.174-1.014-0.036-1.492     l-6.774-15.298c-0.574-1.295-0.608-2.737-0.097-4.059c0.51-1.319,1.505-2.364,2.799-2.936l15.301-6.775     c0.476-0.211,0.841-0.594,1.028-1.078c0.186-0.486,0.174-1.012-0.037-1.487l-7.451-16.833c-0.211-0.477-0.594-0.842-1.079-1.031     c-0.486-0.19-1.015-0.176-1.489,0.037h-0.001l-15.3,6.773c-1.293,0.576-2.734,0.608-4.058,0.098     c-1.322-0.51-2.364-1.504-2.938-2.798l-6.773-15.301c-0.434-0.983-1.585-1.424-2.569-0.994l-16.832,7.451     c-0.98,0.435-1.426,1.588-0.991,2.567l6.774,15.3c0.574,1.297,0.608,2.737,0.097,4.059c-0.51,1.321-1.505,2.366-2.8,2.938     l-15.301,6.773c-0.98,0.434-1.426,1.588-0.992,2.567l7.453,16.833c0.436,0.983,1.588,1.43,2.569,0.994l15.299-6.773     C191.235,357.104,191.962,356.959,192.678,356.959z M226.222,315.391h0.021H226.222z"/>
			<g>
				<path style="fill:#000E3F;" d="M194.491,343.469c1.609,3.634,5.858,5.275,9.492,3.667c3.633-1.609,5.275-5.858,3.666-9.492      c-1.608-3.634-5.858-5.275-9.492-3.667C194.524,335.586,192.882,339.835,194.491,343.469z"/>
				<path style="fill:#000E3F;" d="M187.736,313.435l-1.386,12.924c-0.115,1.073,0.975,1.868,1.961,1.431l11.885-5.262      c0.987-0.437,1.13-1.778,0.259-2.414l-10.5-7.662C189.084,311.816,187.851,312.362,187.736,313.435z"/>
				<path style="fill:#000E3F;" d="M214.405,367.678l1.386-12.924c0.115-1.073-0.975-1.868-1.961-1.431l-11.885,5.262      c-0.987,0.437-1.131,1.778-0.259,2.414l10.499,7.662C213.056,369.296,214.29,368.75,214.405,367.678z"/>
				<path style="fill:#000E3F;" d="M228.192,327.222l-12.924-1.386c-1.073-0.115-1.868,0.975-1.431,1.961l5.262,11.885      c0.437,0.987,1.778,1.131,2.414,0.259l7.662-10.499C229.811,328.57,229.265,327.337,228.192,327.222z"/>
				<path style="fill:#000E3F;" d="M173.949,353.891l12.924,1.386c1.073,0.115,1.868-0.974,1.431-1.961l-5.262-11.885      c-0.437-0.987-1.778-1.131-2.414-0.259l-7.662,10.499C172.33,352.542,172.876,353.776,173.949,353.891z"/>
			</g>
			<path style="fill:#000E3F;" d="M348.97,323.648c-0.351,0-0.702-0.004-1.053-0.012c-18.765-0.36-35.807-11.692-43.412-28.869     c-10.829-24.461,0.261-53.173,24.722-64.003c7.106-3.145,14.611-4.509,22.301-4.075c18.302,1.008,34.283,12.043,41.699,28.798     l0,0c5.247,11.85,5.565,25.035,0.895,37.12c-4.668,12.088-13.766,21.635-25.617,26.88     C362.267,322.248,355.699,323.648,348.97,323.648z M348.736,229.966c-6.248,0-12.341,1.297-18.15,3.866     c-22.768,10.08-33.09,36.805-23.011,59.573c7.08,15.991,22.942,26.538,40.411,26.874c6.635,0.143,13.052-1.157,19.162-3.862     c11.031-4.882,19.499-13.768,23.845-25.02c4.345-11.25,4.05-23.522-0.834-34.551l0,0c-6.904-15.598-21.779-25.868-38.818-26.807     C350.469,229.991,349.601,229.966,348.736,229.966z"/>
			<path style="fill:#000E3F;" d="M339.27,266.402c-0.288,0-0.577-0.01-0.867-0.031c-4.94-0.258-9.277-3.252-11.294-7.808     c-2.945-6.654,0.066-14.463,6.711-17.405c1.012-0.449,2.078-0.764,3.169-0.934c5.922-1.035,11.788,2.116,14.241,7.659l0,0     c2.942,6.646-0.078,14.45-6.731,17.396C342.817,266.025,341.061,266.402,339.27,266.402z M339.218,243.39     c-0.556,0-1.118,0.047-1.68,0.145c-0.829,0.131-1.613,0.363-2.358,0.692c-4.954,2.194-7.197,8.015-5.001,12.975     c1.503,3.395,4.732,5.624,8.426,5.819c1.562,0.096,3.083-0.168,4.535-0.811c4.961-2.196,7.214-8.015,5.022-12.967l0,0     C346.564,245.637,343.033,243.39,339.218,243.39z"/>
			<path style="fill:#000E3F;" d="M358.669,310.22c-0.288,0-0.577-0.01-0.867-0.031c-4.939-0.256-9.276-3.247-11.294-7.806     c-1.427-3.225-1.515-6.81-0.247-10.099c1.267-3.286,3.739-5.882,6.958-7.306c1.02-0.453,2.088-0.766,3.173-0.936     c5.919-1.016,11.783,2.118,14.237,7.66l0,0c2.943,6.647-0.077,14.45-6.731,17.397C362.214,309.843,360.459,310.22,358.669,310.22     z M358.617,287.21c-0.556,0-1.118,0.047-1.68,0.146c-0.824,0.129-1.607,0.359-2.358,0.692c-2.399,1.061-4.241,2.995-5.185,5.446     c-0.945,2.45-0.88,5.126,0.184,7.529c1.503,3.397,4.732,5.624,8.425,5.816c1.565,0.103,3.084-0.17,4.538-0.809     c4.96-2.198,7.213-8.015,5.02-12.967l0,0C365.963,289.457,362.432,287.21,358.617,287.21z"/>
			<path style="fill:#000E3F;" d="M370.879,278.611c-0.288,0-0.577-0.01-0.867-0.031c-4.939-0.256-9.276-3.247-11.294-7.806     c-1.427-3.225-1.515-6.81-0.247-10.099c1.268-3.286,3.739-5.882,6.958-7.306c1.02-0.453,2.088-0.766,3.173-0.936     c5.911-1.028,11.783,2.114,14.237,7.66l0,0c2.943,6.646-0.077,14.45-6.731,17.396     C374.424,278.234,372.669,278.611,370.879,278.611z M370.829,255.601c-0.556,0-1.117,0.047-1.681,0.145     c-0.825,0.129-1.608,0.359-2.359,0.692c-2.399,1.061-4.24,2.995-5.185,5.446s-0.88,5.126,0.184,7.529     c1.503,3.397,4.732,5.624,8.424,5.816c1.566,0.098,3.084-0.17,4.538-0.809c4.96-2.198,7.213-8.015,5.019-12.967l0,0     C378.173,257.846,374.643,255.601,370.829,255.601z"/>
			<path style="fill:#000E3F;" d="M327.06,298.011c-0.288,0-0.577-0.01-0.867-0.031c-4.94-0.258-9.277-3.251-11.294-7.808     c-2.945-6.655,0.066-14.463,6.711-17.405c1.012-0.449,2.078-0.764,3.168-0.934c5.928-1.035,11.787,2.116,14.241,7.658l0,0     c2.942,6.647-0.078,14.45-6.732,17.397C330.607,297.634,328.852,298.011,327.06,298.011z M327.008,274.999     c-0.556,0-1.118,0.047-1.68,0.146c-0.829,0.131-1.613,0.363-2.358,0.692c-4.954,2.194-7.197,8.015-5.001,12.975     c1.503,3.395,4.732,5.624,8.426,5.819c1.561,0.1,3.083-0.17,4.534-0.811c4.962-2.196,7.215-8.015,5.023-12.967l0,0     C334.354,277.246,330.823,274.999,327.008,274.999z"/>
			<path style="fill:#000E3F;" d="M267.004,395.583c-0.495,0-0.991-0.039-1.486-0.115c-0.077-0.002-0.152-0.012-0.228-0.027v0.002     c-0.599-0.113-1.183-0.278-1.785-0.512c-2.417-0.936-4.325-2.754-5.374-5.12c-2.165-4.892,0.053-10.633,4.944-12.799     l19.999-8.853c2.364-1.051,4.999-1.112,7.421-0.178c2.419,0.936,4.327,2.754,5.375,5.12l0,0     c2.166,4.892-0.052,10.633-4.943,12.799l-19.999,8.853C269.684,395.302,268.352,395.583,267.004,395.583z M265.744,392.11     c0.051,0.004,0.103,0.01,0.154,0.021c1.253,0.217,2.522,0.061,3.67-0.447l20-8.853c3.198-1.416,4.648-5.171,3.232-8.369     c-0.685-1.549-1.934-2.737-3.516-3.35c-1.583-0.613-3.306-0.574-4.852,0.117l-20.001,8.853c-3.198,1.416-4.648,5.171-3.233,8.372     c0.686,1.547,1.935,2.735,3.517,3.348C265.067,391.936,265.405,392.039,265.744,392.11z"/>
			<path style="fill:#000E3F;" d="M318.112,372.958c-0.497,0-0.997-0.037-1.493-0.115c-0.074-0.002-0.148-0.01-0.22-0.025l0,0     c-0.59-0.106-1.176-0.275-1.792-0.512c-2.418-0.932-4.326-2.752-5.374-5.122c-1.049-2.366-1.111-5.003-0.177-7.421     c0.933-2.418,2.753-4.325,5.121-5.374l19.998-8.853c2.369-1.051,5.003-1.114,7.423-0.178c2.416,0.932,4.326,2.751,5.374,5.12l0,0     c1.049,2.368,1.111,5.005,0.178,7.423c-0.934,2.418-2.753,4.325-5.121,5.374l-20,8.855     C320.788,372.68,319.457,372.958,318.112,372.958z M316.842,369.485c0.054,0.004,0.107,0.01,0.161,0.021     c1.251,0.217,2.519,0.063,3.668-0.445l19.999-8.855c1.548-0.686,2.737-1.934,3.348-3.516c0.611-1.582,0.57-3.305-0.116-4.852     c0,0,0,0,0-0.002c-0.685-1.549-1.933-2.737-3.515-3.348c-1.584-0.613-3.307-0.572-4.854,0.117l-19.999,8.853     c-1.548,0.686-2.737,1.934-3.349,3.516c-0.61,1.582-0.57,3.305,0.116,4.852c0.685,1.551,1.933,2.739,3.515,3.35     C316.175,369.313,316.512,369.416,316.842,369.485z"/>
			<path style="fill:#000E3F;" d="M279.285,354.296c-0.495,0-0.991-0.039-1.486-0.115c-0.077-0.002-0.154-0.012-0.231-0.027l0,0     c-0.599-0.111-1.183-0.277-1.785-0.51c-2.415-0.932-4.324-2.752-5.373-5.12c-2.165-4.891,0.053-10.631,4.943-12.799l19.999-8.853     c2.372-1.047,5.009-1.111,7.422-0.178c2.419,0.936,4.327,2.754,5.375,5.12l0,0c2.166,4.892-0.052,10.633-4.944,12.799     l-19.998,8.853C281.965,354.015,280.634,354.296,279.285,354.296z M278.023,350.823c0.052,0.004,0.104,0.01,0.156,0.021     c1.253,0.219,2.522,0.061,3.67-0.447l19.998-8.853c3.198-1.416,4.649-5.171,3.233-8.369c-0.685-1.549-1.934-2.737-3.516-3.35     c-1.581-0.611-3.302-0.565-4.855,0.117l-19.997,8.853c-3.198,1.418-4.649,5.171-3.233,8.369c0.686,1.551,1.934,2.739,3.515,3.35     C277.347,350.649,277.684,350.751,278.023,350.823z"/>
			<path style="fill:#000E3F;" d="M257.046,305.075c-0.258,0-0.518-0.029-0.779-0.084c-1.367-0.295-2.431-1.32-2.774-2.676     l-3.303-13.108c-0.023-0.092-0.091-0.17-0.181-0.203l-12.672-4.71c-1.311-0.488-2.216-1.655-2.359-3.049     c-0.144-1.391,0.503-2.719,1.687-3.465l11.446-7.193c0.081-0.051,0.133-0.139,0.137-0.236l0.563-13.506     c0.058-1.399,0.891-2.62,2.172-3.188c1.28-0.565,2.745-0.359,3.817,0.537l10.376,8.66c0.075,0.063,0.172,0.078,0.27,0.06     l13.015-3.639c1.35-0.373,2.768,0.037,3.701,1.078c0.934,1.043,1.191,2.498,0.671,3.798l-5.031,12.545     c-0.036,0.09-0.026,0.193,0.028,0.272l7.482,11.258c0.774,1.166,0.819,2.643,0.117,3.854c-0.703,1.211-2.017,1.899-3.404,1.809     l-13.485-0.908c-0.091,0.002-0.19,0.037-0.25,0.111l-8.394,10.596C259.192,304.579,258.145,305.075,257.046,305.075z      M252.468,256.701c-0.037,0-0.079,0.006-0.126,0.029c-0.169,0.074-0.174,0.211-0.176,0.256l-0.563,13.506     c-0.049,1.199-0.685,2.297-1.703,2.938l-11.447,7.193c-0.038,0.022-0.155,0.096-0.136,0.279c0.02,0.182,0.148,0.229,0.191,0.246     l12.67,4.71c1.126,0.418,1.974,1.363,2.269,2.528l3.303,13.108c0.01,0.043,0.044,0.176,0.224,0.215     c0.18,0.039,0.265-0.07,0.294-0.104l8.392-10.594c0.745-0.94,1.895-1.463,3.106-1.375l13.487,0.908     c0.05,0.002,0.182,0.012,0.275-0.145c0.092-0.16,0.015-0.275-0.01-0.313l-7.481-11.256c-0.665-1-0.795-2.264-0.348-3.378     l5.031-12.547c0.017-0.041,0.069-0.17-0.054-0.307c-0.121-0.133-0.254-0.094-0.298-0.086l-13.017,3.639     c-1.16,0.324-2.404,0.055-3.325-0.717l-10.374-8.658l0,0C252.623,256.752,252.562,256.701,252.468,256.701z"/>
			<path style="fill:#000E3F;" d="M136.985,294.133c-3.451,0-6.748-1.996-8.232-5.347L62.075,138.172     c-2.006-4.53,0.048-9.849,4.579-11.856L280.62,31.591c2.195-0.973,4.637-1.028,6.876-0.166c2.239,0.865,4.008,2.551,4.981,4.745     l66.677,150.612c0.972,2.196,1.03,4.638,0.166,6.878c-0.866,2.239-2.551,4.007-4.746,4.979l-213.966,94.726l0,0     C139.43,293.887,138.198,294.133,136.985,294.133z M139.929,291.83h0.021H139.929z M284.257,34.175     c-0.774,0-1.548,0.162-2.277,0.486L68.013,129.384c-2.839,1.258-4.126,4.589-2.869,7.427l66.678,150.614     c1.257,2.837,4.587,4.122,7.428,2.87l213.965-94.726c1.375-0.608,2.431-1.717,2.973-3.118c0.542-1.403,0.505-2.934-0.104-4.309     L289.407,37.53c-0.609-1.377-1.718-2.432-3.12-2.975C285.628,34.302,284.942,34.175,284.257,34.175z"/>
			<path style="fill:#000E3F;" d="M143.96,274.984c-1.498,0-2.976-0.522-4.184-1.531c-0.768-0.633-1.39-1.448-1.791-2.352     L81.379,143.236c-0.708-1.598-0.75-3.374-0.119-5.001c0.629-1.621,1.851-2.901,3.443-3.606l189.923-84.081     c2.88-1.27,6.238-0.32,7.992,2.266c0.248,0.283,0.463,0.719,0.613,1.053c0.001,0.002,0.001,0.002,0.002,0.004l56.606,127.866     c0.705,1.592,0.749,3.362,0.125,4.987c-0.627,1.627-1.852,2.913-3.45,3.62l-189.922,84.081     C145.743,274.8,144.848,274.984,143.96,274.984z M277.247,53.349c-0.425,0-0.853,0.088-1.262,0.269L86.062,137.698     c-0.773,0.342-1.367,0.965-1.672,1.752c-0.306,0.789-0.286,1.649,0.058,2.426l56.606,127.866     c0.193,0.434,0.484,0.813,0.866,1.129c0.945,0.791,2.213,0.973,3.314,0.486l189.922-84.081c0.776-0.344,1.372-0.967,1.675-1.758     c0.303-0.787,0.282-1.647-0.06-2.42L280.164,55.232c-0.088-0.197-0.157-0.32-0.222-0.398     C279.275,53.862,278.27,53.349,277.247,53.349z"/>
			<g>
				<g>
					<path style="fill:#000E3F;" d="M154.753,121.812c3.197-2.396,8.145-2.472,11.524,0.843c5.947,5.835-0.243,15.133-8.183,13.375       C151.706,134.616,149.286,125.91,154.753,121.812z"/>
				</g>
				<g>
					<path style="fill:#000E3F;" d="M218.038,93.796c-3.923,0.756-7.306,4.367-7.122,9.098c0.322,8.325,11.366,9.993,15.402,2.933       C229.566,100.147,224.747,92.502,218.038,93.796z"/>
				</g>
			</g>
			<g>
				<path style="fill:#000E3F;" d="M165.251,173.745c1.281,10.947-0.473,22.221,0.496,33.113c-0.34,0.104-0.662,0.248-1.024,0.408      c-1.127,0.5-2.483,1.242-3.733,1.795c-0.322,0.143-0.643,0.285-0.985,0.387l-0.08,0.035c-0.516-4.972-0.698-10.719-0.893-16.269      l-0.035-0.082c-3.254-4.194-8.125-7.578-11.227-11.647c1.088-0.481,2.188-1.258,3.358-1.776      c0.643-0.285,1.307-0.529,2.037-0.516c1.574,2.143,5.146,5.864,7.005,7.447c0.232-2.416-0.611-7.581-0.607-10.185      c0.879-0.629,2.694-1.53,4.104-2.155c0.643-0.285,1.227-0.494,1.568-0.594L165.251,173.745z"/>
				<path style="fill:#000E3F;" d="M184.254,173.135c0.709,1.276,1.297,2.604,1.846,3.95c1.104,2.934,2.424,5.479,3.452,8.349      l0.469,1.383c0.717,1.946,1.148,4.118,0.877,6.114c-0.357,1.701-1.606,3.12-3.061,4.296c-1.295,1.1-2.791,1.86-4.415,2.432      c-2.303,0.78-4.653,1.242-6.562-0.463c-1.356-0.991-2.213-2.491-2.948-4.044c-2.014-4.116-4.21-8.203-5.8-12.559      c-1.029-2.432-1.727-5.208-0.914-7.831c0.156-0.408,0.332-0.774,0.604-1.137c2.778-3.301,7.808-5.431,11.963-4.425      c1.067,0.344,2.006,0.938,2.737,1.725C183.223,171.569,183.758,172.341,184.254,173.135z M181.25,179.957      c-0.016-0.041-0.728-1.317-1.178-2.225c-0.779-1.438-2.094-2.448-3.61-2.497c-1.283,0.039-2.329,0.936-2.891,1.954      c-0.607,1.135-0.842,2.346-0.664,3.616c0.467,2.25,1.444,4.565,2.563,6.765c1.118,1.77,1.971,3.803,3.278,5.343      c1.994,1.672,5.483,0.412,6.314-2.168c0.418-1.776,0.016-1.598-0.815-4.024c-0.443-1.106-0.795-2.008-0.848-2.131l-0.856-1.932      L181.25,179.957z"/>
				<path style="fill:#000E3F;" d="M210.267,179.875c1.125,3.739,0.041,7.495-3.663,9.57c-4.356,2.456-10.789,2.946-13.184-1.92      c-3.137-7.089-6.066-14.465-9.324-21.5l-0.057-0.021l0.041-0.018c1.651-0.731,3.958-2.043,5.765-2.315l0.021,0.043      c2.588,6.61,5.634,13.162,9.117,19.615c1.924,2.278,5.429,0.293,4.864-2.395c-2.569-6.568-5.665-13.338-8.267-19.654      c1.436-0.783,4.305-2.678,5.935-2.483C204.885,165.544,207.965,172.608,210.267,179.875z"/>
				<path style="fill:#000E3F;" d="M230.077,144.851c3.315,9.662,6.292,19.326,9.664,29.009c-0.309,0.283-0.811,0.455-1.336,0.686      l-1.448,0.643l-0.484,0.213c-1.479-0.838-3.782-4.733-5.407-5.794l-0.041,0.016c-0.539,1.395,1.024,5.907,0.785,7.648      c-0.631,0.424-1.119,0.738-1.883,1.078c-0.445,0.197-0.947,0.369-1.586,0.557l-0.039,0.016      c-5.356-8.611-10.965-17.257-15.245-26.491l-0.018-0.041c0.752-0.475,1.604-0.949,2.53-1.358      c1.088-0.481,2.209-0.883,3.194-1.27c2.547,4.556,5.063,12.307,8.281,16.421c-0.383-2.719-0.879-5.247-1.342-7.933      c-0.014-0.137-0.033-0.178-0.01-0.238c0.645,0.151,4.335,5.55,5.694,6.874c-1.608-4.827-5.212-12.529-6.853-17.437l-0.018-0.041      c0.836-0.611,1.786-1.08,2.753-1.508c0.926-0.41,1.83-0.762,2.752-1.072L230.077,144.851z"/>
				<path style="fill:#000E3F;" d="M239.782,140.216l0.072,0.162c4.083,9.224,7.765,19.06,12.336,27.97      c-0.494,1.278-6.185,2.786-7.171,3.61c-3.532-10.047-9.31-19.292-12.338-28.743l-0.037-0.08      c0.266-0.164,1.326-0.492,1.688-0.652c0.985-0.385,2.086-0.729,4.483-1.84L239.782,140.216z"/>
				<path style="fill:#000E3F;" d="M266.499,162.255c-3.538-3.204-7.05-6.13-9.814-8.998l-0.938-1.033      c-0.467-0.512-0.936-1.028-1.057-0.975c-0.16,0.072,2.25,5.843,4.245,10.355c0.553,1.25,1.072,2.416,1.522,3.325      c-0.533,0.43-1.08,0.719-1.684,0.985c-1.289,0.572-2.723,0.92-3.973,1.473l-1.25-2.821c-2.262-5.116-4.327-9.453-6.556-14.487      c-1.641-3.706-3.184-7.406-4.417-10.955c0.471-0.354,1.098-0.678,1.741-0.963c0.684-0.303,3.415-1.32,3.522-1.078      c1.639,1.635,2.127,1.756,4.091,3.583c0.66,0.621,6.241,5.282,6.36,5.229c0.109-0.193-0.287-1.414-0.697-2.34      c-0.947-2.135-1.852-3.854-2.707-5.788c-0.5-1.127-0.959-2.274-1.506-3.618c0.854-0.574,1.785-1.082,2.79-1.526      c1.008-0.447,1.93-0.758,2.766-0.936l5.743,12.969c1.039,2.239,2.073,4.575,3.09,6.87c0.694,1.574,1.28,3.002,1.94,4.489      c0.48,1.09,0.983,2.118,1.465,3.206l0.356,0.805c-0.102,0.092-0.313,0.379-1.239,0.789      C269.205,161.297,267.585,161.774,266.499,162.255z"/>
				<path style="fill:#000E3F;" d="M261.799,130.519c1.356-0.744,3.231-2.059,4.917-2.274c2.93,6.941,6.103,14.545,9.474,21.287      c-1.34,0.787-3.555,1.768-5.106,2.504l-0.041,0.018c-3.018-7.142-6.564-13.956-9.365-21.482L261.799,130.519z M274.299,158.756      c-0.363,0.16-1.305-3.278-1.967-4.77l-0.016-0.041c1.057-1.092,3.309-1.557,4.878-2.252c0.619,1.506,1.324,3.315,2.018,4.886      l-0.281,0.125c-0.645,0.285-0.944,0.369-1.549,0.635l-0.08,0.037L274.299,158.756z"/>
			</g>
			<path style="fill:#000E3F;" d="M122.289,170.647c-0.691,0-1.368-0.26-1.894-0.756l-5.501-5.151l-7.363,1.61     c-1.043,0.232-2.103-0.15-2.768-0.983c-0.664-0.832-0.795-1.948-0.342-2.913l3.2-6.822l-3.808-6.505     c-0.538-0.922-0.508-2.045,0.078-2.934c0.586-0.889,1.604-1.36,2.664-1.229c0.001,0,0.001,0,0.001,0l7.48,0.936l5.009-5.632     c0.709-0.795,1.794-1.112,2.814-0.834c1.028,0.285,1.792,1.11,1.992,2.155l1.423,7.402l6.904,3.026     c0.976,0.428,1.612,1.356,1.66,2.42c0.048,1.065-0.501,2.045-1.434,2.559l-6.601,3.643l-0.744,7.501     c-0.105,1.061-0.791,1.952-1.789,2.327C122.95,170.588,122.618,170.647,122.289,170.647z M115.067,161.331     c0.699,0,1.38,0.264,1.901,0.754l4.868,4.559l0.659-6.64c0.09-0.912,0.624-1.719,1.427-2.159l5.839-3.223l-6.112-2.678     c-0.839-0.367-1.442-1.123-1.613-2.022l-1.26-6.55l-4.434,4.985c-0.613,0.684-1.517,1.024-2.423,0.912l-6.62-0.828l3.37,5.757     c0.461,0.789,0.506,1.754,0.12,2.581l-2.835,6.044l6.517-1.426C114.67,161.354,114.869,161.331,115.067,161.331z      M125.542,160.784h-0.003C125.54,160.784,125.541,160.784,125.542,160.784z M106.141,148.295c0.001,0,0.002,0,0.003,0H106.141z      M114.336,145.937h0.022H114.336z"/>
			<path style="fill:#000E3F;" d="M144.293,251.042c-0.452,0-0.904-0.119-1.314-0.357c-0.867-0.504-1.361-1.438-1.292-2.438     l0.424-6.235l-4.897-3.886c-0.784-0.623-1.14-1.619-0.929-2.598s0.945-1.737,1.917-1.981l6.063-1.522l2.183-5.859     c0.351-0.94,1.188-1.586,2.185-1.686c0.982-0.09,1.942,0.363,2.474,1.211l3.322,5.296l6.247,0.266     c1,0.041,1.873,0.637,2.277,1.553c0.405,0.918,0.257,1.963-0.386,2.731l-4.009,4.796l1.677,6.021     c0.27,0.965-0.028,1.979-0.774,2.647c-0.746,0.67-1.786,0.855-2.716,0.477l-5.8-2.333l-5.209,3.459     C145.296,250.895,144.795,251.042,144.293,251.042z M140.483,236.434l4.022,3.192c0.672,0.533,1.04,1.363,0.982,2.221     l-0.349,5.124l4.277-2.84c0.718-0.471,1.622-0.567,2.418-0.246l4.764,1.916l-1.377-4.946c-0.231-0.832-0.039-1.719,0.514-2.378     l3.29-3.936l-5.129-0.219c-0.853-0.033-1.64-0.49-2.099-1.217l-2.729-4.352l-1.793,4.811c-0.301,0.805-0.976,1.41-1.806,1.621     L140.483,236.434z M160.534,234.605h0.02H160.534z M154.034,230.968l0.003,0.002C154.036,230.97,154.035,230.968,154.034,230.968     z"/>
			<path style="fill:#000E3F;" d="M273.973,103.498c-0.584,0-1.164-0.187-1.655-0.551l-6.052-4.493l-7.132,2.44     c-1.005,0.346-2.104,0.092-2.86-0.66c-0.756-0.752-1.014-1.846-0.674-2.856l2.402-7.146l-4.524-6.028     c-0.639-0.852-0.739-1.971-0.259-2.922c0.477-0.945,1.426-1.526,2.482-1.526c0.008,0,0.016,0,0.026,0l7.54,0.076l4.335-6.165l0,0     c0.611-0.873,1.636-1.313,2.701-1.148c1.052,0.164,1.905,0.895,2.224,1.914l2.257,7.193l7.203,2.217     c1.018,0.313,1.757,1.162,1.927,2.215c0.169,1.053-0.265,2.09-1.134,2.708l-6.142,4.368l0.116,7.536     c0.017,1.067-0.563,2.032-1.511,2.518C274.839,103.395,274.405,103.498,273.973,103.498z M266.365,95.03     c0.589,0,1.171,0.187,1.656,0.545l5.36,3.979l-0.103-6.671c-0.015-0.912,0.421-1.774,1.167-2.307l5.439-3.868l-6.376-1.963     c-0.874-0.269-1.561-0.951-1.835-1.826l-1.996-6.366l-3.838,5.458c-0.531,0.752-1.32,1.217-2.305,1.18l-6.668-0.068l4.003,5.335     c0.551,0.737,0.704,1.692,0.411,2.559l-2.125,6.321l6.312-2.159C265.759,95.079,266.063,95.03,266.365,95.03z M258.098,89.945     c0,0,0,0.002-0.001,0.002L258.098,89.945z"/>
			<path style="fill:#000E3F;" d="M308.783,182.788c-0.893,0-1.721-0.453-2.205-1.221l-3.33-5.29L297,176.023     c-1.003-0.043-1.876-0.639-2.281-1.555c-0.405-0.914-0.258-1.961,0.383-2.729l4.001-4.801l-1.687-6.019     c-0.272-0.965,0.023-1.979,0.768-2.649c0.744-0.668,1.785-0.856,2.716-0.483l5.804,2.323l5.204-3.465     c0.832-0.551,1.886-0.588,2.755-0.088c0.868,0.502,1.365,1.434,1.299,2.434l-0.415,6.239l4.903,3.876     c0.788,0.627,1.144,1.62,0.933,2.6c-0.211,0.979-0.945,1.737-1.914,1.981l-6.058,1.532l-2.175,5.864     c-0.347,0.938-1.181,1.586-2.177,1.69C308.966,182.782,308.874,182.788,308.783,182.788z M298.647,172.729l5.129,0.209     c0.854,0.035,1.64,0.488,2.1,1.213l2.738,4.35l1.786-4.813c0.296-0.803,0.971-1.412,1.804-1.625l4.981-1.258l-4.027-3.184     c-0.674-0.535-1.043-1.365-0.985-2.223l0.34-5.122l-4.273,2.846c-0.711,0.473-1.613,0.57-2.411,0.254l-4.772-1.912l1.386,4.944     c0.231,0.828,0.041,1.715-0.507,2.375L298.647,172.729z"/>
			<path style="fill:#000E3F;" d="M238.467,223.398c-0.446,0-0.893-0.106-1.307-0.328l-6.658-3.534l-6.685,3.483     c-0.951,0.488-2.07,0.404-2.928-0.225c-0.858-0.631-1.277-1.674-1.094-2.723l1.304-7.425l-5.376-5.282     c-0.761-0.748-1.026-1.842-0.691-2.854c0.334-1.012,1.197-1.733,2.252-1.881l7.462-1.053l3.364-6.749     c0.475-0.949,1.427-1.537,2.487-1.537c0.004,0,0.008,0,0.013,0c1.064,0.004,2.017,0.6,2.484,1.557l0,0l3.309,6.775l7.456,1.112     c1.055,0.158,1.912,0.885,2.236,1.901c0.325,1.014,0.051,2.104-0.715,2.846l-5.418,5.241l1.244,7.433     c0.176,1.053-0.252,2.092-1.118,2.715C239.602,223.222,239.037,223.398,238.467,223.398z M230.507,216.106     c0.448,0,0.894,0.107,1.301,0.322l5.893,3.131l-1.101-6.581c-0.152-0.901,0.15-1.821,0.81-2.459l4.795-4.636l-6.599-0.986     c-0.909-0.139-1.685-0.711-2.086-1.526l-2.93-5.999l-2.977,5.972c-0.406,0.818-1.19,1.383-2.097,1.512l-6.609,0.932l4.759,4.677     c0.653,0.641,0.948,1.561,0.79,2.461l-1.155,6.574l5.917-3.083C229.627,216.208,230.068,216.106,230.507,216.106z      M236.536,201.893h0.022H236.536z"/>
		</g>
	</g>
	<g>
		<path style="fill:#FD8A02;" d="M414.098,100.91c-2.036,2.381-6.241,5.336-9.912,15.089c-0.329,0.874-0.675,1.756-1.135,2.563    c-0.642,1.124-2.009,1.195-2.766,0.115c-1.713-2.443-1.809-6.326-7.52-13.038c-3.351-3.939-6.614-5.179-3.81-7.562    c6.991-5.94,9.393-14.847,10.667-17.203c0.55-1.017,1.854-1.097,2.569-0.201c0.766,0.96,1.161,2.124,1.621,3.249    c3.405,8.327,8.101,12.132,10.017,13.984C414.31,98.37,414.799,100.09,414.098,100.91z"/>
		<path style="fill:#FD8A02;" d="M467.794,241.896c-2.036,2.381-6.241,5.336-9.912,15.089c-0.329,0.874-0.674,1.756-1.135,2.563    c-0.642,1.124-2.009,1.195-2.767,0.115c-1.713-2.443-1.809-6.326-7.52-13.038c-3.351-3.939-6.614-5.179-3.81-7.562    c6.991-5.94,9.393-14.846,10.667-17.203c0.55-1.017,1.854-1.096,2.569-0.201c0.766,0.96,1.161,2.124,1.621,3.249    c3.405,8.327,8.1,12.133,10.017,13.984C468.006,239.357,468.496,241.076,467.794,241.896z"/>
		<path style="fill:#FD8A02;" d="M477.517,147.16c-2.345,2.741-7.182,6.131-11.416,17.379c-0.379,1.007-0.777,2.022-1.307,2.952    c-0.739,1.295-2.314,1.377-3.186,0.132c-1.975-2.817-2.084-7.286-8.661-15.017c-3.86-4.536-7.618-5.964-4.388-8.709    c8.052-6.842,10.82-17.1,12.286-19.814c0.633-1.171,2.136-1.263,2.958-0.231c0.882,1.106,1.337,2.446,1.868,3.742    c3.93,9.609,9.356,14,11.538,16.106C477.761,144.236,478.325,146.216,477.517,147.16z"/>
		<path style="fill:#FD8A02;" d="M144.935,456.695c-2.036,2.381-6.241,5.336-9.912,15.089c-0.329,0.874-0.675,1.756-1.135,2.563    c-0.641,1.124-2.008,1.196-2.766,0.115c-1.712-2.443-1.81-6.326-7.52-13.038c-3.351-3.938-6.614-5.178-3.81-7.561    c6.991-5.94,9.394-14.847,10.667-17.203c0.55-1.017,1.854-1.097,2.569-0.202c0.766,0.961,1.161,2.125,1.621,3.249    c3.405,8.327,8.101,12.133,10.017,13.984C145.147,454.156,145.637,455.876,144.935,456.695z"/>
		<path style="fill:#FD8A02;" d="M82.145,314.268c-2.036,2.381-6.241,5.336-9.912,15.089c-0.329,0.874-0.674,1.756-1.135,2.563    c-0.642,1.124-2.009,1.196-2.766,0.115c-1.712-2.443-1.81-6.326-7.52-13.038c-3.351-3.938-6.614-5.178-3.81-7.561    c6.991-5.94,9.394-14.847,10.667-17.203c0.549-1.017,1.854-1.097,2.568-0.201c0.766,0.96,1.161,2.124,1.621,3.249    c3.405,8.327,8.101,12.133,10.017,13.984C82.358,311.729,82.847,313.449,82.145,314.268z"/>
		<path style="fill:#FD8A02;" d="M74.537,413.377c-2.345,2.741-7.182,6.131-11.416,17.379c-0.379,1.006-0.776,2.023-1.307,2.952    c-0.739,1.295-2.314,1.377-3.186,0.132c-1.975-2.816-2.084-7.286-8.661-15.016c-3.859-4.537-7.618-5.965-4.388-8.709    c8.052-6.842,10.819-17.1,12.285-19.814c0.633-1.172,2.136-1.263,2.958-0.232c0.882,1.106,1.338,2.447,1.868,3.743    c3.93,9.609,9.356,14,11.538,16.106C74.782,410.453,75.346,412.433,74.537,413.377z"/>
	</g>
</g>















</svg>
