<svg width="109" height="109" viewBox="0 0 109 109" fill="none" xmlns="http://www.w3.org/2000/svg">
<circle cx="54.5" cy="54.5" r="52.5" fill="#413C3C" stroke="url(#paint0_linear_516_13)" stroke-width="4"/>
<mask id="mask0_516_13" style="mask-type:alpha" maskUnits="userSpaceOnUse" x="25" y="26" width="57" height="57">
<rect x="25" y="26" width="57" height="57" fill="#D9D9D9"/>
</mask>
<g mask="url(#mask0_516_13)">
<path d="M53.5 54.5C50.8875 54.5 48.651 53.5698 46.7906 51.7094C44.9302 49.849 44 47.6125 44 45C44 42.3875 44.9302 40.151 46.7906 38.2906C48.651 36.4302 50.8875 35.5 53.5 35.5C56.1125 35.5 58.349 36.4302 60.2094 38.2906C62.0698 40.151 63 42.3875 63 45C63 47.6125 62.0698 49.849 60.2094 51.7094C58.349 53.5698 56.1125 54.5 53.5 54.5ZM34.5 73.5V66.85C34.5 65.5042 34.8468 64.2668 35.5403 63.1379C36.2322 62.0105 37.1521 61.15 38.3 60.5562C40.7542 59.3292 43.2479 58.4085 45.7812 57.7941C48.3146 57.1814 50.8875 56.875 53.5 56.875C56.1125 56.875 58.6854 57.1814 61.2188 57.7941C63.7521 58.4085 66.2458 59.3292 68.7 60.5562C69.8479 61.15 70.7678 62.0105 71.4598 63.1379C72.1533 64.2668 72.5 65.5042 72.5 66.85V73.5H34.5Z" fill="white"/>
</g>
<defs>
<linearGradient id="paint0_linear_516_13" x1="96.9779" y1="8.81618" x2="28.0515" y2="64.1176" gradientUnits="userSpaceOnUse">
<stop stop-color="#5A5656"/>
<stop offset="1" stop-color="#5A5656" stop-opacity="0"/>
</linearGradient>
</defs>
</svg>
