<svg width="17" height="17" viewBox="0 0 17 17" fill="none" xmlns="http://www.w3.org/2000/svg">
<mask id="mask0_279_6350" style="mask-type:alpha" maskUnits="userSpaceOnUse" x="0" y="0" width="17" height="17">
<rect width="17" height="17" fill="#D9D9D9"/>
</mask>
<g mask="url(#mask0_279_6350)">
<path d="M8.50029 15.5833C7.61488 15.5833 6.78565 15.4152 6.01263 15.079C5.23913 14.7423 4.56621 14.2875 3.99388 13.7147C3.42107 13.1424 2.96632 12.4695 2.62963 11.696C2.2934 10.9229 2.12529 10.0937 2.12529 9.2083C2.12529 8.32288 2.2934 7.49343 2.62963 6.71993C2.96632 5.9469 3.42107 5.27398 3.99388 4.70118C4.56621 4.12884 5.23913 3.67456 6.01263 3.33834C6.78565 3.00165 7.61488 2.8333 8.50029 2.8333C9.38571 2.8333 10.2152 3.00165 10.9887 3.33834C11.7617 3.67456 12.4346 4.12884 13.0074 4.70118C13.5798 5.27398 14.0343 5.9469 14.371 6.71993C14.7072 7.49343 14.8753 8.32288 14.8753 9.2083C14.8753 10.0937 14.7072 10.9229 14.371 11.696C14.0343 12.4695 13.5798 13.1424 13.0074 13.7147C12.4346 14.2875 11.7617 14.7423 10.9887 15.079C10.2152 15.4152 9.38571 15.5833 8.50029 15.5833ZM10.4836 12.1833L11.4753 11.1916L9.20863 8.92497V5.66663H7.79196V9.49163L10.4836 12.1833ZM3.96696 1.66455L4.95863 2.65622L1.94821 5.66663L0.956543 4.67497L3.96696 1.66455ZM13.0336 1.66455L16.044 4.67497L15.0524 5.66663L12.042 2.65622L13.0336 1.66455Z" fill="#7E7E7E"/>
</g>
</svg>
