<svg width="17" height="17" viewBox="0 0 17 17" fill="none" xmlns="http://www.w3.org/2000/svg">
<mask id="mask0_279_6750" style="mask-type:alpha" maskUnits="userSpaceOnUse" x="0" y="0" width="17" height="17">
<rect width="17" height="17" fill="#D9D9D9"/>
</mask>
<g mask="url(#mask0_279_6750)">
<path d="M8.5 7.79167C6.72917 7.79167 5.22396 7.51424 3.98438 6.95937C2.74479 6.40451 2.125 5.7375 2.125 4.95833C2.125 4.17917 2.74479 3.51215 3.98438 2.95729C5.22396 2.40243 6.72917 2.125 8.5 2.125C10.2708 2.125 11.776 2.40243 13.0156 2.95729C14.2552 3.51215 14.875 4.17917 14.875 4.95833C14.875 5.7375 14.2552 6.40451 13.0156 6.95937C11.776 7.51424 10.2708 7.79167 8.5 7.79167ZM8.5 11.3333C6.72917 11.3333 5.22396 11.0559 3.98438 10.501C2.74479 9.94618 2.125 9.27917 2.125 8.5V6.72917C2.125 7.24861 2.36701 7.68849 2.85104 8.04879C3.33507 8.40862 3.91354 8.70069 4.58646 8.925C5.25937 9.14931 5.95897 9.31151 6.68525 9.41162C7.41106 9.51221 8.01597 9.5625 8.5 9.5625C8.98403 9.5625 9.58894 9.51221 10.3147 9.41162C11.041 9.31151 11.7406 9.14931 12.4135 8.925C13.0865 8.70069 13.6649 8.40862 14.149 8.04879C14.633 7.68849 14.875 7.24861 14.875 6.72917V8.5C14.875 9.27917 14.2552 9.94618 13.0156 10.501C11.776 11.0559 10.2708 11.3333 8.5 11.3333ZM8.5 14.875C6.72917 14.875 5.22396 14.5976 3.98438 14.0427C2.74479 13.4878 2.125 12.8208 2.125 12.0417V10.2708C2.125 10.7903 2.36701 11.2302 2.85104 11.5905C3.33507 11.9503 3.91354 12.2424 4.58646 12.4667C5.25937 12.691 5.95897 12.8534 6.68525 12.954C7.41106 13.0541 8.01597 13.1042 8.5 13.1042C8.98403 13.1042 9.58894 13.0541 10.3147 12.954C11.041 12.8534 11.7406 12.691 12.4135 12.4667C13.0865 12.2424 13.6649 11.9503 14.149 11.5905C14.633 11.2302 14.875 10.7903 14.875 10.2708V12.0417C14.875 12.8208 14.2552 13.4878 13.0156 14.0427C11.776 14.5976 10.2708 14.875 8.5 14.875Z" fill="#FFBB29"/>
</g>
</svg>
