<svg width="16" height="17" viewBox="0 0 16 17" fill="none" xmlns="http://www.w3.org/2000/svg">
<mask id="mask0_251_5049" style="mask-type:alpha" maskUnits="userSpaceOnUse" x="0" y="0" width="16" height="17">
<rect y="0.5" width="16" height="16" fill="#D9D9D9"/>
</mask>
<g mask="url(#mask0_251_5049)">
<path d="M7.99994 15.7333C6.99994 15.7333 6.06105 15.5418 5.18327 15.1587C4.30549 14.7751 3.53882 14.2556 2.88327 13.6C2.22771 12.9444 1.71105 12.1751 1.33327 11.292C0.95549 10.4084 0.766602 9.46666 0.766602 8.46666C0.766602 7.46666 0.95549 6.53044 1.33327 5.658C1.71105 4.786 2.22771 4.02488 2.88327 3.37466C3.53882 2.72488 4.30549 2.21111 5.18327 1.83333C6.06105 1.45555 6.99994 1.26666 7.99994 1.26666C8.99994 1.26666 9.93882 1.45555 10.8166 1.83333C11.6944 2.21111 12.461 2.72488 13.1166 3.37466C13.7722 4.02488 14.2888 4.786 14.6666 5.658C15.0444 6.53044 15.2333 7.46666 15.2333 8.46666C15.2333 9.46666 15.0444 10.4084 14.6666 11.292C14.2888 12.1751 13.7722 12.9444 13.1166 13.6C12.461 14.2556 11.6944 14.7751 10.8166 15.1587C9.93882 15.5418 8.99994 15.7333 7.99994 15.7333ZM7.99994 13.6333C9.42216 13.6333 10.6333 13.1307 11.6333 12.1253C12.6333 11.1196 13.1333 9.9 13.1333 8.46666C13.1333 7.96666 13.0639 7.47777 12.9253 7C12.7862 6.52222 12.5722 6.07222 12.2833 5.65L5.1666 12.75C5.5666 13.0611 6.01105 13.286 6.49994 13.4247C6.98882 13.5638 7.48882 13.6333 7.99994 13.6333ZM3.69993 11.2833L10.7999 4.16666C10.3777 3.88888 9.9306 3.686 9.4586 3.558C8.98616 3.43044 8.49994 3.36666 7.99994 3.36666C6.57771 3.36666 5.3666 3.86111 4.3666 4.85C3.3666 5.83888 2.8666 7.04444 2.8666 8.46666C2.8666 8.96666 2.93616 9.45555 3.07527 9.93333C3.21393 10.4111 3.42216 10.8611 3.69993 11.2833Z" fill="white"/>
</g>
</svg>
