<svg width="19" height="19" viewBox="0 0 19 19" fill="none" xmlns="http://www.w3.org/2000/svg">
<mask id="mask0_20_230" style="mask-type:alpha" maskUnits="userSpaceOnUse" x="0" y="0" width="19" height="19">
<rect width="19" height="19" fill="#D9D9D9"/>
</mask>
<g mask="url(#mask0_20_230)">
<path d="M9.50008 12.6666C10.4897 12.6666 11.3309 12.3204 12.0239 11.628C12.7164 10.935 13.0626 10.0937 13.0626 9.10415C13.0626 8.11456 12.7164 7.27328 12.0239 6.58031C11.3309 5.88787 10.4897 5.54165 9.50008 5.54165V6.72915C10.1598 6.72915 10.7206 6.96005 11.1824 7.42185C11.6442 7.88366 11.8751 8.44442 11.8751 9.10415C11.8751 9.76387 11.6442 10.3246 11.1824 10.7864C10.7206 11.2482 10.1598 11.4791 9.50008 11.4791C9.06466 11.4791 8.65907 11.367 8.28329 11.1427C7.90698 10.9184 7.61328 10.6149 7.40216 10.2323L6.373 10.8062C6.68966 11.3868 7.12508 11.842 7.67925 12.1719C8.23341 12.5017 8.84036 12.6666 9.50008 12.6666ZM6.53133 9.77706C6.70286 9.77706 6.84483 9.72085 6.95725 9.60844C7.06914 9.49655 7.12508 9.35484 7.12508 9.18331C7.12508 9.01179 7.06914 8.86981 6.95725 8.7574C6.84483 8.64551 6.70286 8.58956 6.53133 8.58956C6.3598 8.58956 6.2181 8.64551 6.10621 8.7574C5.99379 8.86981 5.93758 9.01179 5.93758 9.18331C5.93758 9.35484 5.99379 9.49655 6.10621 9.60844C6.2181 9.72085 6.3598 9.77706 6.53133 9.77706ZM6.96675 8.11456C7.13828 8.11456 7.28025 8.05835 7.39266 7.94594C7.50455 7.83405 7.5605 7.69234 7.5605 7.52081C7.5605 7.34929 7.50455 7.20731 7.39266 7.0949C7.28025 6.98301 7.13828 6.92706 6.96675 6.92706C6.79522 6.92706 6.65325 6.98301 6.54083 7.0949C6.42894 7.20731 6.373 7.34929 6.373 7.52081C6.373 7.69234 6.42894 7.83405 6.54083 7.94594C6.65325 8.05835 6.79522 8.11456 6.96675 8.11456ZM8.11467 7.02602C8.28619 7.02602 8.42816 6.96981 8.54058 6.8574C8.65247 6.74551 8.70842 6.6038 8.70842 6.43227C8.70842 6.26074 8.65247 6.11903 8.54058 6.00715C8.42816 5.89473 8.28619 5.83852 8.11467 5.83852C7.94314 5.83852 7.80143 5.89473 7.68954 6.00715C7.57712 6.11903 7.52092 6.26074 7.52092 6.43227C7.52092 6.6038 7.57712 6.74551 7.68954 6.8574C7.80143 6.96981 7.94314 7.02602 8.11467 7.02602ZM9.50008 17.4166C7.66605 16.9548 6.15212 15.9025 4.95829 14.2595C3.76393 12.617 3.16675 10.793 3.16675 8.78748V3.95831L9.50008 1.58331L15.8334 3.95831V8.78748C15.8334 10.793 15.2365 12.617 14.0427 14.2595C12.8483 15.9025 11.3341 16.9548 9.50008 17.4166ZM9.50008 15.7541C10.8723 15.3187 12.007 14.4479 12.9042 13.1416C13.8015 11.8354 14.2501 10.384 14.2501 8.78748V5.04685L9.50008 3.2656L4.75008 5.04685V8.78748C4.75008 10.384 5.19869 11.8354 6.09591 13.1416C6.99314 14.4479 8.12786 15.3187 9.50008 15.7541Z" fill="url(#paint0_linear_20_230)"/>
</g>
<defs>
<linearGradient id="paint0_linear_20_230" x1="4.98221" y1="14.3819" x2="14.8134" y2="-1.83886" gradientUnits="userSpaceOnUse">
<stop stop-color="#2B73FF"/>
<stop offset="1" stop-color="#39D0FF"/>
</linearGradient>
</defs>
</svg>
