<svg width="15" height="15" viewBox="0 0 15 15" fill="none" xmlns="http://www.w3.org/2000/svg">
<mask id="mask0_20_112" style="mask-type:alpha" maskUnits="userSpaceOnUse" x="0" y="0" width="15" height="15">
<rect width="15" height="15" fill="#D9D9D9"/>
</mask>
<g mask="url(#mask0_20_112)">
<path d="M7.46875 11.25C7.6875 11.25 7.8725 11.1744 8.02375 11.0231C8.17458 10.8723 8.25 10.6875 8.25 10.4688C8.25 10.25 8.17458 10.0652 8.02375 9.91438C7.8725 9.76313 7.6875 9.6875 7.46875 9.6875C7.25 9.6875 7.065 9.76313 6.91375 9.91438C6.76292 10.0652 6.6875 10.25 6.6875 10.4688C6.6875 10.6875 6.76292 10.8723 6.91375 11.0231C7.065 11.1744 7.25 11.25 7.46875 11.25ZM6.90625 8.84375H8.0625C8.0625 8.5 8.10167 8.22917 8.18 8.03125C8.25792 7.83333 8.47917 7.5625 8.84375 7.21875C9.11458 6.94792 9.32812 6.69 9.48438 6.445C9.64062 6.20042 9.71875 5.90625 9.71875 5.5625C9.71875 4.97917 9.50521 4.53125 9.07812 4.21875C8.65104 3.90625 8.14583 3.75 7.5625 3.75C6.96875 3.75 6.48708 3.90625 6.1175 4.21875C5.7475 4.53125 5.48958 4.90625 5.34375 5.34375L6.375 5.75C6.42708 5.5625 6.54437 5.35938 6.72687 5.14063C6.90896 4.92188 7.1875 4.8125 7.5625 4.8125C7.89583 4.8125 8.14583 4.90354 8.3125 5.08563C8.47917 5.26813 8.5625 5.46875 8.5625 5.6875C8.5625 5.89583 8.5 6.09104 8.375 6.27312C8.25 6.45562 8.09375 6.625 7.90625 6.78125C7.44792 7.1875 7.16667 7.49479 7.0625 7.70312C6.95833 7.91146 6.90625 8.29167 6.90625 8.84375ZM7.5 13.75C6.63542 13.75 5.82292 13.5858 5.0625 13.2575C4.30208 12.9296 3.64062 12.4844 3.07813 11.9219C2.51563 11.3594 2.07042 10.6979 1.7425 9.9375C1.41417 9.17708 1.25 8.36458 1.25 7.5C1.25 6.63542 1.41417 5.82292 1.7425 5.0625C2.07042 4.30208 2.51563 3.64062 3.07813 3.07813C3.64062 2.51563 4.30208 2.07021 5.0625 1.74187C5.82292 1.41396 6.63542 1.25 7.5 1.25C8.36458 1.25 9.17708 1.41396 9.9375 1.74187C10.6979 2.07021 11.3594 2.51563 11.9219 3.07813C12.4844 3.64062 12.9296 4.30208 13.2575 5.0625C13.5858 5.82292 13.75 6.63542 13.75 7.5C13.75 8.36458 13.5858 9.17708 13.2575 9.9375C12.9296 10.6979 12.4844 11.3594 11.9219 11.9219C11.3594 12.4844 10.6979 12.9296 9.9375 13.2575C9.17708 13.5858 8.36458 13.75 7.5 13.75ZM7.5 12.5C8.89583 12.5 10.0781 12.0156 11.0469 11.0469C12.0156 10.0781 12.5 8.89583 12.5 7.5C12.5 6.10417 12.0156 4.92187 11.0469 3.95312C10.0781 2.98437 8.89583 2.5 7.5 2.5C6.10417 2.5 4.92187 2.98437 3.95312 3.95312C2.98437 4.92187 2.5 6.10417 2.5 7.5C2.5 8.89583 2.98437 10.0781 3.95312 11.0469C4.92187 12.0156 6.10417 12.5 7.5 12.5Z" fill="#7E7E7E"/>
</g>
</svg>
