<svg width="32" height="32" viewBox="0 0 32 32" fill="none" xmlns="http://www.w3.org/2000/svg">
<path d="M15.5752 21.7671L17.7423 19.6L15.2656 17.1233H21.7669V14.0274H15.2656L17.7423 11.5507L15.5752 9.38356L9.38338 15.5753L15.5752 21.7671ZM15.5752 31.0548C13.4338 31.0548 11.4215 30.6482 9.53817 29.835C7.65484 29.0229 6.01659 27.9202 4.62344 26.5271C3.23029 25.1339 2.12764 23.4957 1.31548 21.6123C0.502297 19.729 0.0957031 17.7167 0.0957031 15.5753C0.0957031 13.434 0.502297 11.4217 1.31548 9.53835C2.12764 7.65502 3.23029 6.01678 4.62344 4.62363C6.01659 3.23048 7.65484 2.12731 9.53817 1.31412C11.4215 0.501964 13.4338 0.0958862 15.5752 0.0958862C17.7165 0.0958862 19.7288 0.501964 21.6121 1.31412C23.4955 2.12731 25.1337 3.23048 26.5269 4.62363C27.92 6.01678 29.0227 7.65502 29.8348 9.53835C30.648 11.4217 31.0546 13.434 31.0546 15.5753C31.0546 17.7167 30.648 19.729 29.8348 21.6123C29.0227 23.4957 27.92 25.1339 26.5269 26.5271C25.1337 27.9202 23.4955 29.0229 21.6121 29.835C19.7288 30.6482 17.7165 31.0548 15.5752 31.0548Z" fill="#7E7E7E"/>
</svg>
