<svg width="23" height="20" viewBox="0 0 23 20" fill="none" xmlns="http://www.w3.org/2000/svg">
<path d="M22.0684 0.276009C21.6934 -0.0419912 21.1044 -0.0874911 20.4954 0.157009H20.4944C19.8539 0.414009 2.36392 7.91601 1.65192 8.22251C1.52242 8.26751 0.391416 8.68951 0.507916 9.62951C0.611916 10.477 1.52092 10.828 1.63192 10.8685L6.07842 12.391C6.37342 13.373 7.46092 16.996 7.70142 17.77C7.85142 18.2525 8.09592 18.8865 8.52442 19.017C8.90042 19.162 9.27442 19.0295 9.51642 18.8395L12.2349 16.318L16.6234 19.7405L16.7279 19.803C17.0259 19.935 17.3114 20.001 17.5839 20.001C17.7944 20.001 17.9964 19.9615 18.1894 19.8825C18.8469 19.6125 19.1099 18.986 19.1374 18.915L22.4154 1.87651C22.6154 0.966509 22.3374 0.503509 22.0684 0.276009ZM9.99992 13L8.49992 17L6.99992 12L18.4999 3.50001L9.99992 13Z" fill="white"/>
</svg>
