<svg width="17" height="17" viewBox="0 0 17 17" fill="none" xmlns="http://www.w3.org/2000/svg">
<mask id="mask0_251_5459" style="mask-type:alpha" maskUnits="userSpaceOnUse" x="0" y="0" width="17" height="17">
<rect width="17" height="17" fill="#D9D9D9"/>
</mask>
<g mask="url(#mask0_251_5459)">
<path d="M2.83317 14.1666C2.44359 14.1666 2.1102 14.028 1.833 13.7509C1.55534 13.4732 1.4165 13.1396 1.4165 12.75V9.91665C1.80609 9.91665 2.13971 9.77781 2.41738 9.50015C2.69457 9.22295 2.83317 8.88956 2.83317 8.49998C2.83317 8.1104 2.69457 7.77677 2.41738 7.4991C2.13971 7.22191 1.80609 7.08331 1.4165 7.08331V4.24998C1.4165 3.8604 1.55534 3.52701 1.833 3.24981C2.1102 2.97215 2.44359 2.83331 2.83317 2.83331H14.1665C14.5561 2.83331 14.8897 2.97215 15.1674 3.24981C15.4446 3.52701 15.5832 3.8604 15.5832 4.24998V7.08331C15.1936 7.08331 14.86 7.22191 14.5823 7.4991C14.3051 7.77677 14.1665 8.1104 14.1665 8.49998C14.1665 8.88956 14.3051 9.22295 14.5823 9.50015C14.86 9.77781 15.1936 9.91665 15.5832 9.91665V12.75C15.5832 13.1396 15.4446 13.4732 15.1674 13.7509C14.8897 14.028 14.5561 14.1666 14.1665 14.1666H2.83317ZM8.49984 12.0416C8.70053 12.0416 8.86888 11.9736 9.00488 11.8376C9.14041 11.7021 9.20817 11.534 9.20817 11.3333C9.20817 11.1326 9.14041 10.9643 9.00488 10.8283C8.86888 10.6927 8.70053 10.625 8.49984 10.625C8.29914 10.625 8.13103 10.6927 7.9955 10.8283C7.8595 10.9643 7.7915 11.1326 7.7915 11.3333C7.7915 11.534 7.8595 11.7021 7.9955 11.8376C8.13103 11.9736 8.29914 12.0416 8.49984 12.0416ZM8.49984 9.20831C8.70053 9.20831 8.86888 9.14031 9.00488 9.00431C9.14041 8.86878 9.20817 8.70067 9.20817 8.49998C9.20817 8.29928 9.14041 8.13094 9.00488 7.99494C8.86888 7.85941 8.70053 7.79165 8.49984 7.79165C8.29914 7.79165 8.13103 7.85941 7.9955 7.99494C7.8595 8.13094 7.7915 8.29928 7.7915 8.49998C7.7915 8.70067 7.8595 8.86878 7.9955 9.00431C8.13103 9.14031 8.29914 9.20831 8.49984 9.20831ZM8.49984 6.37498C8.70053 6.37498 8.86888 6.30698 9.00488 6.17098C9.14041 6.03545 9.20817 5.86734 9.20817 5.66665C9.20817 5.46595 9.14041 5.2976 9.00488 5.1616C8.86888 5.02608 8.70053 4.95831 8.49984 4.95831C8.29914 4.95831 8.13103 5.02608 7.9955 5.1616C7.8595 5.2976 7.7915 5.46595 7.7915 5.66665C7.7915 5.86734 7.8595 6.03545 7.9955 6.17098C8.13103 6.30698 8.29914 6.37498 8.49984 6.37498Z" fill="#419F4D"/>
</g>
</svg>
