<svg width="19" height="19" viewBox="0 0 19 19" fill="none" xmlns="http://www.w3.org/2000/svg">
<mask id="mask0_20_223" style="mask-type:alpha" maskUnits="userSpaceOnUse" x="0" y="0" width="19" height="19">
<rect width="19" height="19" fill="#D9D9D9"/>
</mask>
<g mask="url(#mask0_20_223)">
<path d="M11.8751 15.8334C10.107 15.8334 8.60946 15.2198 7.38237 13.9927C6.15529 12.7656 5.54175 11.2681 5.54175 9.50002C5.54175 7.73197 6.15529 6.2344 7.38237 5.00731C8.60946 3.78023 10.107 3.16669 11.8751 3.16669C13.6431 3.16669 15.1407 3.78023 16.3678 5.00731C17.5949 6.2344 18.2084 7.73197 18.2084 9.50002C18.2084 11.2681 17.5949 12.7656 16.3678 13.9927C15.1407 15.2198 13.6431 15.8334 11.8751 15.8334ZM5.54175 15.6354C4.14314 15.266 3.00182 14.5139 2.11779 13.3792C1.23376 12.2445 0.791748 10.9514 0.791748 9.50002C0.791748 8.04863 1.23376 6.75558 2.11779 5.62085C3.00182 4.48613 4.14314 3.73405 5.54175 3.3646V5.0271C4.59175 5.35696 3.82647 5.93092 3.24591 6.74898C2.66536 7.56703 2.37508 8.48405 2.37508 9.50002C2.37508 10.516 2.66536 11.433 3.24591 12.2511C3.82647 13.0691 4.59175 13.6431 5.54175 13.9729V15.6354ZM11.8751 14.25C13.1945 14.25 14.3161 13.7882 15.2397 12.8646C16.1633 11.941 16.6251 10.8195 16.6251 9.50002C16.6251 8.18058 16.1633 7.05905 15.2397 6.13544C14.3161 5.21183 13.1945 4.75002 11.8751 4.75002C10.5556 4.75002 9.43411 5.21183 8.5105 6.13544C7.58689 7.05905 7.12508 8.18058 7.12508 9.50002C7.12508 10.8195 7.58689 11.941 8.5105 12.8646C9.43411 13.7882 10.5556 14.25 11.8751 14.25Z" fill="url(#paint0_linear_20_223)"/>
</g>
<defs>
<linearGradient id="paint0_linear_20_223" x1="1.68819" y1="14.8088" x2="13.5847" y2="-1.05692" gradientUnits="userSpaceOnUse">
<stop stop-color="#FFDB6F"/>
<stop offset="1" stop-color="#FFBB29"/>
</linearGradient>
</defs>
</svg>
