<svg width="25" height="25" viewBox="0 0 25 25" fill="none" xmlns="http://www.w3.org/2000/svg">
<path d="M23.8349 18.3344C22.899 16.65 20.4881 14.626 19.4927 13.7453C19.2203 13.5042 19.1912 13.087 19.4391 12.8203C21.3386 10.7792 22.8578 8.43386 23.3808 7.01667C23.6115 6.39063 23.1339 5.72917 22.461 5.72917H20.5063C19.862 5.72917 19.4849 5.96042 19.3052 6.32865C17.7266 9.56355 16.3724 10.9635 15.4245 11.7818C14.8938 12.2401 14.0662 11.8604 14.0662 11.163C14.0662 9.81928 14.0662 8.0823 14.0662 6.85053C14.0662 6.25313 13.5776 5.7698 12.975 5.7698L9.4042 5.72917C8.95472 5.72917 8.69795 6.23803 8.96774 6.5948L9.55733 7.44115C9.7792 7.73438 9.89899 8.09115 9.89899 8.4573L9.89587 12.2688C9.89587 12.9318 9.09222 13.2557 8.61514 12.7912C7.00108 11.2193 5.60055 8.00938 5.09639 6.47449C4.95055 6.03022 4.53441 5.73022 4.06253 5.72917L2.13701 5.72449C1.41462 5.72449 0.886491 6.40938 1.08285 7.09897C2.84222 13.2745 6.45212 19.1495 12.8855 19.7865C13.5193 19.849 14.0662 19.3385 14.0662 18.7068V16.7037C14.0662 16.1292 14.5167 15.6354 15.0959 15.6208C15.1162 15.6203 15.1365 15.6203 15.1568 15.6203C16.8584 15.6203 18.7641 18.0969 19.4308 19.2552C19.6224 19.5885 19.9808 19.7917 20.3683 19.7917H22.9584C23.7141 19.7917 24.199 18.9901 23.8349 18.3344Z" fill="white"/>
</svg>
